<?xml version="1.0" encoding="utf-8"?>
<!-- Generator: Adobe Illustrator 24.1.2, SVG Export Plug-In . SVG Version: 6.00 Build 0)  -->
<svg version="1.1" id="Слой_1" xmlns="http://www.w3.org/2000/svg" xmlns:xlink="http://www.w3.org/1999/xlink" x="0px" y="0px"
	 viewBox="0 0 720 673.55" style="enable-background:new 0 0 720 673.55;" xml:space="preserve">
<path d="M224.22,269.89c4.83,46.33,9.67,92.67,14.5,139c1.81,17.32,29.16,17.5,27.33,0c-4.26-40.85-8.52-81.71-12.78-122.56
	c5.91,11.68,12.04,23.25,18.41,34.69c9.63,17.31,19.78,34.33,30.42,51.03c7.42,11.64,14.54,25.02,26.81,32.31
	c10.86,6.46,24.42,4.16,30.03-7.82c7.04-15.03,2.63-37.07,1.62-53.06c-2.96-46.52-3.96-93.22-5.77-139.79
	c-0.68-17.53-28.02-17.62-27.33,0c1.6,40.97,2.94,81.96,4.8,122.92c0.42,9.17,1.11,18.32,1.63,27.48c0.28,4.94,0.52,9.89,0.62,14.84
	c0.02,0.79-0.06,1.85-0.17,3.03c-3.55-4.95-6.58-10.46-9.77-15.5c-20.83-32.86-39.76-66.93-56.63-101.99
	c-5.95-12.35-13.18-32.13-31.03-27.37C217.72,232.22,222.73,255.58,224.22,269.89z"/>
<path d="M484.92,311.22c-13.83,19.48-41.67,22.61-61.19,10.37c-8.29-5.2-14.66-12.28-19.1-20.39c31.24-2.6,62.29-7.1,92.99-13.54
	c6.01-1.26,9.8-7.43,10.03-13.18c1.2-29.9-8.13-61.04-33.65-78.75c-24.55-17.04-56.96-14.61-77.82,7
	c-42.71,44.25-32.75,126.08,27.37,149.03c31.02,11.85,66.05-0.1,84.97-26.75C518.72,310.65,495.03,296.98,484.92,311.22z
	 M398.77,254.64c5.2-22.19,22.35-49.65,48.85-41.63c22.41,6.78,31.05,28.85,32.52,50.34c-27.47,5.34-55.14,9.04-83.05,11.11
	C396.7,267.86,397.24,261.16,398.77,254.64z"/>
<path d="M526.44,297.16c1.64,12.71,3.27,25.42,4.91,38.13c1.37,10.66,1.19,23.25,5.96,33.08c7.45,15.39,25.99,18.7,38.36,6.8
	c7.55-7.27,13.07-17.57,18.64-26.39c0.86-1.35,1.68-2.73,2.53-4.09c0.53,2.19,1.05,4.38,1.58,6.56c2.36,9.82,3.53,21.33,8.3,30.34
	c10.46,19.79,33.38,10.89,41.57-5.36c20.75-41.13,35.26-86.69,47.39-130.99c4.52-16.51-21.1-23.56-25.61-7.06
	c-8.77,32.03-19.26,63.55-31.67,94.36c-3.07,7.61-6.27,15.17-9.59,22.67c-0.23,0.52-0.83,1.52-1.49,2.67
	c-2.25-9.22-4.46-18.45-6.66-27.68c-1.24-5.2-1.98-10.51-3.41-15.66c-1.14-4.12-2.77-9.88-6.03-12.79
	c-6.29-5.62-16.08-4.91-20.65,2.45c-8.58,13.82-16.8,27.86-25.8,41.41c-0.33,0.5-2.44,3.17-4.23,5.62c-0.5-3.38-1.55-7.65-1.75-9.21
	c-0.58-4.49-1.16-8.97-1.73-13.46c-4.62-35.89-9.24-71.78-13.86-107.67c-0.92-7.17-5.45-13.2-13.28-13.28
	c-6.47-0.07-14.2,6.17-13.28,13.28C519.89,246.32,523.17,271.74,526.44,297.16z"/>
<path d="M69.38,283.49c4.83,2.71,9.85,4.9,14.97,6.54c16.91,5.42,35.04,4.84,51.89-3.06c1.59-0.75,3.15-1.55,4.68-2.41
	c22.32-12.6,33.97-38.02,37.3-62.52c0.04-0.28,0.06-0.55,0.09-0.83c28.51-4.03,50.39-24.91,50.74-54.95c0.1-8.55-13.18-8.55-13.28,0
	c-0.21,18.1-11.09,33.88-28.56,39.53c-2.59,0.84-5.2,1.45-7.83,1.91c0.96-28.39-5.72-57.27-10.19-84.99
	c-2.85-17.66-5.7-35.32-8.55-52.99c-0.13-0.83-0.3-1.73-0.49-2.68c3.03-2.63,5.92-5.46,8.6-8.59c5.29-6.16,9.38-13.56,12.16-21.16
	c2.47-6.77,4.13-14.45,2.43-21.6c-1.76-7.45-7.6-12.76-14.81-14.9c-12.75-3.79-21.61,6.82-26.6,17.15
	c-5.17,10.71-8.08,22.69-9.68,34.44c-0.85,6.27-1.32,12.55-1.5,18.83c-1.26,0.71-2.53,1.42-3.79,2.1
	c-27.47,14.93-61.46,29.57-69.9,63.07c-6.88,27.34,14.81,59.02,44.91,51.97c8.32-1.95,4.8-14.76-3.53-12.81
	c-16.91,3.96-30.58-13.39-29.64-29.18c1.04-17.33,14.37-31.58,27.89-40.99c10.72-7.45,22.58-13.19,34.14-19.32
	c0.77,20.51,4.07,40.98,7.34,61.19c3.01,18.57,7.52,39.28,7.98,59.44c-4.31-0.74-8.59-1.6-12.8-2.46
	c-24.6-5.02-51.36-10.14-74.2,3.79c-19.18,11.7-22.87,33.08-12.93,52.5C51.31,270.41,59.76,278.11,69.38,283.49z M155.28,29.63
	c0.44-3.9,1.54-8.09,3.94-11.26c1.22-1.61,2.8-2.89,4.77-3.45c2.57-0.73,4.32,1.47,5.61,3.49c4.1,6.44-1.94,18.42-5.29,23.87
	c-2.14,3.43-4.58,6.49-7.41,9.36c-1.06-3.55-1.24-7.31-1.57-10.98C154.99,37,154.87,33.29,155.28,29.63z M53.77,237.33
	c0.95-12.46,12.51-19.54,23.41-22.74c22.75-6.67,45.65,1.03,68.65,5.13c-0.81,10.25-3.03,20.21-7.44,29.48
	c-12.64,26.53-43.78,37.17-68.41,19.1C60.71,261.5,52.85,249.26,53.77,237.33z"/>
<path d="M258.43,140.83c7.47,4.18,14.17-7.29,6.7-11.47c-18.94-10.61-11.33-42.64-3.68-58.03c4.2-8.45,10.5-15.32,17.85-21.16
	c5.35-4.25,15.8-14.42,19.48-3.11c0.92,2.83,0.71,5.88,0.4,8.84c-1.73,16.41-6.26,32.39-8.94,48.68
	c-2.43,14.79-6.43,44.2,5.99,55.73c20,18.56,24.08-20.85,27-31.54c3.36-12.31,8.1-24.22,13.81-35.63
	c4.76-9.51,8.02-20.78,17.58-26.63c1.22-0.75,2.65-1.43,4.05-1.12c2.27,0.51,3.19,3.24,3.38,5.56c0.31,3.82-0.26,7.66-0.8,11.45
	c-1.43,10.02-2.66,20.08-3.67,30.15c-1.3,12.94-4.2,38.65,11.64,43.91c13.58,4.5,20.52-11.9,24.56-22
	c6.75-16.86,11.5-34.54,19.4-50.93c3.37-7,7.34-16.03,13.08-21.45c7.03-6.65,9.24,1.62,7.67,8.87c-3.79,17.43-9.29,34.82-9.25,52.82
	c0.02,8.48,1.34,17.29,5.85,24.63c9.98,16.27,31.6,21.06,48.65,14.48c26.99-10.41,36.71-40,24.75-65.36
	c-3.64-7.73-15.1-0.99-11.47,6.7c6.42,13.61,4.37,29.52-7.19,39.75c-6.85,6.07-21.73,12.85-29.58,4.71
	c-5.38-5.58-6.55-16.15-6.04-23.53c0.81-11.76,4.94-22.9,7.5-34.33c3.66-16.35,3.6-53.3-22.21-49.61
	c-11.65,1.66-19.76,12.89-25.7,22.06c-7.59,11.72-12.74,24.88-17.48,37.95c-2.19,6.04-4.04,12.2-6.2,18.24
	c-1.34,3.75-2.49,7.86-4.39,11.38c-0.8,1.49-2.34,6.32-3.99,6.89c-1.67,0.58-1.61-2.45-1.43-3.69c0.78-5.26,1.61-10.52,2.5-15.76
	c2.6-15.51,7.04-30.92,7.02-46.61c-0.01-5.79-1.15-11.95-4.69-16.68c-3.96-5.3-10.15-7.1-16.51-7.1c-1.82,0-3.63,0.28-5.38,0.76
	c-16.53,4.48-25.22,22.13-32.27,36.13c-5.64,11.21-10.29,22.53-13.89,34.19c0.4-4.33,0.95-8.65,1.73-12.95
	c2.78-15.5,5.66-31,8.23-46.57c1.46-8.84,1.9-19.65-3.71-27.24c-6.69-9.05-19.57-9.3-29.02-4.84
	c-21.21,9.99-38.01,28.63-45.17,50.81C238.05,98.35,237.11,128.88,258.43,140.83z"/>
<path d="M654.14,517.25c-16.23,0.96-31.35,7.08-43.21,18.35c-14.19,13.49-18.18,30.81-22,49.31c-2.7,13.1-9.68,37.45-26.78,36.81
	c-12.91-0.48-18.87-16.85-21.48-27.52c-1.71-7.01-2.42-14.24-2.66-21.43c-0.06-1.82-0.82-19.19,0.43-19.52
	c28.26-7.44,52.43-30.4,56.62-60.28c1.49-10.64-0.49-22.52-7.87-30.72c-8.61-9.56-24.04-11.41-35.73-7.18
	c-8.45,3.06-15.87,8.71-21.71,15.48c-7.57,8.77-13.64,18.79-18.19,29.43c-5.34,12.5-8.63,25.86-9.93,39.38
	c-0.65,6.75-0.8,13.54-0.45,20.32c0.38,7.38,0.46,14.77,0.85,22.14c0.27,5.09,0.24,10.15-0.37,15.22
	c-1.17,9.81-4.18,19.39-8.89,28.08c-7.19,13.24-24.49,33.74-39.01,16.87c-11.17-12.98-5.68-33.44-0.34-47.8
	c3.09-8.3,7.15-16.24,12.01-23.64c3.64-5.55,9.47-10.87,10.3-17.75c1.17-9.61-7.5-16.5-14.57-21.33
	c-10.94-7.47-22.55-11.92-31.97-21.61c-0.47-0.48-0.92-0.99-1.38-1.49c10.11-22.19,17.76-45.34,22.04-69.39
	c3.39-19.04,4.83-43.55-15.63-53.63c-16.56-8.16-31.1,4.98-37.19,19.62c-8.5,20.41-8.56,44.49-3.32,65.71
	c3.51,14.21,9.65,27.8,18.39,39.45c-16.1,30.62-30.34,62.68-48.14,92.25c-5.86,9.73-12.65,20.09-22.45,26.26
	c-3.89,2.45-8.12,4.07-12.01,0.9c-3.08-2.52-5.57-6.41-7.04-10.09c-2.53-6.34-3.38-13.2-4.35-19.91
	c-1.73-11.99-1.98-24.33-0.87-36.43c26.18-10.65,56.88-35.48,51.1-64.83c-2.69-13.69-15.01-23.78-29.21-20.86
	c-16.38,3.37-28.43,18.97-36.73,32.4c-5.97,9.66-10.52,20.19-13.61,31.12c-4.08,14.42-4.59,29.41-7.79,44
	c-3.29,14.97-8.54,29.56-15.96,42.98c-3.77,6.82-27.2,45.34-33.3,26.08c-4.27-13.46,1.58-31.35,3.5-44.65
	c3.09-21.42,6.18-42.85,9.27-64.27c3.59-24.91,12.58-67.61-17.23-81.02c-20.26-9.12-41.74,8.23-50.94,25.23
	c-10.79,19.94-18.7,41.71-24.31,64.05c-6.65-17.51-12.03-35.51-16.03-53.81c36.5-17.13,59.66-56.96,54.66-98.85
	c-2.55-21.36-14.46-49.17-39.57-50.08c-28.32-1.02-42.27,27.88-48.05,51.24c-7.56,30.57-6.17,62.34,0.09,92.98
	c-39.76,3.38-76.83-21.86-87.2-61.82c-12.59-48.52,22.35-95.52,70.98-102.27c8.43-1.17,4.84-13.97-3.53-12.81
	c-50.43,6.99-89.08,54.51-82.7,105.53c6.56,52.47,52.9,89.82,105.38,84.34c0.64-0.07,10.69,41.76,11.8,45.63
	c4.34,15.23,9.26,30.32,15.33,44.96c2.13,5.13,3.54,11.16,7.57,15.22c4.33,4.37,14.25,4.56,14.96-3.13
	c3.57-38.92,13.36-79.9,32.08-114.5c2.8-5.17,13.21-22.27,20.88-15.02c7.38,6.97,6,21.76,5.03,30.71
	c-0.93,8.61-2.92,17.06-3.9,25.65c-2.38,20.82-4.77,41.65-7.15,62.47c-1.95,17.04-5.32,35.72,2.05,51.96
	c3.16,6.97,8.18,13.13,14.72,17.17c7.35,4.54,15.02,5.83,23.26,3.33c18.24-5.52,28.54-27.04,36.47-42.68
	c3.75-7.39,6.83-14.98,9.38-22.73c0.17,0.58,0.31,1.17,0.49,1.75c4.39,14.11,12.7,29.13,27.12,34.88
	c15.11,6.02,30.84-0.58,41.83-11.44c14.73-14.56,23.47-33.74,32.62-51.99c9.98-19.91,20.31-39.65,30.8-59.29
	c1.66,1.63,3.37,3.21,5.16,4.71c4.93,4.14,10.21,7.15,15.71,10.22c-15.39,23.6-28.95,50.12-24.74,79.13
	c3.31,22.77,19.82,43.07,42.99,47.37c15.83,2.94,30.85-10.9,39.09-22.84c7.12-10.31,11.74-21.85,14.03-33.85
	c1.99,5.18,8.32,12.2,10.36,14.46c4.15,4.6,8.91,8.74,14.31,11.81c15.44,8.76,36.06,5.44,48.1-7.6
	c11.39-12.33,13.94-30.06,17.3-45.84c5.5-25.87,22.59-46.2,50.41-47.85C662.63,530.03,662.69,516.74,654.14,517.25z M548.83,498.22
	c3.4-10.28,10.5-31.45,24.78-28.68c8.76,1.7,8.44,14.37,7.59,21c-1.06,8.31-3.9,16.93-8.61,23.91c-7.9,11.7-19.64,20.45-32.91,24.85
	C541.32,525.35,544.43,511.54,548.83,498.22z M327.19,520.43c2.4-6.27,4.89-12.65,8.79-18.16c2.39-3.37,5.66-7.32,9.75-8.61
	c5.23-1.66,8.35,2.01,9.54,6.63c2.16,8.4-2.74,17.09-7.46,23.7c-7.35,10.29-17.23,18.19-28.38,23.72
	C321.21,538.41,323.8,529.26,327.19,520.43z M133.35,486.26c-1.28-7.09-2.41-14.2-3.26-21.36c-1.95-16.4-2.84-32.93-2.63-49.44
	c0.13-10.49-0.17-21.37,3.03-31.49c3.34-10.58,13.3-21.68,25.37-18.96c0.16,0.04,0.32,0.07,0.48,0.11
	c5.97,1.52,10.26,6.31,13.23,11.47c1.55,2.69,2.79,5.55,3.85,8.46c8.38,23.04,5.25,49.14-7.36,70.17
	c-3.9,6.51-8.67,12.5-14.16,17.75c-2.79,2.67-5.78,5.14-8.92,7.39C142.12,480.97,133.31,486.02,133.35,486.26z M418.7,496.42
	c-16.25-25.71-21.89-62.64-8.24-89.08c5.42-10.49,16.91-15.39,24.56-3.91c6.82,10.23,3.44,24.84,1.27,36.1
	C432.51,459.09,426.57,478.13,418.7,496.42z"/>
<path d="M203.77,269.79c-6.97-3.98-13.95-7.97-20.92-11.95c-7.43-4.25-14.13,7.22-6.7,11.47c6.97,3.98,13.95,7.97,20.92,11.95
	C204.5,285.51,211.2,274.04,203.77,269.79z"/>
<path d="M189.3,293.51c-10.28,0.41-20.55,0.83-30.83,1.24c-8.52,0.34-8.56,13.63,0,13.28c10.28-0.41,20.55-0.83,30.83-1.24
	C197.81,306.45,197.86,293.16,189.3,293.51z"/>
<path d="M190.08,346.49c4.12-2.45,8.24-4.91,12.36-7.36c7.34-4.37,0.67-15.86-6.7-11.47c-4.12,2.45-8.24,4.91-12.36,7.36
	C176.04,339.39,182.71,350.88,190.08,346.49z"/>
<path d="M719.16,309.17c-1.93-3.4-5.83-3.83-9.09-2.38c-7.4,3.28-14.8,6.57-22.21,9.85c-3.3,1.47-4.01,6.22-2.38,9.09
	c1.93,3.4,5.83,3.83,9.09,2.38c7.4-3.28,14.8-6.57,22.21-9.85C720.08,316.79,720.79,312.03,719.16,309.17z"/>
<path d="M708.45,352.47c-6.98-1.69-13.96-3.37-20.93-5.06c-8.3-2.01-11.85,10.8-3.53,12.81c6.98,1.69,13.96,3.37,20.93,5.06
	C713.22,367.28,716.77,354.48,708.45,352.47z"/>
<path d="M678.48,370.87c-4.52-7.23-16.02-0.57-11.47,6.7c4.11,6.58,8.22,13.15,12.33,19.73c4.52,7.23,16.02,0.57,11.47-6.7
	C686.7,384.03,682.59,377.45,678.48,370.87z"/>
<path d="M612.27,166.58c-3.48-0.21-6.96,1.88-6.64,6.34c-0.92,12.83-9.2,23.21-20.81,28.23c-2.82,1.22-3.72,3.48-3.39,5.72
	c-0.34,2.25,0.56,4.52,3.39,5.74c11.61,5.02,19.89,15.4,20.81,28.23c-0.32,4.46,3.16,6.55,6.64,6.34c3.48,0.21,6.96-1.88,6.64-6.34
	c0.92-12.83,9.2-23.21,20.81-28.23c2.82-1.22,3.72-3.48,3.39-5.72c0.34-2.25-0.56-4.52-3.39-5.74
	c-11.61-5.02-19.89-15.4-20.81-28.23C619.24,168.46,615.76,166.37,612.27,166.58z M626.68,206.88
	c-5.81,4.53-10.68,10.09-14.41,16.38c-3.73-6.28-8.59-11.84-14.41-16.38c5.81-4.53,10.68-10.09,14.41-16.38
	C616.01,196.79,620.87,202.35,626.68,206.88z"/>
<path d="M656.61,454.64c-8.55-3.7-14.66-11.35-15.33-20.79c0.24-3.29-2.33-4.83-4.89-4.67c-2.56-0.16-5.13,1.38-4.89,4.67
	c-0.68,9.45-6.78,17.1-15.33,20.79c-2.08,0.9-2.74,2.57-2.5,4.22c-0.25,1.66,0.42,3.33,2.5,4.23c8.55,3.7,14.66,11.35,15.33,20.79
	c-0.24,3.29,2.33,4.83,4.89,4.67c2.56,0.16,5.13-1.38,4.89-4.67c0.68-9.45,6.78-17.1,15.33-20.79c2.08-0.9,2.74-2.57,2.5-4.22
	C659.36,457.22,658.69,455.54,656.61,454.64z M636.38,468.19c-2.12-3.57-4.89-6.74-8.2-9.32c3.31-2.58,6.08-5.74,8.2-9.32
	c2.12,3.58,4.89,6.74,8.2,9.32C641.27,461.45,638.5,464.61,636.38,468.19z"/>
<path d="M507.56,384.37c-2.56-0.16-5.13,1.38-4.89,4.67c-0.68,9.45-6.78,17.1-15.33,20.79c-2.08,0.9-2.74,2.57-2.5,4.22
	c-0.25,1.66,0.42,3.33,2.5,4.23c8.55,3.7,14.66,11.35,15.33,20.79c-0.24,3.29,2.33,4.83,4.89,4.67c2.56,0.16,5.13-1.38,4.89-4.67
	c0.68-9.45,6.78-17.1,15.33-20.79c2.08-0.9,2.74-2.57,2.5-4.22c0.25-1.66-0.42-3.33-2.5-4.23c-8.55-3.7-14.66-11.35-15.33-20.79
	C512.69,385.76,510.13,384.22,507.56,384.37z M515.76,414.06c-3.31,2.58-6.08,5.74-8.2,9.32c-2.12-3.58-4.89-6.74-8.2-9.32
	c3.31-2.58,6.08-5.74,8.2-9.32C509.69,408.32,512.45,411.48,515.76,414.06z"/>
<path d="M555.08,175.45c1.75,2.84,5.45,3.21,7.87,1.01c17.79-16.15,33.47-34.88,44.04-56.58c7.01-14.4,18.51-39.75-1.5-49.45
	c-11.24-5.44-24.65,0.04-35.56,9.57c-4.78-8.07-11.82-14.56-21.25-14.79c-20.87-0.5-22.29,23.19-20.83,38.45
	C530.32,129.7,541.52,153.45,555.08,175.45z M563.67,101.26c0.8-1.23,1.67-2.42,2.61-3.55c0.41,1.8,0.73,3.62,0.96,5.46
	c0.47,3.76,0.66,7.76-0.3,11.46c-0.46,1.77-2.41,5.94-4.67,5.86c-0.58-0.02-1.18-0.32-1.77-1.01c-2.18-2.53-1.47-6.54-0.66-9.46
	C560.68,106.97,561.96,103.92,563.67,101.26z M538.32,83.76c5.63-17.16,17.97-5.99,24,4.01c0.12,0.19-3.56,4.58-3.91,5.08
	c-1.22,1.74-2.35,3.53-3.4,5.37c-1.92,3.39-3.55,6.98-4.61,10.73c-1.62,5.74-2.06,12.75,2.25,17.47c1.65,1.81,3.8,3.25,6.12,4.03
	c4.63,1.56,10.1-0.81,13.14-4.46c4.16-5,5.41-12.07,5.58-18.4c0.08-3.21-0.13-6.46-0.75-9.61c-0.52-2.63-1.29-5.44-2.29-8.27
	c0.52-0.44,1.03-0.89,1.55-1.31c5.24-4.25,12.9-10.46,20.1-10c15.76,1,10.14,17.33,6.8,25.94c-9.09,23.42-24.37,43.46-42.39,60.7
	c-6.99-11.8-13.22-24.04-17.43-37.15C539.01,115.27,534,96.93,538.32,83.76z"/>
<path d="M75.57,536.98c-5.92,2-10.57,8.03-13.48,15.45c-13.38-6.89-30.77-8.85-38.31,7.79c-8.58,18.93,10.88,37.67,24.6,47.46
	c5.6,4,11.28,7.9,16.89,11.89c3.97,2.83,13.78,8.21,15.64,11.47c1.53,2.68,6.23,2.41,7.38-0.49c8.75-22.03,15.31-45.57,12.12-69.47
	C98.7,548.2,91.9,531.46,75.57,536.98z M67.59,566.94c6.69,6.05,13.76,14.68,6.92,18.24C68.49,584.5,67.4,573.21,67.59,566.94z
	 M92.07,584.95c-1.31,12.4-4.87,24.41-9.22,36.06c-3.37-2.48-7.37-4.64-9.99-6.51c-6.88-4.92-13.9-9.66-20.74-14.64
	c-10.78-7.84-34.42-31.73-14.07-42.61c7.61-4.07,14.9-0.4,21.62,3.52c0.12,0.07-0.95,10.98-0.88,12.17
	c0.23,3.79,0.94,7.63,2.52,11.11c1.39,3.06,3.48,5.84,6.39,7.6c5.02,3.05,9.62,2.79,13.85-1.08c3.03-2.78,4.07-6.65,3.46-10.65
	c-1.33-8.67-8.19-16.67-14.68-22.14c-0.07-0.06-0.76-0.57-0.74-0.61c3.09-8.73,9.71-18.77,18.21-9.16
	C95.02,556.2,93.11,575.12,92.07,584.95z"/>
<path d="M213.42,62.42c-0.24,1.58-0.48,3.24,0.05,4.75c0.59,1.69,2.16,3,3.93,3.26c2.25,0.34,4.09-0.42,5.62-1.8
	c3.93-3.55,5.81-11.2,7.37-14.97c2.62-6.36,3.9-13.45,4.15-20.29c0.25-6.56,0.36-18.78-6.02-22.91c-5.4-3.49-14.63,0.18-16.85,5.81
	c-1.88,4.75-0.67,9.71,1.45,14.16C218.09,40.87,215.09,51.49,213.42,62.42z"/>
</svg>
