<?xml version="1.0" encoding="utf-8"?>
<!-- Generator: Adobe Illustrator 15.1.0, SVG Export Plug-In . SVG Version: 6.00 Build 0)  -->
<!DOCTYPE svg PUBLIC "-//W3C//DTD SVG 1.1//EN" "http://www.w3.org/Graphics/SVG/1.1/DTD/svg11.dtd">
<svg version="1.1" id="Layer_1" xmlns:vectornator="http://vectornator.io"
	 xmlns="http://www.w3.org/2000/svg" xmlns:xlink="http://www.w3.org/1999/xlink" x="0px" y="0px" width="864px" height="864px"
	 viewBox="0 0 864 864" enable-background="new 0 0 864 864" xml:space="preserve">
<g>
	<path d="M152.727,586.5c-4.518-0.322-7.986,1.409-10.55,4.193c-1.188-2.425-2.993-4.507-5.321-6.283
		c-3.771-2.878-9.83-1.826-12.207,2.324c-5.574,9.734,3.513,18.658,8.762,26.289c1.419,2.063,4.522,3.486,6.84,1.794
		c7.848-5.73,19.656-8.646,20.477-22.317C160.934,589.072,155.908,586.727,152.727,586.5z"/>
	<path d="M770.195,500.473c-1.769-4.693-7.305-8.567-34.379-5.705c-3.022-13.457,1.034-30.826,6.442-40.421l-0.676-0.381
		l24.379-9.696c0.992-0.395,1.786-1.17,2.203-2.152c1.012-2.381,1.809-7.506-1.621-11.617c-5.239-6.281-17.601-7.17-37.74-2.74
		c-0.015-3.336,1.357-7.172,3.814-12.342l2.387-0.974c0.261-0.106,0.51-0.24,0.741-0.398c1.287-0.877,7.606-5.543,5.649-11.28
		c-1.206-3.531-4.622-6.728-18.616-7.377l28.608-13.01c0.356-0.162,0.687-0.376,0.981-0.634c2.688-2.358,5.177-6.613,3.344-10.845
		c-2.183-5.044-9.808-10.311-49.045-6.772c0.691-29.137,13.991-54.36,14.998-56.225c13.011-6.543,13.578-8.699,14.024-10.421
		c0.399-1.545,0.034-3.111-1.004-4.295c-3.053-3.484-12.094-7.022-57.186-9.304c-99.995-5.06-304.318,0.721-306.371,0.78
		c-0.689,0.019-1.361,0.217-1.951,0.573l-20.736,12.505l5.163-20.873c1.027-1.08,1.387-2.663,0.87-4.104
		c-0.602-1.677-2.24-2.753-4.018-2.64c-0.088,0.006-8.911,0.553-18.78,0.054c-19.221-0.973-23.542-4.859-24.409-6.028
		c-0.375-0.504-0.574-1.041-0.33-2.023c0.401-1.617-0.241-3.313-1.614-4.258s-3.186-0.939-4.554,0.012L151.573,361.77
		c-0.591,0.412-1.032,0.98-1.327,1.618l-1.749-0.281l-41.462,257.85c-0.331,2.057,0.973,4.022,2.996,4.519
		c0.442,0.108,10.959,2.678,22.526,4.468c5.767,0.893,10.432,1.383,14.229,1.574c10.676,0.54,14.476-1.278,16.484-3.155l0.191,0.223
		l24.215-20.776c0.91,1.96,1.942,3.909,3.124,5.837c0.69,1.127,1.892,1.838,3.208,1.904c0.025,0.002,0.051,0.003,0.076,0.003
		l329.666,10.45c0.627,0.02,1.248-0.107,1.816-0.372l234.848-109.402c0.191-0.09,0.375-0.193,0.551-0.312
		C763.778,514.015,772.76,507.282,770.195,500.473z M733.287,437.182c-0.606-0.636-1.127-1.254-1.605-1.865
		c22.256-4.734,27.573-1.018,28.686,0.269c0.545,0.632,0.685,1.391,0.675,2.032l-216.348,86.045
		c-0.015-0.038-0.021-0.077-0.037-0.114c-0.808-1.931-1.48-3.722-2.06-5.409l189.261-74.474c1.238-0.487,2.154-1.561,2.44-2.861
		C734.586,439.503,734.206,438.145,733.287,437.182z M731.279,505.661c-0.392,0.205-0.672,0.371-1.106,0.629
		c-0.924,0.551-2.846,1.693-10.404,5.725c-33.981,15.89-65.911,30.253-96.793,44.146c-27.932,12.565-56.766,25.543-87.455,39.789
		c1.014-13.688,2.239-34.098,3.651-60.876l-0.807-0.043c0.079-0.146,0.157-0.281,0.235-0.423c0.263-0.048,0.521-0.12,0.771-0.219
		l192.49-76.557C726.515,471.828,724.228,491.846,731.279,505.661z M508.915,478.949l-270.777-5.62
		c0.001-0.753-0.17-1.545-0.576-2.353c-13.528-26.92-6.492-60.573,2.146-88.009l271.535,2.913c-3.04,6.718-8.265,19.59-11.28,34.539
		C495.044,444.805,498.15,464.788,508.915,478.949z M227.542,473.109l-12.178-0.253c-6.364-48.556,4.367-79.011,9.391-90.049
		l4.522,0.048C220.515,411.563,214.886,444.977,227.542,473.109z M217.245,484.412l317.136,8.742
		c-0.298,0.53-0.586,1.097-0.85,1.719c-2.062,4.855-2.26,11.041-0.61,18.476l-0.145,0.057l0.402,1.024
		c0.731,3.021,1.747,6.235,3.069,9.651c-0.603,0.668-1.292,1.508-2.028,2.524c-84-1.489-282.219-5.214-318.509-6.711
		c-0.803-0.841-1.955-1.395-3.467-1.395c-0.916,0-1.696,0.207-2.352,0.553C202.101,506.275,214.494,488.148,217.245,484.412z
		 M543.356,494.809l-0.729-1.873l179.569-73.265c-2.025,6.177-2.297,12.208,1.72,18.522l-183.449,72.186
		c-2.465-12.77,2.95-15.592,3.021-15.626C543.404,494.794,543.356,494.809,543.356,494.809z M733.479,405.305
		c-0.415,0.573-1.186,1.34-1.938,1.913l-191.398,78.092l-14.229-0.393l179.36-81.567l0.02,0.316
		C725.905,402.441,731.906,404.456,733.479,405.305z M707.887,381.492c-0.542-3.124-0.879-6.245-1.068-9.344
		c35.387-3.241,40.838,1.117,41.492,1.861c-0.098,0.34-0.477,0.922-0.886,1.384L519.629,478.988
		c-1.832-1.753-3.439-3.62-4.862-5.573l190.848-87.604C707.265,385.053,708.197,383.28,707.887,381.492z M699.527,379.802
		l-188.854,86.69c-13.884-29.49,5.464-72.434,9.368-80.517l0.697,0.007c0.475,0.006,0.945-0.074,1.392-0.233
		c0.521-0.187,52.691-18.889,104.535-38.686c42.117-16.083,67.821-26.642,83.573-33.753
		C704.492,326.707,695.757,352.608,699.527,379.802z M345.391,310.083l0.337-1.362l26.682-16.091
		c16.021-0.443,208.714-5.613,304.687-0.757c30.234,1.53,42.842,3.659,48.077,5.132c-7.524,4.564-31.285,15.893-104.558,43.803
		c-47.479,18.085-94.37,34.962-100.51,37.167l-284.162-3.048l108.084-65.182L345.391,310.083z M300.235,268.003
		c0.185,0.311,0.389,0.617,0.61,0.915c4,5.391,13.954,8.417,30.429,9.25c2.321,0.118,4.576,0.18,6.68,0.207
		c-29.346,21.083-111.909,80.036-133.225,91.368c-5.8,3.083-12.097,4.477-18.716,4.142c-10.682-0.541-20.027-5.447-25.223-8.784
		L300.235,268.003z M157.93,620.563c-0.354,0.665-0.509,1.432-0.455,2.185c-3.849,2.164-22.497,0.279-41.952-4.189l39.792-247.466
		c5.711,3.85,16.925,10.105,30.292,10.782c6.292,0.318,12.345-0.661,18.066-2.882C192.698,445.641,165.047,607.186,157.93,620.563z
		 M184.682,599.836l-16.219,13.916c12.298-46.487,40.325-216.489,43.806-237.712l-1.842-0.302
		c24.826-13.985,105.199-71.443,133.123-91.526l-4.792,19.372l-117.5,70.86l-0.901-0.567c-0.102,0.163-0.472,0.769-1.015,1.771
		c-0.929,0.734-1.474,1.831-1.514,2.992c-5.578,11.692-17.741,44.731-9.917,98.72c0.203,1.392,1.111,2.527,2.331,3.073
		c-4.389,6.114-17.741,27.173-6.72,43.587C196.836,533.462,175.25,567.396,184.682,599.836z M196.55,607.628
		c-17.546-31.69,7.764-70.826,13.853-79.451c0.542,0.203,1.153,0.323,1.842,0.323c0.999,0,1.842-0.24,2.531-0.646
		c2.22,0.097,5.091,0.202,8.577,0.316c2.601,0.085,5.579,0.176,8.914,0.271c-16.74,22.971-23.556,51.381-20.186,79.679
		L196.55,607.628z M222.117,608.438c-3.346-27.501,2.992-55.639,20.663-77.403c0.59-0.728,0.938-1.501,1.097-2.276
		c5.051,0.133,10.639,0.272,16.749,0.42c27.264,0.657,65.268,1.47,112.956,2.415c31.199,0.617,62.548,1.213,89.374,1.712
		c-9.078,25.808-17.57,55.554-9.822,82.455L222.117,608.438z M525.198,614.741c0.078,0.808,0.271,1.456,0.527,1.989l-2.675,1.246
		l-59.341-1.881c-8.986-26.828,0.601-56.935,9.758-82.595c25.351,0.47,45.625,0.835,56.241,1.025
		C523.947,547.242,518.665,571.336,525.198,614.741z M756.732,509.118l-222.77,103.775c0.246-1.793,0.521-4.401,0.82-7.78
		c32.19-14.981,62.322-28.542,91.475-41.656c30.937-13.917,62.925-28.309,96.994-44.241c0.064-0.029,0.127-0.061,0.188-0.094
		c7.801-4.159,9.768-5.328,10.823-5.957c0.813-0.482,0.813-0.482,4.432-2.182c1.08-0.508,1.878-1.472,2.174-2.627
		c0.297-1.156,0.062-2.385-0.642-3.35c-0.572-0.785-1.092-1.616-1.565-2.482c17.915-1.714,22.759,0.117,23.879,0.782
		C761.969,504.646,759.345,507.291,756.732,509.118z"/>
</g>
<g>
	<path d="M105.481,250.368c13.019,12.132,21.11,26.252,28.456,40.538c0.528,1.026,0.651,2.146,0.413,3.223
		c-0.238,1.077-0.831,1.873-1.774,2.389c-0.945,0.517-1.945,0.611-3.002,0.28c-1.058-0.33-1.882-0.979-2.431-1.938
		c-7.911-13.817-23.288-38.79-28.001-39.209c-1.798-0.16-14.232,7.243-14.739,8.627c-0.218,0.596,2.019,4.575,3.437,7.81
		c3.625,8.266,6.474,14.457,8.312,18.479c0.46,1.007,0.499,2.05,0.122,3.135c-0.376,1.085-1.061,1.857-2.055,2.317
		c-0.995,0.46-2.01,0.475-3.046,0.044c-1.037-0.431-1.791-1.144-2.261-2.146c-1.91-4.077-4.76-10.247-8.541-18.507
		c-3.583-7.827-6.283-13.737-8.134-17.648c-6.22-13.141-12.916-26.351-20.129-38.848c-0.586-1.016-0.715-2.108-0.4-3.217
		c0.315-1.107,1.002-1.975,2.058-2.596c1.055-0.622,2.182-0.795,3.372-0.518c1.189,0.277,2.049,0.923,2.592,1.874
		c3.265,5.723,10.118,18.823,10.118,18.823c0.181-0.039,1.517-11.754,3.902-17.217c2.476-5.669,5.69-10.081,9.589-13.195
		c3.897-3.112,8.227-4.565,12.654-4.617c4.008-0.046,7.886,0.972,11.377,3.288c3.49,2.315,6.161,5.533,8.087,9.492
		c1.997,4.106,2.982,8.565,2.865,13.32c-0.117,4.756-1.365,9.384-3.621,13.876C112.522,242.568,104.542,249.493,105.481,250.368z
		 M82.536,255.887c2.708,1.071,19.74-11.541,24.755-21.29c3.497-6.797,3.705-13.582,0.585-19.804
		c-1.277-2.546-3.022-4.577-5.223-6.073c-2.199-1.495-4.496-2.267-6.785-2.225c-2.44,0.045-4.874,0.971-7.081,2.691
		c-2.757,2.148-5.124,5.523-7.047,9.972C76.662,230.898,80.199,254.963,82.536,255.887z"/>
	<path d="M135.155,252.957c-0.056,0.165,0.603,1.094,0.855,1.575c0.756,1.439,1.421,2.791,2.069,3.775
		c1.571,2.388,3.354,4.046,5.068,4.911c2.006,1.012,4.323,1.023,6.952,0.046c1.775-0.659,3.373-2.339,4.709-5.012
		c1.311-2.621,1.772-4.95,1.583-6.742c-0.117-1.105,0.202-2.169,0.858-3.073c0.655-0.903,1.538-1.405,2.644-1.5
		c1.104-0.095,2.104,0.206,2.994,0.899c0.889,0.693,1.412,1.606,1.554,2.722c0.457,3.594-0.405,7.456-2.458,11.539
		c-2.298,4.571-5.27,7.559-8.998,8.943c-4.713,1.75-9.121,1.622-13.214-0.431c-3.023-1.516-5.907-4.117-8.287-7.697
		c-0.874-1.315-1.771-2.878-2.667-4.55c-0.335-0.626-0.697-1.338-1.088-2.119c-0.323-0.688-0.485-1.032-0.808-1.72
		c-3.359-6.995-4.383-13.646-2.896-19.871c1.406-5.885,4.631-10.245,9.513-12.888c5.089-2.755,10.301-2.769,15.354-0.035
		c5.203,2.815,9.264,8.284,11.221,15.654c0.177,0.667,0.135,1.396,0.072,1.982c-0.169,1.574-0.856,2.876-2.312,3.57
		c-3.057,1.458-7.728,3.709-13.681,6.089c-0.561,0.224-1.346,0.589-2.236,0.963c-0.138,0.058-0.52,0.214-1.118,0.482
		c-0.6,0.269-0.976,0.431-1.116,0.487C137.824,251.719,135.238,252.712,135.155,252.957z M151.273,236.855
		c0.452-1.164-3.707-6.393-6.308-7.804c-2.503-1.357-5.022-1.381-7.46-0.041c-2.721,1.495-4.497,4.102-5.366,7.59
		c-0.65,2.608-0.279,8.374,0.141,8.574c0.225,0.107,2.403-1.136,4.177-1.85c0.141-0.057,0.523-0.218,1.128-0.489
		c0.604-0.271,0.99-0.431,1.128-0.489c0.829-0.351,1.624-0.716,2.259-0.971C145.282,239.646,151.027,237.49,151.273,236.855z"/>
	<path d="M163.371,232.88c-0.231-3.638,0.36-7.3,1.896-10.895c1.536-3.593,3.712-6.548,6.439-8.851
		c3.129-2.643,6.6-4.033,10.358-4.077c3.756-0.044,7.229,1.369,10.362,4.224c2.586,2.355,4.793,5.425,6.61,9.167
		c1.433,2.952,2.741,6.482,3.937,10.577c0.576,1.973,1.315,4.763,2.207,8.366c0.854,3.45,1.491,5.903,1.912,7.343
		c0.289,0.986,0.269,1.919-0.059,2.797c-0.326,0.877-1.268,1.485-1.709,1.923c-0.212,0.21-0.452,0.711-0.763,0.97
		c-6.102,5.091-11.916,7.241-17.602,6.333c-4.956-0.792-8.902-3.616-11.807-8.468c-2.698-4.506-3.591-8.923-2.603-13.244
		c0.596-2.605,1.835-4.645,3.725-6.09c1.888-1.443,4.245-2.11,7.03-2.003c3.761,0.144,12.177,5.042,12.177,5.042
		c0.01-0.007-0.136-0.455-0.205-0.682c-2.286-7.56-5.062-12.912-8.361-15.907c-1.56-1.417-3.26-2.136-4.943-2.069
		c-1.591,0.063-3.314,0.82-4.986,2.194c-1.751,1.439-3.133,3.392-4.129,5.752c-0.997,2.362-1.413,4.739-1.294,7.098
		c0.058,1.143-0.292,2.137-1.035,2.966c-0.744,0.831-1.67,1.287-2.783,1.37c-1.114,0.083-2.105-0.247-2.974-0.994
		C163.902,234.974,163.443,234.018,163.371,232.88z M198.025,249.089c0.093-1.003-5.377-5.252-8.054-7.065
		c-2.676-1.813-4.996-2.716-6.831-2.815c-1.456-0.079-2.362,0.526-2.662,1.851c-0.486,2.142-0.034,4.518,1.428,7.01
		c1.548,2.639,3.628,4.128,6.092,4.514C190.896,253.036,197.945,249.95,198.025,249.089z"/>
	<path d="M228.09,158.349c2.645,11.359,5.336,22.851,8.058,34.257c0.807,3.381,1.419,5.92,1.818,7.606
		c2.992,12.654,6.4,25.679,8.87,38.081c0.21,1.056,0.009,2.131-0.52,3.11c-0.529,0.981-1.39,1.532-2.448,1.752
		c-1.336,0.278-2.957-0.909-3.599-1.064c-3.324-0.804-13.501,1.982-19.946-0.796c-6.4-2.759-11.596-7.363-15.468-13.751
		c-3.842-6.338-5.266-12.273-3.846-17.632c0.846-3.191,2.642-5.662,5.292-7.34c2.648-1.676,5.962-2.367,9.849-2.119
		c4.777,0.305,9.17,2.711,13.014,6.186c0.833,0.753,2.477,2.679,2.477,2.679c0.043-0.019-1.034-4.627-1.664-7.157
		c-0.401-1.609-1.032-4.14-1.889-7.588c-2.839-11.418-5.653-22.922-8.414-34.294c-0.259-1.067-0.077-2.097,0.574-3.072
		c0.651-0.974,1.559-1.604,2.723-1.888c1.162-0.283,2.245-0.119,3.241,0.495C227.207,156.427,227.841,157.279,228.09,158.349z
		 M236.87,234.514c0.591-1.264-4.557-9.625-6.744-13.206c-2.406-3.94-4.615-6.852-6.544-8.717c-2.46-2.378-5.117-3.695-7.92-3.913
		c-2.141-0.167-3.823,0.259-4.96,0.976c-0.78,0.492-1.453,1.312-1.756,2.453c-0.802,3.021,0.165,6.801,2.739,11.167
		c2.866,4.86,6.712,8.303,11.499,10.375C227.618,235.569,236.517,235.27,236.87,234.514z"/>
	<path d="M255.551,216.585c-0.08,0.155,0.431,1.17,0.609,1.684c0.532,1.537,0.989,2.97,1.48,4.042
		c1.192,2.597,2.697,4.504,4.25,5.616c1.818,1.302,4.086,1.662,6.803,1.093c1.834-0.384,3.642-1.805,5.339-4.245
		c1.665-2.394,2.457-4.625,2.531-6.424c0.046-1.11,0.511-2.112,1.285-2.909c0.774-0.794,1.712-1.157,2.809-1.085
		c1.096,0.072,2.032,0.518,2.804,1.337c0.771,0.818,1.15,1.8,1.127,2.923c-0.074,3.62-1.479,7.31-4.083,11.036
		c-2.915,4.172-6.26,6.678-10.112,7.485c-4.87,1.021-9.167,0.23-12.878-2.416c-2.74-1.954-5.186-4.961-6.998-8.857
		c-0.666-1.432-1.317-3.111-1.953-4.898c-0.238-0.669-0.49-1.426-0.76-2.256c-0.216-0.729-0.324-1.093-0.54-1.821
		c-2.276-7.418-2.319-14.143,0.039-20.069c2.228-5.602,6.017-9.424,11.181-11.301c5.384-1.957,10.494-1.186,15.05,2.274
		c4.691,3.563,7.877,9.575,8.726,17.155c0.077,0.686-0.069,1.399-0.216,1.968c-0.395,1.532-1.258,2.716-2.785,3.184
		c-3.208,0.982-8.113,2.505-14.287,3.961c-0.582,0.137-1.403,0.379-2.33,0.615c-0.144,0.037-0.54,0.134-1.165,0.309
		c-0.626,0.175-1.019,0.277-1.164,0.312C258.344,215.764,255.669,216.356,255.551,216.585z M273.672,203.099
		c0.62-1.086-2.705-6.875-5.049-8.66c-2.256-1.718-4.72-2.118-7.302-1.162c-2.882,1.068-4.997,3.375-6.354,6.691
		c-1.014,2.479-1.491,8.232-1.104,8.492c0.205,0.138,2.518-0.758,4.358-1.197c0.146-0.035,0.543-0.138,1.175-0.315
		c0.63-0.176,1.031-0.276,1.175-0.313c0.862-0.222,1.695-0.462,2.354-0.618C267.395,204.958,273.337,203.686,273.672,203.099z"/>
	<path d="M293.162,183.143c0.972,4.314,2.728,14.681,2.728,14.681c0.35,0.041,8.836-14.869,16.154-19.829
		c0.917-0.622,1.967-0.826,3.068-0.625c1.102,0.201,1.978,0.776,2.625,1.721c0.648,0.945,0.874,1.991,0.679,3.135
		c-0.195,1.145-0.787,2.017-1.698,2.634c-6.558,4.438-11.29,10.595-14.108,17.854c-2.819,7.261-3.45,15.067-2.036,23.399
		c0.185,1.092-0.019,2.107-0.611,3.049c-0.592,0.942-1.438,1.509-2.534,1.701c-0.878,0.153-1.747-0.045-2.58-0.509
		c-1.208-0.672-2.001-1.688-2.253-3.087c-0.587-3.265-1.618-8.341-2.549-14.83c-0.175-1.222-0.292-2.241-0.412-2.937
		c-1.783-10.357-3.151-18.76-4.533-24.586c-0.251-1.06-0.1-2.11,0.523-3.105c0.622-0.993,1.498-1.609,2.618-1.846
		c1.119-0.236,2.156-0.032,3.105,0.605C292.296,181.207,292.923,182.082,293.162,183.143z"/>
	<path d="M342.967,186.058c-0.303-1.226-0.993-2.216-2.09-2.925c-1.1-0.709-2.413-0.947-3.856-0.804
		c-4.036,0.4-6.698,1.392-7.733,3.102c-0.575,0.95-0.805,1.802-0.883,2.265c-0.025,0.147-0.038,0.328,0.06,0.469
		c0.549,0.799,2.386,1.774,5.065,3.062c0.247,0.118,0.747,0.367,1.487,0.713c0.741,0.347,1.458,0.657,2.15,0.932
		c0.691,0.275,1.083,0.469,1.166,0.518c3.782,2.248,8.034,4.099,10.182,6.244c3.592,3.587,5.163,7.922,4.787,12.958
		c-0.191,2.558-1.034,4.713-2.531,6.462c-1.498,1.75-3.449,3.074-5.798,3.862c-2.269,0.76-4.511,0.717-6.622-0.048
		c-2.962-1.074-4.998-3.7-6.342-7.323c-0.383-1.032-0.423-2.095,0.053-3.111c0.476-1.016,1.241-1.733,2.291-2.145
		c1.049-0.411,2.067-0.355,3.041,0.162c0.975,0.518,1.662,1.324,1.996,2.384c0.261,0.829,0.581,1.447,0.896,1.802
		c0.178,0.2,0.416,0.336,0.614,0.404c0.37,0.127,0.932,0.159,1.578-0.066c1.785-0.623,2.805-1.642,2.934-3.079
		c0.207-2.309-0.466-4.302-1.983-5.917c-1.518-1.616-4.254-3.308-8.233-5.046c-0.438-0.185-0.657-0.279-1.096-0.463
		c-0.73-0.307-1.461-0.611-2.195-0.917c-0.732-0.305-1.275-0.584-1.599-0.751c-1.654-0.852-3.302-1.558-4.476-2.28
		c-1.689-1.038-3.047-2.229-3.976-3.527c-2.443-3.416-2.324-7.564,0.475-12.022c1.528-2.435,3.835-4.291,6.763-5.429
		c1.869-0.727,4.293-1.208,7.188-1.478c3.44-0.32,6.564,0.438,9.324,2.285c2.758,1.847,4.548,4.419,5.332,7.661
		c0.279,1.156,0.112,2.232-0.486,3.206c-0.599,0.975-1.427,1.598-2.483,1.869c-1.058,0.272-2.084,0.105-3.083-0.5
		S343.234,187.135,342.967,186.058z"/>
	<path d="M412.263,189.291c2.537-0.321,6.404-0.764,11.367-1.108c2.825-0.196,5.006-0.42,6.439-0.564
		c1.052-0.106,2.035,0.218,2.885,0.923c0.849,0.705,1.435,1.721,1.513,2.836c0.021,0.295-0.133,0.734-0.109,0.948
		c0.013,0.117,0.116,0.355,0.117,0.592c0.04,7.82-1.773,14.473-5.153,19.949c-3.304,5.353-7.562,8.678-12.696,9.963
		c-5.377,1.346-10.516,0.232-15.413-3.352c-4.99-3.652-9.336-9.567-11.806-17.299c-5.163-16.167-5.52-31.25-2.224-47.939
		c1.346-6.813,4.516-12.7,8.791-17.135c4.272-4.432,9.441-7.27,15.268-8.239c5.646-0.939,11.269,0.028,16.538,2.729
		c5.268,2.701,9.551,6.862,12.619,12.376c0.565,1.016,0.678,2.095,0.354,3.199c-0.323,1.107-1.009,1.935-2.05,2.486
		c-1.044,0.554-2.123,0.673-3.246,0.362s-1.972-0.978-2.54-2c-2.274-4.091-5.242-7.109-8.885-9.023s-7.444-2.521-11.318-1.875
		c-4.113,0.687-7.75,2.663-10.811,5.949c-3.063,3.289-5.493,7.777-6.587,12.988c-2.983,14.206-3.613,28.74,1.441,43.229
		c2.193,6.287,5.162,10.793,8.851,13.479c2.988,2.175,6.034,2.84,9.124,2.058c3.229-0.818,5.903-3.005,8.02-6.479
		c1.992-3.268,4.265-11.367,3.645-12.03c-0.108-0.116-1.347,0.081-2.164,0.153c-4.671,0.414-8.497,0.6-10.918,0.97
		c-1.035,0.158-2.034-0.055-2.93-0.735c-0.897-0.681-1.426-1.591-1.582-2.732c-0.154-1.14,0.094-2.175,0.751-3.107
		C410.211,189.932,411.147,189.432,412.263,189.291z"/>
	<path d="M455.384,170.787c0.232,0.002,0.47,0.009,0.704,0.014c1.722,0.034,3.229,0.265,4.451,0.574
		c1.89,0.479,3.647,1.326,5.09,2.513c3.108,2.559,5.209,6.493,6.111,11.712c0.795,4.597,0.623,9.381-0.435,14.214
		c-1.14,5.211-3.044,9.528-5.756,12.837c-3.341,4.075-7.417,6.054-12.071,5.743c-2.403-0.161-4.628-1.216-6.521-3.053
		c-1.545-1.499-2.899-3.509-3.982-5.954c-1.943-4.384-2.865-9.603-2.893-15.413c-0.029-6.124,1.035-11.306,3.278-15.394
		C446.192,173.419,450.255,170.729,455.384,170.787z M455.806,179.21c-2.097-0.118-3.945,0.922-5.28,3.348
		c-1.589,2.889-2.393,6.686-2.443,11.346c-0.051,4.661,0.614,8.689,2.011,11.993c1.138,2.691,2.46,4.119,3.867,4.209
		c2.145,0.137,4.053-0.914,5.687-2.958c1.728-2.161,3.066-5.182,3.868-9.023c0.785-3.765,0.906-7.34,0.313-10.718
		c-0.593-3.375-1.69-5.729-3.283-7.023c-0.904-0.735-2.425-1.385-3.807-1.274C456.466,179.131,456.103,179.227,455.806,179.21z"/>
	<path d="M475.014,203.522c0.089-2.051,0.123-4.617,0.214-7.583c0.01-0.311,0.032-0.671,0.046-1.065
		c0.376-10.501,0.517-17.412,0.648-20.49c0.047-1.104,0.477-2.054,1.296-2.848c0.817-0.794,1.798-1.166,2.935-1.112
		c1.135,0.054,2.094,0.518,2.873,1.388c0.779,0.87,1.14,1.858,1.082,2.962c-0.091,1.736-0.32,6.153-0.32,6.153
		c0.114,0.042,3.487-4.115,5.451-5.633c2.095-1.62,4.285-2.686,6.317-3.289c2.454-0.729,5.173-0.832,8.028-0.152
		c3.931,0.936,6.903,3.6,8.77,7.952c1.438,3.352,2.102,7.527,2.059,12.431c-0.04,4.669-0.733,9.452-2.071,14.33
		s-3.13,9.306-5.402,13.094c-0.586,0.977-1.415,1.607-2.439,1.881c-1.023,0.274-1.995,0.118-2.914-0.467
		c-0.921-0.586-1.507-1.439-1.759-2.568c-0.251-1.126-0.128-2.223,0.405-3.178c1.759-3.153,3.37-6.854,4.454-11.008
		c1.084-4.151,1.604-8.205,1.642-12.053c0.037-3.764-0.511-6.842-1.495-9.031c-0.814-1.812-1.848-3.012-3.135-3.324
		c-2.491-0.604-5.036,0.087-7.486,1.979c-2.934,2.266-5.538,5.765-7.689,10.457c-1.759,3.836-3.227,8.05-3.615,11.906
		c-0.498,4.941-0.381,9.315-0.526,12.075c-0.063,1.184-0.487,2.152-1.267,2.901c-0.78,0.75-1.703,1.099-2.772,1.047
		c-1.071-0.052-1.976-0.489-2.718-1.312c-0.74-0.822-1.087-1.828-1.035-3.012c0.109-2.524,0.528-6.361,0.343-10.54
		c-0.02-0.445,0.007-0.941,0.057-1.302C475.017,203.901,475.007,203.682,475.014,203.522z"/>
	<path d="M519.946,206.675c0.2-2.042,0.37-4.603,0.62-7.559c0.026-0.31,0.068-0.67,0.104-1.062
		c0.939-10.466,1.452-17.358,1.749-20.425c0.106-1.1,0.588-2.026,1.449-2.775c0.859-0.749,1.859-1.066,2.993-0.951
		c1.131,0.115,2.064,0.629,2.797,1.54c0.732,0.911,1.039,1.917,0.922,3.016c-0.184,1.729-0.651,6.127-0.651,6.127
		c0.112,0.048,3.707-3.92,5.751-5.33c2.182-1.505,4.428-2.452,6.492-2.945c2.492-0.595,5.215-0.551,8.033,0.282
		c3.88,1.146,6.711,3.966,8.344,8.413c1.257,3.424,1.697,7.63,1.392,12.524c-0.291,4.66-1.243,9.398-2.843,14.197
		s-3.626,9.125-6.102,12.785c-0.639,0.943-1.503,1.528-2.542,1.747c-1.038,0.219-2.001,0.01-2.889-0.623
		c-0.889-0.635-1.429-1.518-1.62-2.659c-0.19-1.139-0.008-2.227,0.576-3.151c1.928-3.054,3.737-6.664,5.045-10.753
		c1.307-4.087,2.043-8.106,2.287-11.946c0.239-3.756-0.142-6.859-1.009-9.099c-0.717-1.853-1.687-3.108-2.957-3.489
		c-2.458-0.737-5.042-0.184-7.594,1.574c-3.055,2.104-5.843,5.457-8.245,10.027c-1.964,3.736-3.657,7.866-4.253,11.695
		c-0.764,4.907-0.879,9.281-1.173,12.029c-0.126,1.178-0.604,2.122-1.424,2.829c-0.82,0.707-1.761,1.006-2.827,0.897
		c-1.067-0.109-1.949-0.597-2.646-1.458c-0.696-0.861-0.988-1.881-0.873-3.061c0.245-2.515,0.871-6.326,0.909-10.508
		c0.004-0.445,0.059-0.938,0.128-1.296C519.931,207.055,519.931,206.833,519.946,206.675z"/>
	<path d="M563.603,196.386c1.449-3.344,3.634-6.332,6.619-8.829c2.984-2.496,6.243-4.131,9.693-4.936
		c3.96-0.923,7.653-0.578,10.99,1.097c3.335,1.675,5.756,4.516,7.225,8.485c1.212,3.276,1.77,7.015,1.67,11.172
		c-0.079,3.279-0.534,7.017-1.344,11.205c-0.39,2.018-1.008,4.84-1.861,8.451c-0.817,3.458-1.374,5.93-1.657,7.402
		c-0.194,1.009-0.639,1.83-1.327,2.461c-0.689,0.632-1.799,0.743-2.388,0.931c-0.283,0.09-0.721,0.426-1.112,0.515
		c-7.714,1.748-13.819,1.005-18.416-2.397c-4.007-2.965-6.196-7.276-6.547-12.917c-0.326-5.24,0.896-9.577,3.729-12.97
		c1.709-2.046,3.726-3.294,6.049-3.718c2.319-0.422,4.698,0.06,7.106,1.426c3.251,1.844,8.451,10.04,8.451,10.04
		c0.012-0.001,0.083-0.466,0.126-0.699c1.425-7.769,1.412-13.797-0.136-17.967c-0.731-1.972-1.903-3.387-3.42-4.096
		c-1.432-0.669-3.294-0.783-5.393-0.322c-2.198,0.482-4.304,1.589-6.255,3.234c-1.953,1.646-3.403,3.571-4.371,5.723
		c-0.469,1.043-1.229,1.767-2.259,2.166c-1.032,0.4-2.055,0.382-3.071-0.051c-1.018-0.434-1.74-1.178-2.165-2.241
		C563.116,198.49,563.149,197.432,563.603,196.386z M586.766,226.615c0.544-0.853-2.356-7.127-3.893-9.961
		c-1.536-2.834-3.168-4.697-4.74-5.622c-1.249-0.735-2.321-0.609-3.189,0.433c-1.403,1.685-2.086,4.003-1.932,6.887
		c0.164,3.054,1.32,5.33,3.316,6.796C578.677,226.874,586.298,227.348,586.766,226.615z"/>
	<path d="M671.393,215.077c1.107,17.423,0.03,33.655-3.146,49.408c-0.229,1.132-0.824,2.082-1.678,2.777
		c-0.853,0.694-1.81,0.951-2.859,0.769c-1.051-0.183-1.881-0.732-2.493-1.646c-0.612-0.916-0.848-1.937-0.677-3.028
		c2.46-15.718,6.074-44.845,2.69-48.081c-1.281-1.225-15.433-2.153-16.674-1.399c-0.542,0.33-1.277,3.833-2.188,7.247
		c-2.325,8.723-3.964,15.336-5.039,19.626c-0.27,1.074-0.886,1.916-1.845,2.531c-0.96,0.616-1.962,0.794-3.007,0.538
		c-1.048-0.257-1.836-0.876-2.363-1.856c-0.528-0.98-0.666-2.007-0.407-3.083c1.053-4.377,2.679-10.976,4.881-19.789
		c2.086-8.352,3.667-14.655,4.662-18.866c3.344-14.148,6.365-28.642,8.557-42.909c0.178-1.16,0.755-2.093,1.68-2.765
		c0.924-0.671,1.985-0.927,3.18-0.758c1.192,0.168,2.163,0.734,2.904,1.69s1.003,1.992,0.832,3.074
		c-1.03,6.508-3.863,21.018-3.863,21.018c0.161,0.08,8.429-8.26,13.644-11.054c5.413-2.9,10.621-4.358,15.56-4.374
		c4.937-0.014,9.187,1.539,12.645,4.25c3.13,2.455,5.506,5.665,6.774,9.647c1.269,3.98,1.342,8.161,0.376,12.456
		c-1.002,4.455-3.009,8.555-6.055,12.202c-3.046,3.647-6.891,6.494-11.427,8.606C681.673,213.35,671.311,213.79,671.393,215.077z
		 M650.306,205.147c1.435,2.5,22.388,3.204,32.266-1.288c6.926-3.149,11.3-8.324,12.746-15.133c0.592-2.786,0.501-5.46-0.274-7.998
		c-0.775-2.537-2.073-4.57-3.869-5.959c-1.916-1.482-4.372-2.271-7.143-2.296c-3.461-0.032-7.377,1.142-11.613,3.431
		C661.191,181.97,649.059,202.974,650.306,205.147z"/>
	<path d="M692.77,235.553c-0.146,0.094-0.214,1.23-0.316,1.764c-0.308,1.597-0.629,3.067-0.738,4.241
		c-0.265,2.846,0.091,5.252,0.886,6.995c0.931,2.04,2.727,3.49,5.382,4.364c1.793,0.59,4.083,0.273,6.791-0.983
		c2.654-1.232,4.466-2.766,5.435-4.285c0.598-0.937,1.51-1.571,2.585-1.869c1.074-0.298,2.081-0.138,3.004,0.477
		c0.922,0.614,1.515,1.472,1.778,2.569s0.102,2.136-0.483,3.096c-1.885,3.094-4.968,5.576-9.116,7.488
		c-4.644,2.141-8.821,2.626-12.586,1.387c-4.761-1.566-8.108-4.41-10.011-8.563c-1.404-3.066-2.024-6.894-1.646-11.175
		c0.139-1.573,0.415-3.354,0.758-5.22c0.129-0.699,0.292-1.48,0.474-2.335c0.178-0.739,0.264-1.109,0.44-1.848
		c1.741-7.562,5.076-13.402,10.102-17.347c4.75-3.729,9.967-5.133,15.413-4.16c5.679,1.015,9.753,4.254,11.997,9.542
		c2.31,5.445,2.074,12.252-0.992,19.234c-0.277,0.632-0.764,1.177-1.179,1.595c-1.114,1.125-2.463,1.714-4.034,1.349
		c-3.297-0.767-8.348-1.917-14.464-3.763c-0.576-0.174-1.414-0.379-2.341-0.641c-0.144-0.041-0.538-0.153-1.171-0.316
		c-0.635-0.164-1.025-0.273-1.17-0.316C695.615,236.245,692.986,235.414,692.77,235.553z M715.345,232.999
		c1.079-0.628,1.093-7.308-0.058-10.032c-1.107-2.623-3.057-4.208-5.789-4.679c-3.051-0.525-6.055,0.409-8.9,2.596
		c-2.128,1.636-5.427,6.376-5.223,6.794c0.109,0.223,2.574,0.608,4.397,1.153c0.145,0.043,0.543,0.155,1.183,0.319
		c0.638,0.165,1.037,0.279,1.182,0.32c0.863,0.241,1.709,0.449,2.362,0.646C708.93,231.445,714.757,233.341,715.345,232.999z"/>
	<path d="M727.281,237.437c2.089-2.989,4.839-5.481,8.286-7.33s6.999-2.797,10.579-2.891c4.109-0.108,7.709,0.976,10.695,3.294
		c2.984,2.317,4.837,5.595,5.522,9.788c0.565,3.46,0.385,7.242-0.524,11.301c-0.717,3.202-1.893,6.779-3.512,10.725
		c-0.78,1.901-1.943,4.544-3.495,7.915c-1.485,3.229-2.521,5.542-3.089,6.93c-0.39,0.951-0.988,1.667-1.795,2.146
		c-0.808,0.48-1.931,0.365-2.556,0.431c-0.299,0.032-0.804,0.271-1.21,0.279c-8.002,0.152-13.91-1.808-17.809-6.073
		c-3.397-3.717-4.729-8.387-3.977-13.993c0.699-5.207,2.756-9.218,6.229-11.978c2.094-1.663,4.337-2.481,6.725-2.429
		c2.384,0.053,4.652,1.005,6.776,2.832c2.867,2.466,6.432,11.561,6.432,11.561c0.012,0.001,0.177-0.441,0.265-0.661
		c2.929-7.335,4.087-13.255,3.363-17.659c-0.343-2.083-1.229-3.707-2.597-4.709c-1.291-0.946-3.118-1.433-5.292-1.405
		c-2.275,0.03-4.581,0.69-6.837,1.911c-2.259,1.222-4.069,2.821-5.449,4.738c-0.669,0.929-1.565,1.485-2.664,1.67
		c-1.103,0.185-2.111-0.038-3.035-0.667c-0.925-0.63-1.496-1.506-1.71-2.634C726.391,239.404,726.628,238.372,727.281,237.437z
		 M744.371,271.765c0.694-0.722-0.948-7.47-1.921-10.561s-2.232-5.247-3.612-6.472c-1.096-0.973-2.188-1.066-3.252-0.219
		c-1.721,1.37-2.846,3.508-3.255,6.369c-0.433,3.03,0.269,5.494,1.964,7.336C736.289,270.386,743.775,272.385,744.371,271.765z"/>
	<path d="M825.085,219.883c-5.028,10.521-10.099,21.181-15.094,31.791c-1.48,3.145-2.588,5.511-3.329,7.078
		c-5.563,11.753-11.029,24.064-16.849,35.285c-0.495,0.955-1.332,1.666-2.368,2.095c-1.038,0.43-2.07,0.318-3.05-0.178
		c-1.239-0.627-1.784-2.576-2.195-3.103c-2.153-2.761-11.967-6.959-15.331-13.179c-3.341-6.176-4.562-13.027-3.62-20.441
		c0.935-7.357,3.522-12.888,8.002-16.179c2.668-1.96,5.638-2.759,8.785-2.403c3.146,0.355,6.205,1.899,9.133,4.539
		c3.599,3.244,5.579,7.893,6.453,13.021c0.189,1.113,0.286,3.648,0.286,3.648c0.048,0.013,2.086-4.257,3.173-6.627
		c0.691-1.508,1.777-3.879,3.26-7.109c4.908-10.694,9.892-21.434,14.834-32.043c0.464-0.996,1.255-1.684,2.385-2.033
		c1.129-0.349,2.246-0.268,3.352,0.246c1.103,0.513,1.86,1.325,2.268,2.432C825.585,217.828,825.559,218.892,825.085,219.883z
		 M784.255,284.799c1.245-0.618,2.418-10.379,2.928-14.55c0.561-4.589,0.633-8.25,0.271-10.917
		c-0.461-3.404-1.744-6.106-3.829-8.038c-1.593-1.477-3.196-2.201-4.546-2.356c-0.927-0.106-1.969,0.109-2.925,0.81
		c-2.527,1.851-4.134,5.411-4.832,10.435c-0.777,5.592,0.11,10.695,2.606,15.324C776.241,279.794,783.502,285.173,784.255,284.799z"
		/>
</g>
<g>
	<g>
		<path d="M269.445,403.583c-1.042,0.053-5.566-0.542-5.616,0.891c-0.078,2.233-0.142,4.467-0.209,6.701
			c-0.327,10.831-0.634,21.663-0.963,32.493c-0.212,6.997-0.346,14.007-0.721,20.997c-0.135,2.521-3.72,3.299-5.353,1.419
			c-0.772-0.891-0.318-2.98-0.299-4.016c0.327-18.213,1.014-36.42,1.514-54.629c0.017-0.626,0.435-2.656,0.08-3.219
			c-0.73-1.057-10.561,0.497-12.036,0.549c-1.81,0.065-2.922,0.497-3.424-1.47c-0.432-1.499-1.001-5.693,0.54-6.793
			c1.069-1.021,6.477-0.5,7.818-0.581c7.586-0.459,15.178-0.927,22.771-1.255c3.603-0.156,3.476,3.339,3.03,6.337
			C276.079,404.364,272.096,403.449,269.445,403.583C265.736,403.77,273.154,403.396,269.445,403.583z"/>
		<path d="M280.207,467.791c-4.862,0.087-3.016-6.633-2.948-9.752c0.141-6.479,0.282-12.956,0.422-19.434
			c0.268-12.339-0.113-24.875,0.993-37.172c0.191-2.131,5.715-1.774,5.671,0.255c-0.034,1.565-0.068,3.131-0.102,4.696
			c-0.141,6.461-0.281,12.923-0.422,19.384c-0.284,13.064-0.375,26.151-1.009,39.204C282.725,466.775,282.37,467.75,280.207,467.791
			C279.384,467.806,281.028,467.775,280.207,467.791z"/>
		<path d="M290.502,467.904c-0.616,1.585-3.997,0.566-5.013,0.077c-0.81-0.389-0.576-1.549-0.583-2.289
			c-0.04-4.775,0.251-9.555,0.412-14.326c0.396-11.731,0.675-23.467,0.926-35.203c0.105-4.927,0.123-9.88,0.49-14.797
			c0.236-3.158,5.478-2.94,5.575,0.004c0.2,6.083-0.09,12.215-0.182,18.301c2.067-5.709,3.925-11.694,7.341-16.771
			c1.51-2.244,4.413-5.632,7.424-3.494c2.243,1.71,3.059,5.007,3.61,7.611c1.797,8.479,1.286,17.468,1.073,26.068
			c-0.197,7.959-0.394,15.917-0.596,23.876c-0.075,2.963,1.099,11.687-2.448,12.266c-3.673,0.596-3.53-2.264-3.521-4.892
			c0.014-3.8,0.141-7.595,0.212-11.395c0.059-3.126,2.335-44.86-0.87-44.909c-1.859-0.019-5.179,10.252-5.805,12.024
			c-1.893,5.356-3.271,10.888-4.375,16.456c-1.228,6.195-2.156,12.469-2.769,18.754
			C291.036,459.059,291.882,464.356,290.502,467.904C290.293,468.442,290.711,467.368,290.502,467.904z"/>
		<path d="M356.279,441.036c-2.854-0.199-5.41-0.598-7.996-1.942c-2.702-1.402-4.509-4.157-7.066-5.49
			c-2.587,7.335-6.791,14.08-7.412,21.933c-0.312,3.935-0.315,7.968-0.896,11.874c-0.273,1.837-3.571,0.724-4.446,0.217
			c-1.498-0.866-1.166-2.399-1.087-3.866c0.261-4.887,1.758-10.697,0.235-15.449c-1.74-5.431-3.48-10.86-5.221-16.291
			c-1.936-6.04-3.882-12.076-5.797-18.122c-1.226-3.869-5.101-10.02-1.068-13.15c2.079-1.37,2.879-0.952,3.51,0.925
			c1.041,3.096,2.04,6.206,3.046,9.313c1.792,5.537,3.568,11.079,5.359,16.616c0.333,1.028,3.364,12.636,4.201,12.658
			c2.132-3.059,3.289-7.604,4.604-11.104c0.284-0.704,1.192-2.019,0.933-2.75c-0.816-2.296-1.591-4.588-2.108-6.975
			c-1.159-5.35-1.501-10.977,0.042-16.286c1.187-4.085,4.59-9.959,9.71-9.248c12.034,1.672,2.817,23.548,0.514,29.448
			c-0.469,1.201-1.262,2.181-0.371,3.289c1.783,2.217,4.152,3.989,6.836,4.941c2.699,0.958,4.92,0.493,5.17,3.874
			C357.107,437.303,357.068,439.32,356.279,441.036L356.279,441.036z M344.723,404.345c0.071-1.205,0.122-2.319-1.428-1.56
			c-1.946,0.959-2.711,3.032-3.116,5.055c-0.19,0.951-0.424,9.55,0.679,9.564C342.223,417.432,344.637,406.005,344.723,404.345
			C344.771,403.536,344.62,406.34,344.723,404.345z"/>
		<path d="M385.226,413.615c-1.305,1.119-4.161-0.649-4.849-1.722c-0.979-1.527,0.669-4.194,1.343-5.536
			c2.177-4.302,5.96-8.163,10.22-10.411c9.098-4.802,18.641,0.062,22.895,8.809c4.316,8.875,3.508,19.942,0.393,29.059
			c-1.543,4.518-3.745,8.889-6.627,12.703c-1.204,1.593-2.55,3.088-4.075,4.381c-0.805,0.683-4.601,2.372-4.842,3.218
			c-0.185,0.649,2.726,2.21,3.196,2.435c2.017,0.935,4.359,1.05,6.535,0.787c4.175-0.503,7.736-2.738,10.768-5.539
			c2.855-2.638,4.898-6.441,7.878-8.837c1.84-1.49,5.042,4.555,3.832,6.322c-4.456,6.509-10.713,13.214-18.312,15.866
			c-7.893,2.755-14.55-0.385-19.718-6.385c-0.076,2.754,1.095,9.679-2.399,10.246c-2.735,0.443-3.71-0.92-3.68-3.076
			c0.089-6.352,0.178-12.703,0.267-19.055c0.181-12.906,0.362-25.813,0.543-38.72C387.488,409.713,386.609,412.428,385.226,413.615
			C385.041,413.773,385.412,413.456,385.226,413.615z M394.255,425.249c-0.107,7.178-0.215,14.355-0.322,21.533
			c8.989-1.968,14.113-9.802,16.551-18.276c2.518-8.756,2.341-23.977-9.391-25.817c-1.845-0.29-6.492-0.534-6.53,1.999
			c-0.035,2.309-0.069,4.619-0.104,6.928C394.391,416.159,394.323,420.704,394.255,425.249L394.255,425.249z"/>
		<path d="M434.922,471.239c-2.065-0.413-1.443-5.971-1.424-7.295c0.076-5.082,0.151-10.164,0.228-15.246
			c0.188-12.545,0.375-25.09,0.563-37.635c0.024-1.604-0.717-5.797,0.108-7.239c1.074-1.876,5.235-0.992,7.039-0.941
			c4.885,0.139,9.772,0.214,14.653,0.426c1.095,0.047,3.271-0.147,3.604,1.298c0.393,1.923,0.588,4.362-0.149,6.233
			c-0.713,1.81-2.188,1.181-3.918,1.155c-5.162-0.078-10.323-0.155-15.485-0.232c-0.151,10.119-0.303,20.238-0.454,30.357
			c2.191-0.425,9.547-2.964,11.196-1.533c1.803,1.277,1.026,5.038,0.994,6.818c-0.533,2.384-4.236,1.729-5.951,2.34
			c-1.938,0.324-3.876,0.677-5.82,0.965c-0.8,0.618-0.564,1.145-0.583,2.4c-0.046,3.028-0.092,6.057-0.137,9.085
			c4.32,0.002,8.673-0.547,12.98-0.82c1.977-0.125,3.999-0.335,5.982-0.245c1.732,0.078,1.428,4.183,1.399,5.231
			c-0.128,4.864-7.303,3.706-10.843,3.912C444.824,470.72,439.013,472.063,434.922,471.239
			C434.775,471.21,435.067,471.269,434.922,471.239z"/>
		<path d="M461.194,463.374c0.798-11.908,0.337-24.028,0.501-35.956c0.092-6.729,0.17-13.459,0.34-20.187
			c0.025-1.008-0.022-2.064,0.119-3.065c0.214-1.515,2.868-1.584,3.877-1.377c2.367,0.487,0.875,2.314,2.02,3.157
			c9.551-5.814,17.489,0.688,20.988,9.92c3.421,9.03,3.42,19.273,1.316,28.612c-1.95,8.662-5.891,20.209-14.261,24.745
			c-1.985,1.076-4.311,1.753-6.583,1.643c-0.816-0.04-1.8-0.456-2.617-0.364c-0.936,0.122-1.465,0.839-2.507,0.894
			C460.139,471.618,460.998,466.319,461.194,463.374C461.218,463.024,461.171,463.726,461.194,463.374z M470.176,414.076
			c-3.243,2.238-2.478,4.529-2.533,8.227c-0.064,4.31-0.106,8.62-0.147,12.93c-0.078,8.267-0.163,16.532-0.26,24.798
			c-0.056,4.829,7.498,1.013,9.443-1.001c4.628-4.777,7.012-11.717,8.322-18.093c1.435-7.062,1.455-14.555-1.279-21.319
			C481.281,413.581,476.21,409.92,470.176,414.076C469.179,414.764,471.172,413.39,470.176,414.076z"/>
	</g>
	<g>
		<path d="M398.735,555.631c4.514,0.083,5.54-8.994,0.677-8.438C396.354,547.469,395.3,555.569,398.735,555.631
			C400.704,555.667,396.769,555.596,398.735,555.631z"/>
		<path d="M439.815,577.34c-0.817,2.715-8.657,22.207-10.991,14.814c-2.231-7.066,2.945-18.992,4.386-25.859
			c0.969-4.62,6.524-20.227-0.747-22.696c-4.141-1.406-4.915,18.795-5.973,23.017c-5.204-20.313-18.962,5.148-21.221,12.452
			c-0.061,0.195-4.105,22.24-8.566,14.385c-2.27-3.997,0.481-11.638,1.293-15.819c1.067-5.498,2.434-11.069,2.914-16.659
			c0.46-5.361-5.386-1.678-6.12,1.789c-0.629,2.976-5.577,32.862-10.391,31.268c-6.333-2.223,6.011-18.857,1.972-22.188
			c-8.039-6.287-9.731,24.654-16.667,22.081c-7.126-3.15,4.124-26.976,8.133-30.021c3.421-2.599,3.644,1.646,2.833,3.925
			c-0.331,0.568,7.702,2.342,5.308-5.551c-2.734-9.01-13.307-2.898-16.705,1.826c-4.323,6.01-6.862,13.952-7.725,21.248
			c-0.327,2.761-6.014,12.956-5.649,5.871c0.398-7.743,10.372-26.984,2.293-33.208c-8.015-6.174-13.221,11.638-14.241,15.729
			c3.366-14.732-4.787-23.644-11.49-5.094c0.518-2.36,2.792-9.399-0.248-11.417c-1.393-0.924-4.481-1.02-4.522,1.194
			c0.616,7.913-3.125,17.273-5.032,24.832c-2.081,8.249-7.654,11.485-6.692,0.494c0.427-4.873,2.738-10.363,2.06-15.253
			c-0.662-4.766-4.996-6.793-6.459-10.988c-1.126-2.951-1.74-20.799-9.375-11.437c-3.358,4.244,1.047,16.882-0.767,23.124
			c-2.088,7.182-3.993,15.92-9.743,21.199c-11.776,10.813-12.009-8.567-9.044-15.095c7.748,10.894,18.164-15.195,9.387-18.715
			c-15.391-6.173-15.125,29.439-21.758,35.202c-4.524,3.932-1.609-8.668-1.615-8.645c1.686-7.152,4.85-15.477,3.217-22.943
			c-3.475-15.89-15.472,8.477-16.339,11.954c3.365-14.729-4.787-23.646-11.49-5.097c1.436-6.542-3.99-17.346-4.825-8.421
			c-0.888,9.495-3.953,18.958-6.278,28.173c-0.54,2.141-1.194,4.321-1.54,6.509c-0.711,3.953,5.909,7.721,7.042,2.474
			c0.506-2.256,10.823-34.474,13.836-32.461c3.344,2.076-5.156,22.374-4.413,26.525c1.45,8.654,8.481-8.277,8.477-8.267
			c1.025-2.88,5.083-18.46,8.94-18.965c1.332-0.151-2.9,19.786-3.262,21.36c-2.134,9.286,3.807,21.707,12.629,9.352
			c20.852,28.16,31.653-21.973,33.032-31.36c3.324,8.339,3.189,9.406,1.495,19.121c-0.983,5.596-2.249,17.331,6.38,17.486
			c1.447-0.7,2.894-1.401,4.34-2.102c0.817,2.366,2.455,3.514,4.912,3.44c3.454-0.865,4.633-12.089,5.544-14.746
			c0.423-1.234,8.153-21.725,10.347-20.26c3.344,2.076-5.155,22.374-4.413,26.525c1.45,8.655,8.481-8.278,8.477-8.267
			c1.025-2.881,5.083-18.46,8.94-18.965c1.329-0.152-2.901,19.786-3.263,21.36c-1.971,8.579,2.993,21.652,12.082,10.085
			c3.157,7.227,12.206,5.551,14.652-1.132c0.682,8.973,8.973,6.255,12.675,0.698c2.23,8.092,10.848,6.066,14.977,0.51
			c5.237,13.29,16.663,0.214,17.88-7.643C419.745,624.122,449.768,577.513,439.815,577.34
			C439.815,577.34,440.995,577.36,439.815,577.34z M287.556,564.593c0.511-1.543,1.481-2.295,2.911-2.256
			C295.38,566.849,278.14,578.978,287.556,564.593C289.855,560.722,285.126,568.305,287.556,564.593z M421.954,570.759
			c-0.156,1.12-9.792,31.88-11.959,22.238c-1.675-7.454,2.652-18.789,6.47-25.061C419.543,562.881,422.419,565.137,421.954,570.759
			C419.694,586.995,422.122,568.728,421.954,570.759z"/>
	</g>
	<g>
		<path d="M191.71,421.424c-0.343-2.493-4.191-2.275-6-2.518c-3.938-0.529-7.879-1.02-11.798-1.686
			c-5.649-0.96-11.182-2.421-16.818-3.453c0.008,0.061,0.042,0.133,0.063,0.191c-1.169-0.24-2.514-0.604-3.712-0.379
			c-1.603,0.301-2.452,2.43-1.284,3.663c0.994,1.049,2.959,1.246,4.306,1.52c2.017,0.411,4.044,0.746,6.052,1.205
			c3.1,0.708,6.16,1.523,9.305,2.023c0.312,0.049,0.623,0.099,0.934,0.148c0.584,0.093,0.525-0.009,0.653,0.407
			c0.158,0.51-0.159,1.44-0.157,2.001c0.003,0.762,0.13,1.488,0.62,2.095c0.953,1.182,2.698,0.871,3.369-0.425
			c0.176-0.339,0.536-3.262,0.674-3.249c2.579,0.238,5.138,0.576,7.699,0.961c0.965,0.145,1.39-0.089,1.294,0.947
			c-0.109,1.177-0.586,2.989-0.086,4.098c0.65,1.446,2.663,1.107,3.423-0.034c0.547-0.822,0.637-1.876,0.815-2.826
			C191.333,424.664,191.926,422.905,191.71,421.424C191.663,421.08,191.728,421.542,191.71,421.424z"/>
		<path d="M187.685,434.585c-0.873-1.477-2.325-2.95-4.094-3.218c-1.262-0.192-2.493,0.518-2.819,1.763
			c-0.281,1.074,0.379,2.114,1.269,2.683c0.453,0.289,0.94,0.329,1.319,0.723c0.507,0.528,0.881,1.104,0.986,1.834
			c-1.934,0.077-4.146-0.427-6.028-0.802c1.379-3.468-2.164-6.21-5.028-7.308c-3.561-1.366-7.497-2.294-11.249-2.947
			c-1.949-0.339-3.957-0.426-5.932-0.436c-1.535-0.007-3.252-0.083-4.623,0.718c-2.319,1.355-2.712,4.504-1.502,6.796
			c-1.808,0.615-2.02,3.419-0.25,4.23c1.793,0.814,4.245,0.561,6.168,0.807c4.785,0.61,9.625,0.929,14.384,1.693
			c2.57,0.413,5.13,0.896,7.692,1.356c1.81,0.326,3.654,0.778,5.502,0.794c1.735,0.016,3.513-0.659,4.536-2.132
			C189.393,439.155,188.705,436.563,187.685,434.585C187.318,433.965,187.685,434.585,187.685,434.585z M153.923,432.007
			c3.093-0.636,6.84,0.18,9.875,0.828c3.172,0.677,7.62,1.148,10.146,3.386c-0.301,0.164-0.703,0.146-1.033,0.142
			c-3.439-0.063-6.862-0.764-10.306-0.873C159.404,435.268,155.784,435.004,153.923,432.007
			C154.061,431.979,153.923,432.007,153.923,432.007z"/>
		<path d="M180.406,451.62c-0.683-0.437-1.203-1.087-1.541-1.819c-0.291-0.632-0.43-0.47-1.14-0.572
			c-1.004-0.146-2.006-0.3-3.01-0.45c-3.316-0.496-6.625-1.046-9.933-1.596c-3.541-0.588-7.086-1.15-10.635-1.687
			c-1.515-0.229-3.03-0.452-4.549-0.655c-1.177-0.157-1.374-0.188-2.254,0.591c-0.241,0.213-0.68,0.464-0.837,0.74
			c-0.248,0.796-0.143,1.747,0.378,2.414c0.412,0.481,0.988,0.619,1.604,0.763c3.524,0.825,7.134,1.328,10.7,1.934
			c4.164,0.706,8.327,1.406,12.504,2.028c1.642,0.245,3.288,0.512,4.94,0.68c0.484,0.05,0.947,0.07,1.431,0.025
			c0.414-0.039,0.827-0.109,1.221-0.245c0.679-0.233,0.765-1.013,0.97-1.651C180.306,451.953,180.356,451.786,180.406,451.62
			C179.99,451.354,180.313,451.955,180.406,451.62z"/>
		<path d="M182.577,462.988c-5.487-0.835-10.985-1.603-16.473-2.427c-4.194-0.631-8.39-1.25-12.585-1.869
			c-1.86-0.274-3.719-0.557-5.583-0.795c-1.34-0.171-1.46-0.149-2.387,0.776c-0.773,0.772-1.394,1.55-0.481,2.631
			c0.778,0.923,2.115,1.095,3.233,1.287c1.788,0.307,3.576,0.614,5.364,0.922c2.767,0.476,5.532,0.956,8.304,1.397
			c1.76,0.281,3.521,0.562,5.281,0.843c1.348,0.215,2.695,0.43,4.043,0.645c0.754,0.12,1.467,0.066,2,0.62
			c1.384,1.439,2.714,3.089,3.623,4.877c0.484,0.952,0.438,1.18,0.343,2.183c-0.106,1.133,0.435,2.409,1.635,2.687
			c1.518,0.352,2.568-1.087,2.87-2.396c0.557-2.414-0.784-4.912-2.095-6.842c1.49,0.228,3.438,0.48,4.423-0.954
			C185.125,465.068,184.497,463.078,182.577,462.988C182.487,462.975,182.766,462.997,182.577,462.988z"/>
		<path d="M179.283,478.228c-2.63-0.726-6.204-1.06-8.265,1.162c-1.965,2.236-1.959,5.984-0.126,8.266
			c-5.455-0.205-10.982-0.286-16.366-1.253c-1.777-0.319-3.545-0.741-5.24-1.369c-0.942-0.35-3.775-1.181-3.572-2.457
			c0.532-3.302,5.736-0.379,5.794-4.23c0.065-4.353-6.539-2.141-8.215-0.358c-1.629,1.733-2.411,4.474-1.808,6.807
			c0.799,3.094,4.768,4.517,7.478,5.392c3.568,1.151,7.201,1.594,10.924,1.896c4.649,0.379,9.321,0.616,13.985,0.668
			c1.823,0.02,4.796,0.529,6.328-0.718c2.109-1.717-0.048-3.872-1.739-4.643c-1.29-0.668-3.522-1.644-4.275-2.977
			c-1.078-2.147,1.513-1.823,2.767-1.626c1.565,0.246,4.477,1.533,5.346-0.503C183.293,479.957,181.187,478.754,179.283,478.228
			C177.486,477.731,179.841,478.382,179.283,478.228z"/>
		<path d="M174.975,519.651c-0.371-0.692-0.825-1.209-1.687-1.212c-1.945-0.012-2.309,2.252-2.587,3.71
			c-0.041,0.208-0.021,0.742-0.268,0.696c-0.433-0.081-0.865-0.161-1.297-0.242c-0.691-0.129-1.383-0.258-2.075-0.387
			c-6.267-1.168-12.468-2.634-18.731-3.813c-3.668-0.691-7.468-1.516-11.201-1.743c-0.932-0.057-1.954,0.055-2.482,0.947
			c-0.165,0.219-0.288,0.488-0.428,0.726c-0.228,0.386,0.115,0.302,0.065,0.694c-0.351,2.809,4.182,2.698,5.994,2.965
			c3.779,0.557,7.531,1.269,11.26,2.093c3.786,0.838,7.564,1.698,11.37,2.441c1.387,0.271,2.778,0.52,4.167,0.779
			c0.497,0.093,2.45,0.146,2.694,0.503c0.226,0.331-0.288,1.973-0.313,2.382c-0.057,0.926-0.008,2.012,0.799,2.624
			c1.422,1.079,2.887-0.309,3.294-1.635c0.68-2.22,0.99-4.587,1.303-6.881C175.037,522.95,175.59,520.96,174.975,519.651
			C174.908,519.527,174.975,519.651,174.975,519.651z"/>
		<path d="M171.095,538.588c-0.872-1.477-2.326-2.952-4.095-3.218c-1.262-0.189-2.492,0.519-2.818,1.764
			c-0.281,1.073,0.38,2.114,1.269,2.683c1.082,0.691,2.113,1.063,2.304,2.556c-1.922,0.098-4.158-0.431-6.028-0.802
			c1.379-3.469-2.167-6.213-5.031-7.311c-3.563-1.364-7.497-2.292-11.25-2.945c-1.947-0.339-3.953-0.424-5.927-0.435
			c-1.535-0.008-3.252-0.084-4.623,0.717c-2.318,1.355-2.712,4.504-1.502,6.796c-1.805,0.614-2.022,3.42-0.253,4.229
			c1.668,0.767,3.912,0.528,5.7,0.749c4.675,0.576,9.411,0.912,14.062,1.629c2.528,0.389,5.042,0.867,7.56,1.315
			c2.092,0.372,4.236,0.932,6.371,0.959c1.756,0.022,3.555-0.638,4.592-2.132C172.803,543.16,172.117,540.563,171.095,538.588
			C170.728,537.967,171.095,538.588,171.095,538.588z M137.333,536.01c3.239-0.641,7.085,0.217,10.262,0.911
			c3.089,0.675,7.285,1.146,9.759,3.303c-0.312,0.156-0.691,0.146-1.033,0.142c-3.329-0.064-6.654-0.696-9.984-0.859
			C143.062,539.345,139.238,539.076,137.333,536.01C137.471,535.982,137.333,536.01,137.333,536.01z"/>
		<path d="M169.356,555.644c-1.195-0.567-2.666-0.654-3.955-0.905c-1.826-0.355-3.666-0.656-5.502-0.95
			c-4.107-0.659-8.206-1.376-12.3-2.107c-4.081-0.729-8.166-1.439-12.248-2.164c-1.143-0.201-2.388-0.55-3.557-0.55
			c-0.472,0.17-1.103,1.376-1.4,1.789c-0.459,0.636-0.514,1.253-0.156,1.987c0.433,0.891,1.317,1.195,2.207,1.375
			c1.876,0.38,3.766,0.696,5.652,1.017c4.1,0.695,8.2,1.381,12.302,2.064c3.425,0.589,6.851,1.184,10.287,1.704
			c2.459,0.372,5.345,1.148,7.853,0.886C170.751,559.558,171.506,556.651,169.356,555.644
			C169.175,555.558,169.652,555.782,169.356,555.644z"/>
		<path d="M168.285,569.805c-0.78-3.854-4.115-5.369-7.517-6.422c-3.898-1.207-7.978-1.93-12.02-2.45
			c-4.046-0.521-8.221-0.832-12.289-0.374c-3.079,0.346-5.903,1.188-7.725,3.824c-0.161,0.233-0.401,0.372-0.177,0.578
			c0.059,0.054-0.402,1.855-0.412,2.112c-0.067,1.902,0.937,3.357,2.458,4.39c2.898,1.966,6.667,2.724,10.044,3.376
			c1.811,0.35,3.628,0.685,5.459,0.905c1.42,0.172,3.624,0.592,4.816-0.453c0.833-0.729,0.785-2.077,0.283-2.975
			c-0.332-0.595-1.246-0.763-1.831-0.911c-2.741-0.696-5.566-1.062-8.343-1.578c-2.851-0.53-6.186-0.929-8.469-2.914
			c1.345-1.399,3.666-1.477,5.482-1.601c2.709-0.186,5.43-0.08,8.123,0.244c1.874,0.226,3.745,0.469,5.609,0.766
			c1.282,0.205,2.609,0.386,3.86,0.741c0.141,0.19-0.062,1.244-0.074,1.492c-0.08,1.653-0.38,3.447-0.203,5.096
			c0.284,2.64,2.197,4.082,4.757,3.648C163.843,576.668,168.939,574.464,168.285,569.805
			C168.101,568.893,168.285,569.805,168.285,569.805z M160.074,570.669c0.035-0.793,0.057-1.586,0.096-2.379
			c1.008,0.36,3.549,1.176,3.808,2.47c0.196,0.652-3.528,1.778-3.99,1.884C160.017,571.985,160.045,571.327,160.074,570.669
			C160.088,570.346,160.074,570.669,160.074,570.669z"/>
		<path d="M186.914,451.897c0.51-3.103-5.785-2.609-4.575,1.253c0.344,1.098,1.818,2.99,3.139,2.594
			C186.786,455.352,187.074,453.072,186.914,451.897C186.925,451.826,186.966,452.28,186.914,451.897z"/>
	</g>
</g>
</svg>
