<?xml version="1.0" encoding="utf-8"?>
<!-- Generator: Adobe Illustrator 23.1.0, SVG Export Plug-In . SVG Version: 6.00 Build 0)  -->
<svg version="1.1" id="Слой_1" xmlns="http://www.w3.org/2000/svg" xmlns:xlink="http://www.w3.org/1999/xlink" x="0px" y="0px"
	 viewBox="0 0 720 570" style="enable-background:new 0 0 720 570;" xml:space="preserve">
<g>
	<path d="M117.3,149.5c5.5-0.7,9.9-3.2,13.1-7.5c3.2-4.3,4.9-9.7,4.9-16.3c0-10.1-3.2-17.8-9.6-23.2c-6.4-5.4-15.7-8.1-27.9-8.1h-42
		v92.9h32.7v-30.6l16.2,30.6h37.4L117.3,149.5z M101,134.2c-1.7,1.5-4.2,2.3-7.3,2.3h-5.2v-18.1h5.2c3.2,0,5.6,0.8,7.3,2.4
		c1.7,1.6,2.6,3.9,2.6,6.8C103.5,130.4,102.7,132.6,101,134.2z"/>
	<polygon points="211.5,162.1 181.4,162.1 181.4,152.3 208.1,152.3 208.1,128.5 181.4,128.5 181.4,119.6 210.8,119.6 210.8,94.4 
		148.7,94.4 148.7,187.3 211.5,187.3 	"/>
	<path d="M252.8,187.3l2.9-11.7h25.2l3,11.7h35.9l-32.5-92.9h-37.2L217,187.3H252.8z M264.1,143c1.4-5.3,2.3-9.4,2.9-12.3
		c0.5-2.9,0.8-5.6,1-8.1h0.6c0.1,2.5,0.4,5.2,1,8.1c0.5,2.9,1.5,7,2.9,12.3l2.9,10.5h-13.9L264.1,143z"/>
	<path d="M374.3,185.9c6-0.9,11-2.4,15-4.4c8.1-4.3,14.2-9.9,18.5-16.8c4.3-6.9,6.4-14.8,6.4-23.7c0-8.9-2.1-16.9-6.4-23.8
		c-4.3-7-10.5-12.6-18.5-16.8c-3.8-2-8.7-3.5-14.8-4.4c-6.1-0.9-13.4-1.4-22-1.4h-27v92.9H350C360.2,187.3,368.3,186.8,374.3,185.9z
		 M358.6,123h1.5c6.8,0,11.9,1.5,15.3,4.4c3.3,3,5,7.5,5,13.5c0,6.2-1.7,10.7-5.2,13.6c-3.5,2.9-9,4.4-16.5,4.4V123z"/>
	<polygon points="486.2,119.6 486.2,94.4 424.1,94.4 424.1,187.3 486.9,187.3 486.9,162.1 456.8,162.1 456.8,152.3 483.4,152.3 
		483.4,128.5 456.8,128.5 456.8,119.6 	"/>
	<path d="M572.7,142c3.2-4.3,4.9-9.7,4.9-16.3c0-10.1-3.2-17.8-9.6-23.2c-6.4-5.4-15.7-8.1-27.9-8.1h-42v92.9h32.7v-30.6l16.2,30.6
		h37.4l-24.8-37.8C565.1,148.8,569.5,146.3,572.7,142z M543.3,134.2c-1.7,1.5-4.2,2.3-7.3,2.3h-5.2v-18.1h5.2c3.2,0,5.6,0.8,7.3,2.4
		c1.7,1.6,2.6,3.9,2.6,6.8C545.9,130.4,545,132.6,543.3,134.2z"/>
	<path d="M625.6,118.9c1.3-0.8,3.1-1.2,5.4-1.2c3,0,6.2,0.6,9.4,1.9c3.2,1.2,6.5,3.1,9.7,5.4l10.1-24.3c-5.2-2.8-10.4-4.9-15.6-6.3
		c-5.2-1.4-10.4-2.1-15.7-2.1c-11.6,0-21,3.1-28.1,9.4c-7.1,6.3-10.7,14.4-10.7,24.4c0,6.4,1.8,11.8,5.5,16.1c3.7,4.3,9,7.3,15.9,9
		c1.2,0.3,2.8,0.6,4.9,1.1c6.6,1.4,9.8,3.3,9.8,5.9c0,1.5-0.7,2.7-2,3.5c-1.3,0.9-3.1,1.3-5.4,1.3c-3.3,0-6.8-0.8-10.5-2.3
		c-3.7-1.5-8-4-12.8-7.3l-10.7,26c6.1,3.5,12.2,6.1,18.3,7.8c6.1,1.7,12.2,2.6,18.3,2.6c11.9,0,21.5-3.3,29-9.8
		c7.4-6.5,11.1-14.9,11.1-25.2c0-6.3-1.8-11.7-5.5-16.1c-3.7-4.4-8.7-7.4-15.1-8.8c-0.8-0.2-1.9-0.4-3.4-0.8
		c-9.3-2-13.9-4.3-13.9-6.9C623.7,120.8,624.3,119.7,625.6,118.9z"/>
	<polygon points="58.8,506.4 126,506.4 126,475.7 92.9,475.7 92.9,411.6 58.8,411.6 	"/>
	<polygon points="198.8,480.7 168,480.7 168,470.7 195.2,470.7 195.2,446.5 168,446.5 168,437.3 198,437.3 198,411.6 134.6,411.6 
		134.6,506.4 198.8,506.4 	"/>
	<path d="M244.9,494.5h25.7l3,11.9h36.6l-33.1-94.8h-37.9l-33.8,94.8H242L244.9,494.5z M253.5,461.2c1.4-5.4,2.4-9.6,2.9-12.6
		c0.5-2.9,0.8-5.7,1-8.3h0.6c0.1,2.6,0.5,5.4,1,8.3c0.5,2.9,1.5,7.1,2.9,12.6l2.9,10.7h-14.2L253.5,461.2z"/>
	<path d="M381.2,417.6c-3.9-2-8.9-3.5-15.1-4.5c-6.2-1-13.7-1.5-22.4-1.5h-27.6v94.8h25.1c10.4,0,18.6-0.5,24.8-1.4
		c6.2-0.9,11.3-2.5,15.3-4.5c8.2-4.4,14.5-10.1,18.9-17.2c4.4-7.1,6.5-15.1,6.5-24.2c0-9.1-2.2-17.2-6.6-24.3
		C395.7,427.6,389.4,421.9,381.2,417.6z M366.7,473c-3.5,3-9.1,4.5-16.8,4.5v-36.7h1.5c7,0,12.2,1.5,15.6,4.5
		c3.4,3,5.1,7.6,5.1,13.8C372,465.4,370.2,470,366.7,473z"/>
	<polygon points="480.9,480.7 450.2,480.7 450.2,470.7 477.4,470.7 477.4,446.5 450.2,446.5 450.2,437.3 480.2,437.3 480.2,411.6 
		416.8,411.6 416.8,506.4 480.9,506.4 	"/>
	<path d="M568.6,460.2c3.3-4.4,5-9.9,5-16.6c0-10.3-3.3-18.2-9.8-23.7c-6.6-5.5-16.1-8.2-28.5-8.2h-42.9v94.8h33.4v-31.3l16.6,31.3
		h38.2l-25.3-38.6C560.8,467.1,565.3,464.5,568.6,460.2z M538.5,452.2c-1.7,1.6-4.2,2.4-7.5,2.4h-5.3V436h5.3c3.2,0,5.7,0.8,7.5,2.4
		c1.7,1.6,2.6,3.9,2.6,7C541.2,448.4,540.3,450.6,538.5,452.2z"/>
	<path d="M621.2,480.3c-1.3,0.9-3.2,1.3-5.5,1.3c-3.3,0-6.9-0.8-10.7-2.4c-3.8-1.6-8.2-4.1-13-7.5L581,498.3
		c6.2,3.5,12.4,6.2,18.6,8c6.2,1.8,12.4,2.7,18.6,2.7c12.1,0,22-3.3,29.5-10c7.6-6.6,11.4-15.2,11.4-25.7c0-6.4-1.9-11.9-5.6-16.4
		c-3.8-4.5-8.9-7.5-15.4-9c-0.8-0.2-2-0.4-3.5-0.8c-9.5-2-14.2-4.4-14.2-7.1c0-1.4,0.6-2.5,1.9-3.3c1.3-0.8,3.1-1.2,5.5-1.2
		c3.1,0,6.3,0.6,9.6,1.9c3.3,1.3,6.6,3.1,9.9,5.5l10.4-24.8c-5.4-2.9-10.7-5-15.9-6.5c-5.3-1.4-10.6-2.1-16.1-2.1
		c-11.8,0-21.4,3.2-28.7,9.6c-7.3,6.4-10.9,14.7-10.9,24.9c0,6.6,1.9,12,5.6,16.4c3.8,4.4,9.2,7.5,16.2,9.2c1.2,0.3,2.9,0.6,5,1.1
		c6.7,1.4,10,3.4,10,6C623.2,478.2,622.5,479.4,621.2,480.3z"/>
	<path d="M266.1,23.4c2.1,1,4.6,3.7,4.7,5.7c0.6,12.1,5.4,22.4,12.7,31.9c-0.3,0.5-0.6,1-0.8,1.5c-2.4,4.5-2.1,8.5,0.6,10.1
		c2.8,1.6,6.1,0,8.9-4.4c1.1-1.7,1.8-1.8,3.8-1.3c7,1.5,14.1,2.4,21.1,2.2c10.1-0.2,19.1-4.5,25.2-12.9c4.5-6.2,8.2-13,12.6-20.1
		c1.9-0.2,4.9-0.6,7.8-0.8c6.4-0.5,8.3,0.8,11,6.6c9.7,21.5,23.7,29.8,47,26.8c6-0.8,6.9-1,9.3,3.9c1.1,2.4,3.3,3.2,6.5,2.1
		c2.6-0.9,2.8-2.8,3-5.1c0.1-1.9-1.1-3.6-1.6-5.7c9-7.4,13.7-17.5,15.5-28.5c1-5.8,0.7-11.9,8.3-13.4c0.2,0,0.6-0.4,0.6-0.6
		c0-4.1,0.4-8.3-0.3-12.3c-0.2-1.4-3.1-2.9-5-3.4c-19.5-5.5-39.3-6.9-59.3-4.4c-9.6,1.2-19.1,3.2-26.7,10.1
		c-0.9,0.8-2.7,0.8-4.1,0.8c-2.6,0-5.4,0.2-8-0.1c-1.9-0.2-3.7-0.9-5.4-1.6c-5.8-2.5-11.4-6.2-17.4-7.5c-21.3-4.9-42.6-3.4-63.7,1.6
		c-9.8,2.3-9.7,2.4-10.1,12.3C262,20.2,263,21.9,266.1,23.4z M376.1,36.6c9.8,1.6,19.6,2.2,28.8,4.8c9.5,2.6,16.7,11.8,20,22.4
		C400.4,69.6,384.5,60.6,376.1,36.6z M435.1,60.3c-10.5-11.8-18.4-25.8-38.2-26.5c-2.1-0.3-9.4-0.1-9.2-0.5
		c17.4-1.4,44.6-3.6,62.4-5C450.5,40.1,443.3,55.3,435.1,60.3z M380.1,11.9c7-5,15.2-6.6,23.5-7.5C415.3,3.1,426.8,4,438,7.9
		c3.7,1.3,7,3.2,8.9,7.5c-24.6,3.4-48.8,6.8-73.3,10.3C373,19.4,375.6,15.1,380.1,11.9z M362.1,21.1c3.3,0,6.2,0.1,7.2,4.9
		c-4.5,0-8.8,0-13.1,0C356.1,21.6,359.6,21.1,362.1,21.1z M295.2,62.5c6.7-13.9,15.6-24.2,32.5-24.1c6.9,0.1,13.9-1.1,21-1.8
		C340.6,61.5,322.1,70.9,295.2,62.5z M280,11.4c3.5-1.6,7-3.7,10.6-4.6c15.9-4.2,31.8-4.1,47.4,1.5c9,3.2,13.3,8.6,13.2,17
		c-23.9-4.2-50.1-8.8-73.6-12.9C279.1,11.8,279.7,11.6,280,11.4z M274.8,24.8c18,2.1,44.6,5.2,62.3,7.3c0.2,0.5-4.5,0.2-8.3,0.4
		c-19.9-1-31.1,12-42.7,25.6C278.7,47.9,273.8,37.6,274.8,24.8z"/>
	<path d="M67.4,256.3c0,6.5,0,12.9,0,19.4c0,1.3,0,2.6,0,4c0,0.6,0,1.2,0,1.8c0,3.1,0,6.4,0,9.9c0,28.2,0,64.5,0,88.7
		c8.5,0,17.1,0,25.7,0c0-24.2,0-60.4,0-88.7c0,0,0,0,0,0c0-3.5,0-6.6,0-9.9c0,0,0,0,0,0c0-2,0-4,0-5.8h0c0-6.5,0-12.8,0-19.4
		C84.4,256.3,75.9,256.3,67.4,256.3z"/>
	<path d="M157.8,380c0-51.2,0-102.2,0-153.2c-7.3,0-14.3,0-21.5,0c0,51.2,0,102.2,0,153.2C143.6,380,150.6,380,157.8,380z"/>
	<path d="M275,256.6c-8.6,0-17.1,0-25.7,0c0,3.9,0,98.4,0,123.4c8.7,0,17.1,0,25.7,0C275,351.1,275,260.5,275,256.6z"/>
	<path d="M475.9,216.7c-8.2,0-16.2,4.4-23.9,13.1c-4.6,5.2-7.8,10.5-9.7,15.9c-3.7,6.9-7.9,10.3-12.4,10.3c-3.4,0-6.3-3.9-8.5-11.7
		c4.2-1.5,8-3.6,11.3-6.3c4.9-3.9,7.4-7.9,7.4-11.9c0-1-0.1-1.9-0.4-2.9c-1.1-3.9-3.1-5.8-6.1-5.8c-4.1,0-7.7,2.8-10.6,8.5
		c-2.5,4.8-4.1,10-4.6,15.5c-6,2.1-10.4,4-13.1,5.7l12.3-28.7h-18.1l-15.3,35.1c-2.2,3.7-4.9,7.6-8.2,11.8
		c-7.5,9.4-13.9,14.1-19.3,14.1c-1.4,0-2.2-0.6-2.5-1.6c-0.1-0.3-0.2-0.6-0.2-0.8c0-1.3,0.6-3.4,1.9-6.2l22-52.3h-19.6l-3.6,7.3
		c-2.4-7-6.4-10.5-12.1-10.5c-9.2,0-17.8,4.5-26,13.5c-7,7.8-10.5,16.2-10.5,25.4c0,3.8,0.6,7.7,1.7,11.8
		c3.5,12.1,9.3,18.2,17.4,18.2c3.2,0,5.9-1,8.1-2.9c0.8-0.7,2.7-3.1,5.5-7.2l4.4-5.9c3.1,10.4,7.7,15.6,14,15.6
		c6,0,12.4-3.8,19.1-11.3l-4.2,9.6h18.9l8.5-19.6c3.2-7.6,9.7-13.2,19.4-16.7c2.8,9.6,7,14.3,12.7,14.3c3.5,0,6.6-1.2,9.3-3.5
		c0,0,0,0.1,0,0.1c0,3.4,0.5,6.8,1.4,10.2c3.4,11.8,10.3,17.7,20.7,17.7c9.4,0,18.5-4.2,27.2-12.7c7.4-7.2,13.4-16,18-26.3l-3.2-2.6
		c-4.3,9.6-10.1,17.8-17.3,24.8c-8.6,8.3-17.1,12.5-25.5,12.5c-5.2,0-8.3-1.6-9.2-4.7c-0.1-0.3-0.2-0.7-0.2-1.1
		c0-3.4,2.6-10.3,7.8-20.7c18.4,0,28.7-5.5,30.9-16.5c0.3-1.2,0.4-2.3,0.4-3.4c0-1.6-0.3-3.3-0.8-4.8
		C488.2,220.8,483.3,216.7,475.9,216.7z M347.3,244.3l-6.1,14c-3.4,7.3-5.6,11.8-6.6,13.5c-3.4,5.4-7,8.1-10.7,8.1
		c-3.2,0-5.2-1.3-5.9-3.8c-0.1-0.8-0.2-1.5-0.2-2.2c0-1.5,0.3-3.3,1-5.3c8.3-19.6,14.6-34.3,18.8-44c1.1-3.1,3.3-4.6,6.6-4.6
		c4.9,0,7.3,3,7.3,9.1C351.6,233,350.2,238,347.3,244.3z M483.4,235.6c-2.1,5.2-4.6,8.8-7.7,10.8c-3.1,2-7.5,3-13.1,3l3.1-7.2
		c1.7-4,3.4-8.1,5.2-12.2c2.6-5.4,5.3-8,8.2-8c2.8,0,4.7,1.4,5.6,4.2c0.3,1,0.4,2,0.4,3C485,231.1,484.4,233.3,483.4,235.6z"/>
	<path d="M18.2,553.4h684.1V31.3h-218c-2.3,0-4.2,1.9-4.2,4.2c0,2.3,1.9,4.2,4.2,4.2H694v505.4H26.6V39.7h209.9
		c2.3,0,4.2-1.9,4.2-4.2c0-2.3-1.9-4.2-4.2-4.2H18.2V553.4z"/>
	<path d="M132.7,217.6c-11.9,0-23.8,0-35.7,0c-0.1,0.9-0.2,1.8-0.2,2.6c0,5.4,0,10.7,0,16.1H121v4.4H96.8c0,1.8,0,3.7,0,5.5H121v4.4
		H96.8c0,32.2,0,64.4,0,96.6H121v4.4H96.8c0,1.8,0,3.7,0,5.5H121v4.4H96.8c0,5.3,0,10.5,0,15.8c0,0.9,0.1,1.7,0.1,2.7
		c11.9,0,23.7,0,35.7,0C132.7,325.8,132.7,271.7,132.7,217.6z"/>
	<path d="M243.6,380c0-1.8,0-3.4,0-5.2c0.1,0,0.2,0,0.3,0c0-2.6,0-132.7,0-135.2c-12.1,0-24.2,0-36.3,0c0,0.5,0,6.7,0,16.2h25.7v3.8
		h-25.7c0,1.5,0,3.1,0,4.8h25.7v3.8h-25.7c0,24.9,0,60.4,0,83.5h25.7v3.8h-25.7c0,1.7,0,3.3,0,4.8h25.7v3.8h-25.7
		c0,6.3,0,10.3,0,10.8c0.1,0,0.2,0,0.4,0c0,1.8,0,3.5,0,5.2C219.9,380,231.7,380,243.6,380z"/>
	<path d="M448.5,344.4c-7.2,0-14.3,0-21.5,0v26.3h-4.6v-26.3c-1.9,0-3.8,0-5.8,0v26.3h-4.6v-26.3c-33.6,0-67.2,0-100.7,0v26.3h-4.6
		v-26.3c-1.9,0-3.8,0-5.8,0v26.3h-4.6v-26.3c-5.7,0-11.3,0-17,0c0,12,0,23.8,0,35.6c56.5,0,112.7,0,169.1,0
		C448.5,368.1,448.5,356.4,448.5,344.4z"/>
	<path d="M202.7,217.8c-13.6,0-26.9,0-40.5,0c0,54.1,0,108.1,0,162.3c13.5,0,26.9,0,40.5,0C202.7,325.7,202.7,271.8,202.7,217.8z
		 M190.8,330.7c0,5.7-3.6,22.2-7.9,22.2c-4.4,0-7.9-16.4-7.9-22.2v-65.9c0-5.7,3.6-21.3,7.9-21.3c4.4,0,7.9,15.6,7.9,21.3V330.7z"/>
	<path d="M280,310.2c0,10.1,0,19.9,0,29.8c43.9,0,87.6,0,131.3,0c0-10,0-19.8,0-29.8c-3.4,0-6.8,0-10.2,0v23.1h-4.6v-23.1
		c-34.2,0-68.2,0-102.2,0v23.1h-4.6v-23.1C286.6,310.2,283.3,310.2,280,310.2z M306.4,322h77.9v6.2h-77.9V322z"/>
	<path d="M568.6,255.2c2.5-3.1,5-6.3,6.1-10.3c1.3-4.5,0.9-9.4-0.8-13.8c-1.7-4.3-4.6-7.7-6.6-11.8c-1.5-3-2.5-7.2,0.3-9.8
		c2.7-2.6-1.4-6.7-4.1-4.1c-2.9,2.7-3.8,6.6-3.2,10.4c0.6,4.4,2.8,7.8,5.1,11.4c2.5,4,4.6,8.4,4.3,13.2c-0.3,4.2-2.6,7.5-5.2,10.6
		C562.2,253.9,566.3,258.1,568.6,255.2z"/>
	<path d="M549.9,255.9c4.2-4,5.9-10.6,4.1-16.2c-1-3.1-3.1-5.4-5.2-7.8c-1.5-1.7-3.6-4.2-2-6.5c0.9-1.3,0.2-3.2-1-4
		c-1.5-0.8-3.1-0.2-4,1c-1.9,2.7-1.6,6.2-0.3,9c1.3,2.9,3.9,4.9,5.7,7.4c2.8,4,2.1,9.5-1.3,12.8
		C543.1,254.4,547.2,258.5,549.9,255.9z"/>
	<path d="M584.6,222.1c-1.6,2.5-1.7,5.8-0.7,8.6c1,2.9,3,5.2,4.6,7.7c2.5,4.1,2,9.2-1.4,12.6c-2.7,2.7,1.5,6.8,4.1,4.1
		c4-4,5.7-10.2,4.1-15.7c-0.8-2.9-2.7-5.2-4.3-7.7c-1.3-1.9-2.8-4.5-1.3-6.7C591.6,221.9,586.6,219,584.6,222.1z"/>
	<path d="M715.8,549.1c-2.3,0-4.2,1.9-4.2,4.2v8.3h-8.3c-2.3,0-4.2,1.9-4.2,4.2c0,2.3,1.9,4.2,4.2,4.2H720v-16.7
		C720,551,718.1,549.1,715.8,549.1z"/>
	<path d="M321.9,561.6h-25.4c-2.3,0-4.2,1.9-4.2,4.2c0,2.3,1.9,4.2,4.2,4.2h25.4c2.3,0,4.2-1.9,4.2-4.2
		C326,563.5,324.2,561.6,321.9,561.6z"/>
	<path d="M169.3,561.6h-25.4c-2.3,0-4.2,1.9-4.2,4.2c0,2.3,1.9,4.2,4.2,4.2h25.4c2.3,0,4.2-1.9,4.2-4.2
		C173.4,563.5,171.6,561.6,169.3,561.6z"/>
	<path d="M220.1,561.6h-25.4c-2.3,0-4.2,1.9-4.2,4.2c0,2.3,1.9,4.2,4.2,4.2h25.4c2.3,0,4.2-1.9,4.2-4.2
		C224.3,563.5,222.4,561.6,220.1,561.6z"/>
	<path d="M372.7,561.6h-25.4c-2.3,0-4.2,1.9-4.2,4.2c0,2.3,1.9,4.2,4.2,4.2h25.4c2.3,0,4.2-1.9,4.2-4.2
		C376.9,563.5,375,561.6,372.7,561.6z"/>
	<path d="M271,561.6h-25.4c-2.3,0-4.2,1.9-4.2,4.2c0,2.3,1.9,4.2,4.2,4.2H271c2.3,0,4.2-1.9,4.2-4.2
		C275.2,563.5,273.3,561.6,271,561.6z"/>
	<path d="M118.4,561.6H93c-2.3,0-4.2,1.9-4.2,4.2c0,2.3,1.9,4.2,4.2,4.2h25.4c2.3,0,4.2-1.9,4.2-4.2
		C122.6,563.5,120.7,561.6,118.4,561.6z"/>
	<path d="M67.5,561.6H42.1c-2.3,0-4.2,1.9-4.2,4.2c0,2.3,1.9,4.2,4.2,4.2h25.4c2.3,0,4.2-1.9,4.2-4.2
		C71.7,563.5,69.8,561.6,67.5,561.6z"/>
	<path d="M677.9,561.6h-25.4c-2.3,0-4.2,1.9-4.2,4.2c0,2.3,1.9,4.2,4.2,4.2h25.4c2.3,0,4.2-1.9,4.2-4.2
		C682.1,563.5,680.2,561.6,677.9,561.6z"/>
	<path d="M576.2,561.6h-25.4c-2.3,0-4.2,1.9-4.2,4.2c0,2.3,1.9,4.2,4.2,4.2h25.4c2.3,0,4.2-1.9,4.2-4.2
		C580.3,563.5,578.5,561.6,576.2,561.6z"/>
	<path d="M423.6,561.6h-25.4c-2.3,0-4.2,1.9-4.2,4.2c0,2.3,1.9,4.2,4.2,4.2h25.4c2.3,0,4.2-1.9,4.2-4.2
		C427.7,563.5,425.9,561.6,423.6,561.6z"/>
	<path d="M627,561.6h-25.4c-2.3,0-4.2,1.9-4.2,4.2c0,2.3,1.9,4.2,4.2,4.2H627c2.3,0,4.2-1.9,4.2-4.2
		C631.2,563.5,629.3,561.6,627,561.6z"/>
	<path d="M474.4,561.6H449c-2.3,0-4.2,1.9-4.2,4.2c0,2.3,1.9,4.2,4.2,4.2h25.4c2.3,0,4.2-1.9,4.2-4.2
		C478.6,563.5,476.7,561.6,474.4,561.6z"/>
	<path d="M525.3,561.6h-25.4c-2.3,0-4.2,1.9-4.2,4.2c0,2.3,1.9,4.2,4.2,4.2h25.4c2.3,0,4.2-1.9,4.2-4.2
		C529.5,563.5,527.6,561.6,525.3,561.6z"/>
	<path d="M16.7,561.6H8.3v-8.3c0-2.3-1.9-4.2-4.2-4.2c-2.3,0-4.2,1.9-4.2,4.2V570h16.7c2.3,0,4.2-1.9,4.2-4.2
		C20.8,563.5,19,561.6,16.7,561.6z"/>
	<path d="M4.2,532.6c2.3,0,4.2-1.9,4.2-4.2v-24.9c0-2.3-1.9-4.2-4.2-4.2c-2.3,0-4.2,1.9-4.2,4.2v24.9C0,530.7,1.9,532.6,4.2,532.6z"
		/>
	<path d="M4.2,184.5c2.3,0,4.2-1.9,4.2-4.2v-24.9c0-2.3-1.9-4.2-4.2-4.2c-2.3,0-4.2,1.9-4.2,4.2v24.9C0,182.6,1.9,184.5,4.2,184.5z"
		/>
	<path d="M4.2,234.2c2.3,0,4.2-1.9,4.2-4.2v-24.9c0-2.3-1.9-4.2-4.2-4.2c-2.3,0-4.2,1.9-4.2,4.2V230C0,232.3,1.9,234.2,4.2,234.2z"
		/>
	<path d="M4.2,283.9c2.3,0,4.2-1.9,4.2-4.2v-24.9c0-2.3-1.9-4.2-4.2-4.2c-2.3,0-4.2,1.9-4.2,4.2v24.9C0,282.1,1.9,283.9,4.2,283.9z"
		/>
	<path d="M4.2,134.7c2.3,0,4.2-1.9,4.2-4.2v-24.9c0-2.3-1.9-4.2-4.2-4.2c-2.3,0-4.2,1.9-4.2,4.2v24.9C0,132.9,1.9,134.7,4.2,134.7z"
		/>
	<path d="M4.2,482.9c2.3,0,4.2-1.9,4.2-4.2v-24.9c0-2.3-1.9-4.2-4.2-4.2c-2.3,0-4.2,1.9-4.2,4.2v24.9C0,481,1.9,482.9,4.2,482.9z"/>
	<path d="M4.2,383.4c2.3,0,4.2-1.9,4.2-4.2v-24.9c0-2.3-1.9-4.2-4.2-4.2c-2.3,0-4.2,1.9-4.2,4.2v24.9C0,381.5,1.9,383.4,4.2,383.4z"
		/>
	<path d="M4.2,433.1c2.3,0,4.2-1.9,4.2-4.2v-24.9c0-2.3-1.9-4.2-4.2-4.2c-2.3,0-4.2,1.9-4.2,4.2V429C0,431.3,1.9,433.1,4.2,433.1z"
		/>
	<path d="M4.2,333.7c2.3,0,4.2-1.9,4.2-4.2v-24.9c0-2.3-1.9-4.2-4.2-4.2c-2.3,0-4.2,1.9-4.2,4.2v24.9C0,331.8,1.9,333.7,4.2,333.7z"
		/>
	<path d="M4.2,85c2.3,0,4.2-1.9,4.2-4.2V55.9c0-2.3-1.9-4.2-4.2-4.2c-2.3,0-4.2,1.9-4.2,4.2v24.9C0,83.1,1.9,85,4.2,85z"/>
	<path d="M4.2,35.2c2.3,0,4.2-1.9,4.2-4.2v-8.3h8.3c2.3,0,4.2-1.9,4.2-4.2s-1.9-4.2-4.2-4.2H0v16.7C0,33.4,1.9,35.2,4.2,35.2z"/>
	<path d="M652.5,22.7h25.4c2.3,0,4.2-1.9,4.2-4.2s-1.9-4.2-4.2-4.2h-25.4c-2.3,0-4.2,1.9-4.2,4.2S650.2,22.7,652.5,22.7z"/>
	<path d="M601.6,22.7H627c2.3,0,4.2-1.9,4.2-4.2s-1.9-4.2-4.2-4.2h-25.4c-2.3,0-4.2,1.9-4.2,4.2S599.3,22.7,601.6,22.7z"/>
	<path d="M550.7,22.7h25.4c2.3,0,4.2-1.9,4.2-4.2s-1.9-4.2-4.2-4.2h-25.4c-2.3,0-4.2,1.9-4.2,4.2S548.4,22.7,550.7,22.7z"/>
	<path d="M499.9,22.7h25.4c2.3,0,4.2-1.9,4.2-4.2s-1.9-4.2-4.2-4.2h-25.4c-2.3,0-4.2,1.9-4.2,4.2S497.6,22.7,499.9,22.7z"/>
	<path d="M194.7,22.7h25.4c2.3,0,4.2-1.9,4.2-4.2s-1.9-4.2-4.2-4.2h-25.4c-2.3,0-4.2,1.9-4.2,4.2S192.4,22.7,194.7,22.7z"/>
	<path d="M143.8,22.7h25.4c2.3,0,4.2-1.9,4.2-4.2s-1.9-4.2-4.2-4.2h-25.4c-2.3,0-4.2,1.9-4.2,4.2S141.5,22.7,143.8,22.7z"/>
	<path d="M93,22.7h25.4c2.3,0,4.2-1.9,4.2-4.2s-1.9-4.2-4.2-4.2H93c-2.3,0-4.2,1.9-4.2,4.2S90.7,22.7,93,22.7z"/>
	<path d="M42.1,22.7h25.4c2.3,0,4.2-1.9,4.2-4.2s-1.9-4.2-4.2-4.2H42.1c-2.3,0-4.2,1.9-4.2,4.2S39.8,22.7,42.1,22.7z"/>
	<path d="M703.3,14.4c-2.3,0-4.2,1.9-4.2,4.2s1.9,4.2,4.2,4.2h8.3v8.3c0,2.3,1.9,4.2,4.2,4.2c2.3,0,4.2-1.9,4.2-4.2V14.4H703.3z"/>
	<path d="M715.8,101.5c-2.3,0-4.2,1.9-4.2,4.2v24.9c0,2.3,1.9,4.2,4.2,4.2c2.3,0,4.2-1.9,4.2-4.2v-24.9
		C720,103.4,718.1,101.5,715.8,101.5z"/>
	<path d="M715.8,151.2c-2.3,0-4.2,1.9-4.2,4.2v24.9c0,2.3,1.9,4.2,4.2,4.2c2.3,0,4.2-1.9,4.2-4.2v-24.9
		C720,153.1,718.1,151.2,715.8,151.2z"/>
	<path d="M715.8,51.8c-2.3,0-4.2,1.9-4.2,4.2v24.9c0,2.3,1.9,4.2,4.2,4.2c2.3,0,4.2-1.9,4.2-4.2V55.9
		C720,53.6,718.1,51.8,715.8,51.8z"/>
	<path d="M715.8,201c-2.3,0-4.2,1.9-4.2,4.2V230c0,2.3,1.9,4.2,4.2,4.2c2.3,0,4.2-1.9,4.2-4.2v-24.9C720,202.8,718.1,201,715.8,201z
		"/>
	<path d="M715.8,449.7c-2.3,0-4.2,1.9-4.2,4.2v24.9c0,2.3,1.9,4.2,4.2,4.2c2.3,0,4.2-1.9,4.2-4.2v-24.9
		C720,451.5,718.1,449.7,715.8,449.7z"/>
	<path d="M715.8,499.4c-2.3,0-4.2,1.9-4.2,4.2v24.9c0,2.3,1.9,4.2,4.2,4.2c2.3,0,4.2-1.9,4.2-4.2v-24.9
		C720,501.3,718.1,499.4,715.8,499.4z"/>
	<path d="M715.8,399.9c-2.3,0-4.2,1.9-4.2,4.2V429c0,2.3,1.9,4.2,4.2,4.2c2.3,0,4.2-1.9,4.2-4.2v-24.9
		C720,401.8,718.1,399.9,715.8,399.9z"/>
	<path d="M715.8,300.5c-2.3,0-4.2,1.9-4.2,4.2v24.9c0,2.3,1.9,4.2,4.2,4.2c2.3,0,4.2-1.9,4.2-4.2v-24.9
		C720,302.3,718.1,300.5,715.8,300.5z"/>
	<path d="M715.8,250.7c-2.3,0-4.2,1.9-4.2,4.2v24.9c0,2.3,1.9,4.2,4.2,4.2c2.3,0,4.2-1.9,4.2-4.2v-24.9
		C720,252.6,718.1,250.7,715.8,250.7z"/>
	<path d="M715.8,350.2c-2.3,0-4.2,1.9-4.2,4.2v24.9c0,2.3,1.9,4.2,4.2,4.2c2.3,0,4.2-1.9,4.2-4.2v-24.9
		C720,352.1,718.1,350.2,715.8,350.2z"/>
	<path d="M667.6,325.5c0.4-3.7,0.6-7.4,0.6-11.1c0-3.2-0.4-5.6-1-8.7c-2.1-10.3-5.9-19.7-15.7-25.2c-9.8-5.5-20-6.1-31.4-0.9
		c0-5.3,0-10,0-14.6c-34,0-66.9,0-99,0c0,36.7,0,72.9,0,109.1c0,4.5,2.3,6.3,7,6.3c25.5-0.2,51-0.1,76.5-0.1c13.5,0,13.6,0,14-13.4
		c0.1-3.7,1.2-4.7,4.9-3.5c17,5.7,32-1,38.9-17.7C665.2,339.2,666.8,332.4,667.6,325.5z M571.4,353.9c-17.6,0-31.8-14.2-31.8-31.8
		c0-17.6,14.2-31.8,31.8-31.8c17.6,0,31.8,14.2,31.8,31.8C603.2,339.7,589,353.9,571.4,353.9z M658,318.7c-0.2,9.5-1.4,18.7-6.5,27
		c-3,4.9-7.1,8.3-12.9,9.7c-2.3,0.5-4.8,0.7-7-0.1c-2.1-0.7-4.7-1.3-6.4-2.8c-2.7-2.4-5.2-5.6-6-9.2c-0.9-4.1-0.2-8.8-0.2-12.9
		c0.1-9.5,0.2-19.1,0.5-28.6c0.3-10.5,16.4-18.6,25.9-13c9.5,5.6,11.5,15.1,12.7,24.9C658.2,315.3,658,317,658,318.7z"/>
	<polygon points="571.4,295.6 565.4,314 546,314 561.7,325.4 555.7,343.9 571.4,332.5 587.1,343.9 581.1,325.4 596.8,314 577.4,314 
			"/>
	<path d="M653.5,62.9c-2.7-0.7-5.3-1.6-8.1-2c-4.1-0.5-8.2-0.7-12.3-0.8c-10.9-0.4-21.9-0.8-32.8-1.1c-5.1-0.1-10.2-0.4-15.3-0.2
		c-1,0-1.9,0.1-2.9,0.3c-0.3,0-0.8,0.1-0.8,0.3c-0.3,1-1.1,0.7-1.7,0.7c-10.8-0.1-21.6-0.3-32.4-0.2c-6.8,0.1-13.6,0.5-20.4,0.8
		c-3.4,0.1-6.9,0.2-10.3,0.2c-1.9,0-3.7,0-5.7,0c-0.1,0.8-0.2,1.5-0.4,2.4c-1,0-1.8,0-2.7-0.1c-2.9-0.3-5.8-0.5-8.6-0.9
		c-1.6-0.2-3,0-4.3,0.9c-2.1,1.4-4.3,2.6-6.9,3c-0.2,0-0.4,0.4-1,0.8c3.3,0.4,5.8,1.7,8.1,3.3c1.1,0.7,2.2,0.9,3.5,0.8
		c3.6-0.3,7.2-0.6,10.8-0.8c0.4,0,0.8,0.1,1.1,0.1c0.2,0.9,0.3,1.6,0.4,2.3c1.6,0,2.9-0.1,4.3,0c6.9,0.3,13.9,0.6,20.8,0.8
		c14.4,0.5,28.9,0.7,43.3,0.3c0.8,0,1.6-0.1,2.2,0.7c0.2,0.3,0.7,0.3,1.1,0.4c2.1,0.2,4.1,0.4,6.2,0.4c2.4,0,4.7-0.2,7.1-0.2
		c16.4-0.1,32.8-0.1,49.2-1.4c2.7-0.2,5.5-0.5,8-1.6c0.9-0.4,1.8-0.8,2.5-1.4c2.3-1.9,2.1-5-0.4-6.6
		C654.7,63.5,654.2,63.1,653.5,62.9z"/>
</g>
</svg>
