<?xml version="1.0" encoding="utf-8"?>
<!-- Generator: Adobe Illustrator 17.1.0, SVG Export Plug-In . SVG Version: 6.00 Build 0)  -->
<!DOCTYPE svg PUBLIC "-//W3C//DTD SVG 1.1//EN" "http://www.w3.org/Graphics/SVG/1.1/DTD/svg11.dtd">
<svg version="1.1" id="Слой_1" xmlns="http://www.w3.org/2000/svg" xmlns:xlink="http://www.w3.org/1999/xlink" x="0px" y="0px"
	 viewBox="0 0 708 550.5" enable-background="new 0 0 708 550.5" xml:space="preserve">
<g>
	<path d="M528,520.3v-2.8h-16c3.9-50.2-4.2-92.1-24.6-128.1c-17.8-31.3-41.8-52.2-61-69.1c-18.6-16.2-33.2-29.1-33.2-43.3
		s14.7-27.1,33.2-43.3c19.3-16.8,43.2-37.8,61-69.1c20.9-36.7,28.9-79.6,24.4-131.2l0-0.4H529v-2.8c0-7.3,5.8-13.2,13-13.2h0.1V0
		h-360v17h1.1c7.2,0,13,5.9,13,13.2V33h16.3l0,0.4c-4.5,51.6,3.5,94.5,24.4,131.2c17.8,31.3,41.8,52.2,61,69.1
		c18.6,16.2,33.2,29.1,33.2,43.3s-14.7,27.1-33.2,43.3c-19.3,16.8-43.2,37.8-61,69.1c-20.5,36-28.5,77.9-24.6,128.1h-17v2.8
		c0,7.3-5.8,13.2-13,13.2h-0.1v17h360v-17H541C533.8,533.5,528,527.6,528,520.3z M205.7,19.8c-1.9,0-3.5-1.6-3.5-3.5
		c0-1.9,1.6-3.5,3.5-3.5c0,0,0,0,0,0c36.3,0.3,72.9,0.4,108.8,0.3c0,0,0,0,0,0c1.9,0,3.5,1.6,3.5,3.5c0,1.9-1.6,3.5-3.5,3.5
		c-9.8,0-19.6,0-29.5,0C258.8,20.2,232.2,20.1,205.7,19.8z M314.6,537.6c-9.7,0-19.5,0-29.4,0c-26.4,0-53-0.1-79.6-0.3
		c-1.9,0-3.5-1.6-3.5-3.5c0-1.9,1.6-3.5,3.5-3.5c0,0,0,0,0,0c36.4,0.3,73,0.4,108.8,0.3c0,0,0,0,0,0c1.9,0,3.5,1.6,3.5,3.5
		C318.1,536,316.5,537.6,314.6,537.6z M259.9,493.2l-0.1-0.1c-2.6-3.8-2.5-6.8,0.2-9c2.5-2,5.5-3.7,8.4-5.3c1.2-0.7,2.5-1.4,3.7-2.1
		c2.5-1.5,5-3.1,7.4-4.6c1.6-1,3.2-2,4.8-3c2.9-1.8,5-2.6,6.9-2.6c2.1,0,3.8,1.2,5.2,3.5c0.6,1.1,1.1,2.3,1.6,3.5
		c0.6,1.5,1.3,3,2.2,4.4c0.3,0.4,0.8,0.7,1.3,0.7c0.4,0,0.8-0.2,1.1-0.4c0.3-0.3,0.4-0.6,0.4-1c0-2.5-0.9-5.6-2.6-9.4
		c-0.3-0.6-0.6-1.2-1-1.7c-0.5-0.8-1-1.5-1.2-2.3c-0.8-2.6,2.2-4.7,5.3-6.3l0.4-0.2c1.6-0.8,3.5-1.9,5.4-1.9c0.6,0,1.1,0.1,1.5,0.3
		c2.3,0.9,4,4.2,4.9,6l0.4,0.8c1.6,2.9,3.7,6.9,1.6,9.8c-1.2,1.6-3.1,2.6-5,3.5c-0.7,0.3-1.4,0.7-2.1,1.1c-4.7,2.7-8.8,5.1-12.7,7.4
		c-3.8,2.3-7.3,4.5-10.7,6.6c-1.8,1.1-3.5,2.3-4.8,3.2l-2.1,1.4c-2,1.4-4,2.8-6,4.1c-1,0.6-2,1.2-3,1.7c-0.7,0.4-1.5,0.8-2.2,1.2
		c-2.1,1.3-4.2,2.7-6.3,4.1c-1.8,1.2-3.7,2.5-5.6,3.6c-2,1.2-4.7,2.7-7.2,2.7c-1.6,0-2.9-0.5-4-1.7c-3.1-3-6.6-7.8-6.3-11.6
		c0.1-1.5,0.7-2.7,1.9-3.6c0.3-0.2,0.6-0.5,0.9-0.7c2.3-1.8,5.1-4.1,7.9-4.1c0.2,0,0.4,0,0.6,0c3.6,0.4,7.3,6.7,9.1,10.3
		c0.3,0.5,0.7,0.8,1.3,0.8c0.8,0,1.6-0.6,1.7-1.6C263,497.8,261.4,495.4,259.9,493.2z M366,513.5c-0.1,0.4-0.3,0.6-0.6,0.7
		c-0.1,0.1-0.3,0.1-0.5,0.1c-0.4,0-0.9-0.1-1.4-0.2c-0.3-0.1-0.6-0.1-0.8-0.2c-1-0.1-2-0.2-3.2-0.2c-1.4,0-2.8,0.1-4.2,0.2l-0.6,0
		c-0.2,0-0.4,0-0.6,0c-1.8,0-3.1-0.6-4.1-1.7c-2.3-2.8-2-8.4-1.2-12.6c0.1-0.4,0-0.7-0.3-1c-0.2-0.3-0.6-0.5-1-0.5
		c-0.4,0-0.7,0.2-0.9,0.6c-1.6,3.3-1.9,6.5-2.2,9.9c-0.1,0.7-0.1,1.4-0.2,2.2c-0.3,3.2-3,3.4-6.3,3.5l-22,0.1c-3.4,0-6.1-1-7.9-3
		c-2.4-2.6-3.4-6.8-2.9-12.7c0-0.3-0.1-0.6-0.3-0.8c-0.2-0.3-0.6-0.4-0.9-0.4c-0.4,0-0.8,0.2-1,0.6c-1.3,2.8-1.7,6.2-1.3,9.9
		c0.3,2.7-0.2,4.9-1.3,6.1c-0.7,0.8-1.6,1.2-2.8,1.2c-0.4,0-0.7,0-1.1-0.1c-4.5-0.8-6.8-7.7-6.9-12.2c-0.1-2.4,0.7-6.6,2.6-8.2
		c1-0.8,2.4-1.2,4.4-1.2c0.9,0,1.9,0.1,2.7,0.2l0.3,0c2.5,0.2,5.1,0.2,7.6,0.2c1,0,1.9,0,2.9,0c4.5,0.1,9.1,0.1,13.6,0.1
		c2.1,0,4.2,0,6.3,0c3.7,0,7.5,0.1,11.3,0.1c4.4,0.1,8.9,0.1,13.3,0.1c3.4,0,6.4,0,9.2-0.1c-0.9,2.2-1.1,5.1-0.9,7
		c0.2,2.6,1.1,5.3,1.8,7.7c0.1,0.4,0.3,0.8,0.6,1.4C365.5,511.4,366.2,512.9,366,513.5z M410,508c-1.7,1-4.4,1.1-6.3,1.1
		c-0.4,0-0.9,0-1.2,0l-0.6,0c-1.4,0-2.8,0-4.2,0c-4.2,0-7.6,0.1-10.8,0.3c-0.8,0.1-1.2,0.7-1.2,1.2c0,0.6,0.4,1.2,1.2,1.2
		c0.2,0,0.6,0,1.3,0.1c2.3,0.1,9.1,0.5,10.1,0.9c0,0.1,0,0.1-0.1,0.2c-0.2,0.3-1,0.6-3.5,0.6c-1.1,0-2.3-0.1-3.2-0.1
		c-0.6,0-1-0.1-1.4-0.1c0,0,0,0,0,0c-4.5,0-9.2,0-13.8,0.2l-0.2,0c-2.2,0-6.8-0.8-7.4-2.3c-0.2-0.5,0-1.1,0.7-1.7
		c1.8-1.7,3.9-1.8,6.3-1.9c0.4,0,0.8,0,1.1,0c1.1-0.1,2.2-0.1,3.3-0.2c1.8-0.1,3.6-0.2,5.3-0.3c0.5,0,1,0,1.5,0c1.4,0,2.8,0,4.2,0.1
		c1.5,0,3,0.1,4.5,0.1c3.3,0,7.7-0.1,11.5-1.3c0.2-0.1,0.7-0.2,0.7-0.6c-0.1-0.8-2.9-1.2-2.9-1.2c-2.1-0.3-4-0.5-6-0.6
		c-2.8-0.2-5.7-0.2-8.5-0.2c-1,0-2,0-3.1,0c-3.9-0.1-7.8-0.1-11.7-0.2c-0.6,0-2.3,0-3-0.8c-0.2-0.3-0.3-0.7-0.3-1.1
		c0.1-0.9,1.2-1.2,2.2-1.4c1.7-0.4,3.4-0.5,5-0.5l1.7,0c0.5,0,1,0,1.5,0c1.5-0.1,2.9-0.1,4.4-0.1c5-0.2,10.2-0.3,15.3-0.8
		c0.7-0.1,1.1-0.6,1.1-1.1s-0.3-1-1.1-1.1c-4.8-0.4-9.6-0.5-14.3-0.6c-3.2-0.1-6.6-0.1-9.9-0.3c-0.9,0-1.1-0.2-1.1-0.3
		c0-0.3,0.9-1,1.9-1.2c1.7-0.4,3.6-0.6,6.1-0.6c1.8,0,3.6,0.1,5.4,0.2c1.8,0.1,3.4,0.2,5,0.2l4.5,0c0.8,0,2.4,0,2.4,0
		c0.4,0,0.9,0,1.3,0c0.5,0,1,0,1.6,0c1.5,0,3.3,0.1,4.6,0.6c0.5,0.2,0.8,0.5,0.9,0.7c0.1,0.5-0.3,1-0.5,1.4
		c-0.2,0.3-0.5,0.7-0.2,0.9l0.3,0.2c0.6,0.6,0.9,0.8,0.7,1.7c-0.1,0.3-0.4,0.7-0.7,1c-0.4,0.4-0.7,0.8-0.8,1.2
		c-0.1,0.7,0.3,1.3,0.7,1.9c0.2,0.3,0.4,0.6,0.5,0.8C411.6,506,411.3,507.2,410,508z M435.5,503.2c-0.4,3-0.9,5.9-2.5,7.8
		c-1.1,1.4-2.8,2.2-5,2.4c-0.1,0-0.2,0-0.3,0c-0.5,0-1.2-0.1-2-0.1c-0.9-0.1-1.9-0.2-2.7-0.2c-0.2,0-0.4,0-0.5,0
		c2.1-2.6,2.7-7,2.9-10.7c0.3-4.5-0.5-9.1-2.2-12.5c0.7,0.2,1.8,0.2,3.6,0.3c1.9,0.1,4.1,0.2,4.8,0.6
		C436,493.5,436,499.7,435.5,503.2z M466.5,508.4c-0.4,0.8-1,1.5-1.7,2.1c-1.8,1.4-4.2,1.7-5.9,1.8c-1,0-2,0.1-3,0.1
		c-2.3,0.1-4.7,0.2-7.1,0.2c-0.4,0-0.9,0-1.4,0c-0.6,0-1.2,0-1.9,0c-2.3,0-5-0.2-6.2-1.7c-0.6-0.8-0.7-2-0.3-3.4
		c1-3.7,1.2-7.1,0.7-10.4c-0.1-0.3-0.1-0.7-0.2-1.1c-0.3-1.7-0.7-3.7,0.4-5c0.7-0.8,2.1-1.2,4.2-1.2c1.2,0,2.4,0.1,3.5,0.2
		c0.9,0.1,1.6,0.1,2.2,0.2c3,0,6,0,9,0c5.1,0,7.1,0.9,8.2,5.6C468,499.6,468.1,505.1,466.5,508.4z M482.9,507.3
		c-0.6,1.9-1.8,3.2-3.8,4c-1.3,0.5-2.8,0.7-4.5,0.7c-1.6,0-2.7-0.3-3.3-1c-0.9-1.1-0.5-3.1,0-5.2c0.1-0.5,0.2-0.9,0.3-1.4
		c0.5-2.6,0.7-5.1,0.5-7.3c0-0.6-0.2-1.2-0.4-1.8c-0.4-1.6-0.8-3.3,0.3-4.3c0.5-0.4,1.1-0.6,1.9-0.6c1.6,0,3.5,0.8,4.5,1.3
		c2.1,1,3,2.1,3.8,4.4C483.6,499.8,483.8,504.1,482.9,507.3z M504.9,508.9c-2.4,2.1-3.3-1.7-3.2-3.7c0.2-5.9,0.2-11.8-0.2-17.7
		c-0.7-11.4-2.9-22.6-4-34c-2.9-27.5-14.6-54.2-34.9-79.1c-1.2-1.5-3.4-1.7-4.9-0.5c-1.5,1.2-1.7,3.4-0.5,4.9
		c19.5,23.9,30.7,49.3,33.4,75.5l0,0.2c1.4,9.4,2.7,18.6,3.6,27.6c-0.4,2.1-1,4.2-2.7,5.7c-1.4,1.3-3.3,2.1-5,2.1
		c-1.5,0-2.6-0.6-3.5-1.8c-1.1-1.7-2.8-2.8-4.6-3.1c-0.8-0.1-1.6-0.2-2.3-0.2l-0.7,0c-0.5,0-1.1,0-1.7-0.1c-3-0.3-5.6-0.5-7.9-0.5
		c-2.6,0-5.3,0-7.9,0c-3.7,0-7.8,0.7-11.3-0.7c-3.1-1.3-5.1-4.6-8.4-5.6c-1.2-0.4-2.4-0.6-3.4-1.3c-2.9-2.1,5.4-1.3,5.2-1.3
		c3.9,0.8,8,3.4,11.3,5.5c0.2,0.1,0.4,0.2,0.7,0.2c0.5,0,1-0.4,1.2-0.9c0.2-0.5,0.1-1-0.3-1.4c-1.1-1.1-2.3-2.1-3.7-3
		c-0.4-0.3-0.9-0.6-1.4-0.8c-0.8-0.4-1.7-0.9-2.2-1.6c0.2-0.1,0.5-0.1,0.8-0.1c1,0,2.1,0.7,3.1,1.3c0.3,0.2,0.5,0.3,0.8,0.5
		c1.3,0.8,2.6,1.6,3.8,2.4c1.1,0.7,2.1,1.3,3.2,2c0.2,0.1,0.5,0.2,0.7,0.2c0.5,0,0.9-0.3,1.1-0.8c0.2-0.5,0.2-1.1-0.2-1.5
		c-4-4.8-11-8-16.7-10.2c-5.7-2.2-12.1-3.4-19-3.4c-1,0-2,0-3,0.1c-13.1,0.6-24.7,6.6-32,16.4c-6-10.3-15-17.3-24.8-19.3
		c-2.1-0.4-4.3-0.6-6.5-0.6c-9.7,0-20.9,4.2-30.7,11.4c-0.5,0.4-0.7,1-0.5,1.6c0.2,0.5,0.6,0.8,1.1,0.8c0.1,0,0.3,0,0.5-0.1
		c2-0.7,4.4-3,6.6-3.1c5.5-0.2,1.8,2.5-1.5,3.9c-0.4,0.2-0.6,0.6-0.5,1.1c0.1,0.4,0.5,0.9,1,0.9c0.1,0,0.2,0,0.3,0
		c1.5-0.4,2.9-1,4.3-1.5c2.2-0.8,11.6-5.1,11,0.5c-0.3,2.2-4.2,3.1-5.9,3.5c-4.1,1-18.6,7.2-22.1,4.4c-6.6-5.3,4.5-9.5,2.5-14.9
		c-2.5-7-5.9-16.6-13.5-17.9c-0.3-0.1-0.6-0.1-1-0.1c-2.8,0-5.8,1.9-8.2,3.4l-0.8,0.5c-1.4,0.9-2.8,1.9-4.1,2.8
		c-1.2,0.8-2.4,1.7-3.7,2.5c-3.6,2.3-7.4,4.7-11.1,6.9c-3,1.8-6.1,3.7-9,5.6c-3.3,2.1-6.7,4.1-10,6.1c-3.7,2.2-7.5,4.5-11.3,6.9
		c-3.7,2.3-7.2,4.8-10.4,7.2c-1.3,1-2.8,1.5-4.3,1.5c-1.6,0-3.1-0.7-4.4-1.9c-0.6-0.6-1-1.9-1.4-3.1c-0.3-0.9-0.6-1.9-1-2.6
		c0.5-12.3,2.2-24.7,5-37.1c0.4-1.9-0.7-3.8-2.6-4.2c-1.9-0.4-3.8,0.7-4.2,2.6c-2.6,11.3-4.3,22.8-5,34.3
		c-0.3,5.8-0.5,11.5-0.3,17.3c0,1.5,1.6,12.5-2.2,11.5c-1.3-0.3-1.1-2.8-1.2-3.8c-0.3-4.2-0.3-8.4-0.3-12.5c0-7.8,0.3-15.6,1-23.3
		c1.2-13.5,3.5-26.9,7.3-39.9c6.8-23.4,18.4-45.1,33.7-64c12.5-15.4,27.3-28.7,42.2-41.8c19.9-17.4,35.6-31.1,35.6-48.6
		s-15.7-31.2-35.6-48.6c-14.9-13.1-29.7-26.4-42.2-41.8c-15.4-18.9-26.9-40.6-33.7-64c-4-13.7-6.4-27.7-7.5-41.9
		c-0.6-8.2-0.9-16.4-0.8-24.6c0.1-3.8-0.5-8.7,0.8-12.3c1.2-3.2,3.3-2.2,3.9,0.7c0.8,3.9-0.2,8.7-0.2,12.7c-0.1,8.8,0.1,17.6,1,26.4
		c0.2,1.8,1.7,3.2,3.5,3.2c0.1,0,0.2,0,0.4,0c1.9-0.2,3.3-1.9,3.1-3.8c-1-9.6-0.6-18.4,0.3-27.9c1.9-19.5,21.2-17.8,36-17.8
		c18.5,0,37,0,55.4,0c22.4,0,44.8,0,67.2,0c19.5,0,38.9,0,58.4,0c14.6,0,36.6-4,44.4,12.5c2.9,6.3,2.2,13.7,2,20.5
		c-0.1,1.9,1.5,3.5,3.4,3.6c0,0,0.1,0,0.1,0c1.9,0,3.4-1.5,3.5-3.4c0.1-5.4-0.2-10.7-0.1-16.1c0-2.1-0.8-8.9,1.4-9.9
		c4-1.9,3.2,12.8,3.2,14.1c0,7.5-0.2,14.9-0.8,22.4c-1,13.1-3.2,26.2-6.7,38.9c-6.6,24.1-18.2,46.5-33.8,66
		c-12.7,15.8-27.7,29.4-43,42.7c-19.9,17.4-35.6,31.1-35.6,48.6s15.7,31.2,35.6,48.6c13.8,12.1,27.5,24.3,39.3,38.3
		c15.7,18.5,27.9,39.8,35.3,63c4.5,14.2,7.3,29,8.6,43.8c0.8,8.6,1.1,17.2,1,25.8C505.9,499.8,507.7,506.4,504.9,508.9z"/>
	<path d="M427.2,338.8c-11.3-9.8-23.1-19.9-33.6-31.2c-5.2-6.1-9.2-14.4-11.2-23.4c-4-22.4,11.2-40.4,24.7-51.5
		c26.1-20.3,46-40.1,60.8-60.5c18.1-24.9,28.7-51.3,31.6-78.3c0.2-1.9-1.2-3.6-3.1-3.8c-1.9-0.2-3.6,1.2-3.8,3.1
		c-0.3,2.4-0.6,4.8-1,7.2c-1-0.5-2.2-0.7-3.2-0.8l-0.4-0.1c-1-0.2-1.9-0.2-2.8-0.2c-3.1,0-5.6,0.9-7.3,2.6c-0.4,0.3-0.8,0.6-1.1,0.8
		c-0.7,0.6-1.5,1.3-2.3,1.9c-5.3,4.4-11.2,9.4-14.6,15.3l-1.5-1c-2.9-1.9-6-3.9-9.1-5.6l0-0.1c-0.3-0.4-0.7-0.9-1-1.5
		c0.1-2.7-1.3-6.5-4.1-11.1c-3.4-5.5-6.8-8-10.8-8c-2.1,0-4.2,0.6-6.7,2c-4,2.2-7.2,3.5-11,4.5c-6.4,1.7-13,3-19.2,4.1
		c-3.6,0.7-7.4,1.2-10.9,1.8c-1.9,0.3-3.9,0.6-5.8,0.9c-3.3,0.5-5.8,1-8.2,1.5c-0.4,0.1-0.9,0.2-1.4,0.4c-1,0.3-2.1,0.7-3,0.7
		c-0.9,0-1.4-0.3-1.6-1.1c-0.2-0.6-0.1-1.1,0.3-1.6c2.5-3.4,16.3-3.9,20.8-4c0.5,0,0.8,0,1.1,0c0.6,0,1.2-0.5,1.2-1.1
		c0.1-0.5-0.2-1.1-0.9-1.4c-3.2-1-6.5-1.4-9.9-1.4c-4.9,0-9.7,1-14.5,3c-0.8,0.3-1.5,0.8-2.2,1.2c-1.2,0.7-2.4,1.5-3.7,1.6
		c0.8-2.3,3.5-3.5,5.8-4.6c0.4-0.2,0.8-0.4,1.2-0.6c5.7-2.7,12-4.1,18.8-4.1c3.6,0,7.3,0.4,11,1.2c0.1,0,0.2,0,0.3,0
		c0.5,0,0.9-0.3,1-0.7c0.2-0.5,0-1-0.4-1.3c-3.5-2.7-8.6-4.1-14.7-4.1c-5.8,0-12.3,1.3-17.4,3.5c-4,1.7-7.9,3.9-11.4,6.5
		c-0.2,0.2-0.6,0.5-1.1,1c-1.3,1.2-3.8,3.5-5.1,3.5c-0.2,0-0.3-0.1-0.5-0.2c-0.2-0.2-0.3-0.7-0.3-1.3c0-2.5,4.3-5.8,6.5-7.6
		c0.3-0.2,0.5-0.4,0.8-0.6c3.3-2.6,7-4.7,10.9-6.1c5.2-1.9,11.9-3,18.4-3c5.9,0,11.3,0.9,15.5,2.5c0.1,0.1,0.3,0.1,0.4,0.1
		c0.5,0,1-0.4,1.1-0.9c0.1-0.6-0.1-1.1-0.6-1.3c-6-3.2-13.3-4.8-21.1-4.8c-6.3,0-12.6,1.1-18,3.2c-6.5,2.5-12.5,7.1-17.5,13.3
		c-1.4,1.7-3.2,4.3-4.7,7.3c-4.2-9.8-14-19.4-23.5-23c-4.9-1.9-10.8-2.9-17-2.9c-9.4,0-18.6,2.3-25,6.4c-0.5,0.3-0.7,0.9-0.5,1.4
		c0.2,0.5,0.6,0.9,1.1,0.9c0.1,0,0.3,0,0.4-0.1c5.6-2,12-2.4,17.6-2.6c1.8-0.1,3.3-0.1,4.8-0.1c5.8,0,10.4,0.6,14.4,1.8
		c4.1,1.2,8.1,3.8,12,7.6c0.2,0.2,0.4,0.4,0.6,0.5c1.2,1.1,2.6,2.5,2.6,4.1c-0.1,1.4-0.8,1.4-1,1.4c-0.4,0-0.9-0.2-1.5-0.5
		c-0.8-0.4-1.6-0.9-2.3-1.4c-1.8-1.1-3.6-2.2-5.6-3.1c-5.1-2.3-10.9-3.4-17.1-3.4c-7.9,0-16.4,1.8-25.5,5.3c-0.8,0.3-1,1-0.9,1.5
		c0.1,0.5,0.5,1.1,1.3,1.1c0.1,0,0.2,0,0.3,0c6.8-1.4,14.1-2.6,21.2-2.6c6,0,11.2,0.9,15.9,2.7c4.9,1.9,10.5,4.7,10.3,6.6
		c-0.1,0.6-0.4,0.9-1.1,0.9c-1,0-2.4-0.6-3.4-1.1c-0.4-0.2-0.7-0.3-0.9-0.4c-3.4-1.2-6.8-2-10.2-2.4c-1.6-0.2-3.3-0.3-5-0.3
		c-5.3,0-10.3,1-15.1,2.9c-0.8,0.3-1.1,1.1-0.9,1.7c0.1,0.7,0.7,1.1,1.3,1.1c0.1,0,0.3,0,0.4,0c2.9-0.7,6-1,9.2-1
		c3.1,0,6.3,0.3,9.5,0.9c0.5,0.1,1,0.2,1.5,0.3c2.4,0.4,5.4,0.9,7.2,2.1c0.8,0.5,1.2,1.2,1.1,1.8c-0.1,0.7-0.8,1.2-1.8,1.5
		c-1.2,0.3-2.5,0.3-3.8,0.3c-0.9,0-1.8,0-2.6,0.1c-2.5,0.3-4.7,0.7-6.8,1.3c-0.2,0.1-0.4,0.2-0.6,0.3c-3.4-0.6-6.7-1.4-9.9-2.3
		c-1.6-0.4-3.2-0.8-4.8-1.2c-4.4-1.1-9-1.5-13.5-1.9c-0.9-0.1-1.8-0.2-2.7-0.3c-2.1-0.2-4.3-0.6-6.4-0.9c-0.9-0.1-1.8-0.3-2.7-0.4
		c-0.4-0.1-0.9-0.1-1.4-0.2c-1.3-0.2-2.6-0.5-4-0.5c-0.9,0-1.7,0.1-2.5,0.4c-3.1,1.1-4.8,4-6.3,6.9c-0.5,1-1.1,1.9-1.6,2.8l-0.6,0.9
		c-0.7,1-1.5,2.1-2.1,3.3c-2.5-8.5-4.4-17.4-6.4-27.4c-0.4-1.9-2.2-3.1-4.1-2.7s-3.1,2.2-2.7,4.1c3.3,16.3,6.3,29.9,12.3,44
		c15.2,36.6,44.2,62.7,74.9,88.3c15.5,13.5,29.8,28.9,29.8,49.4c0,10.4-6.1,19.6-12,28.5l-0.8,1.2c-1.1,1.6-0.6,3.8,1,4.9
		c0.6,0.4,1.3,0.6,1.9,0.6c1.1,0,2.2-0.5,2.9-1.6l0.8-1.2c6.5-9.7,13.2-19.8,13.2-32.3c0-8.3-2-15.9-5.3-22.7c0.1,0,0.1,0.1,0.2,0.1
		c0.4,0.2,0.8,0.4,1.2,0.6c1.1,0.7,2.2,1.4,3.3,2.1c1.9,1.2,3.9,2.4,5.6,3.8c2.8,2.4,7.7,4.9,11.2,5.7c0.3,0.1,0.7,0.1,1,0.1
		c3,0,5.2-3,7-5.3l0.2-0.3c0.2-0.2,0.3-0.5,0.5-0.9c0.4-0.8,1.1-2.1,1.7-2.1c0.6,0,0.7,2.1,0.7,3.3c0,0.2,0,0.3,0,0.5
		c-2.1,7-2.8,14.6-1.3,22.7l0,0.1c2.3,10.1,6.8,19.5,12.8,26.5l0.1,0.1c10.9,11.5,22.7,21.8,34.2,31.7c5.6,4.8,11.4,9.8,16.9,14.9
		c0.7,0.6,1.5,0.9,2.4,0.9c1,0,1.9-0.4,2.6-1.1c1.3-1.4,1.2-3.6-0.2-4.9C438.6,348.6,432.8,343.6,427.2,338.8z M400.5,213
		c-0.4,1.9-1.9,3.9-4.4,4.3c-0.1,0-0.2,0-0.3,0c-0.1,0-0.3,0-0.4,0c-2.1,0-4-1.2-5.8-2.3c-0.8-0.5-1.6-1-2.4-1.4
		c-0.6-0.3-1.3-0.6-2.1-1c-2.3-1-4.8-2.2-6.3-3.6c-1.5-1.4-0.3-3.1,0.8-4.7c0.2-0.3,0.4-0.6,0.6-0.9c0.2-0.3,0.4-0.7,0.7-1.2
		c0.6-1.2,1.4-2.6,2.4-3.2c0.4-0.2,0.8-0.3,1.3-0.3c2.1,0,4.9,2.2,6.5,3.5c0.3,0.2,0.5,0.4,0.7,0.6c0.5,0.4,1,0.8,1.5,1.2
		c1.7,1.3,3.4,2.7,5.2,3.8C400.1,209,400.9,210.9,400.5,213z M433,191.8c-0.1,0.8-0.1,1.5-0.1,2.3c0,0.5,0,1,0,1.5l0,0.4
		c0,1.8,0.1,3.6-0.9,4.9c-0.9,1.3-2.7,2.5-4.4,3c-0.4,0.1-0.8,0.2-1.3,0.2c-0.8,0-1.6-0.2-2.4-0.3c-0.6-0.1-1.3-0.3-1.9-0.3
		c-2.6-0.2-5.3-0.4-8-0.4c-4.6,0-8.9,0.4-12.8,1.1c-2-1.3-4-2.7-5.9-4c-0.6-0.4-1.2-0.9-1.8-1.3c-0.6-0.4-1.1-0.9-1.8-1.3
		c-2.3-1.8-4.8-3.8-7.5-3.8l-0.1,0c-2.6,0.1-4.1,2.6-5.3,4.7c-0.1,0.2-0.2,0.3-0.3,0.5c0.3-4.3,0.5-9.1-0.1-13.8c0.1,0,0.2,0,0.3,0
		c2,0,8.4-0.7,11.2-1c0.6-0.1,1-0.1,1.2-0.1c0.3,0,0.5,0,0.8,0c3.7,0,6.2,2.8,6.3,7c0,1.5-0.1,3-0.2,4.5c-0.1,1.2-0.2,2.3-0.2,3.5
		c0,0.4,0.1,0.8,0.4,1c0.3,0.3,0.7,0.4,1.1,0.4c0.7,0,1.3-0.4,1.5-1c1.3-3.8,1.9-7.1,2-10.1c0-0.7,0-1.4-0.1-2
		c-0.1-1.2-0.2-2.2,0.3-2.8c0.4-0.5,1.1-0.7,2.3-0.8c0.7,0,1.5-0.1,2.3-0.1c0.9,0,1.8,0,2.7,0c0.7,0,1.5,0,2.2,0l0.1,0
		c0.3,0,0.5,0,0.7,0c0.2,0,0.4,0,0.7,0c0.9,0,1.6,0.1,2.3,0.6c1.7,1.2,2.6,3.3,2.8,6.5c0.2,2.3,0.1,4.3-0.3,6.3
		c-0.3,1.8-0.6,4.1-0.1,4.8c0.1,0.2,0.3,0.2,0.5,0.2c0.3,0,0.5-0.2,0.9-0.5c2.9-2.8,3.2-7.1,3.3-10.9c0-0.5,0-1.1,0-1.7
		c-0.1-2.3-0.2-5,1.8-6.3c1.3-0.9,2.6-1.3,3.8-1.3c2.1,0,3.6,1.3,4,3.7C433.3,187.2,433.1,189.5,433,191.8z M415.1,168.4
		c0,0,0-0.1,0-0.1c0.1-0.6,3.5-2.4,4.8-3.1c0.5-0.3,1-0.5,1.2-0.7c1.4-0.9,3.3-2,4.9-2c1.7,0,2.8,1.2,3.6,3.7
		c1.6,5.2-3.2,10-7.8,12.5c-0.4,0.2-0.8,0.4-1.1,0.4c-0.4,0-0.9-0.2-1.3-1.7l-0.1-0.4c-0.8-2.5-1.5-4.8-3.1-7
		c-0.1-0.2-0.3-0.4-0.4-0.5C415.4,169.1,415.1,168.8,415.1,168.4z M459,151.5c-1.4,1.9-3.4,3.1-5.5,4.3c-0.9,0.5-1.8,1.1-2.6,1.7
		c-0.6,0.5-1.5,1.2-2.6,2c-3.5,2.8-8.8,7.1-11.8,7.1c-0.4,0-0.8-0.1-1-0.3c-2.2-1.3-4.7-6-3.4-8.4c1.1-2,6.7-5.1,8.8-5.6
		c0.4-0.1,0.7-0.2,1-0.2c1.4,0,1.8,1.1,2.2,2.4c0.4,1,0.7,2.1,1.6,2.6c0.2,0.1,0.4,0.2,0.6,0.2c0.2,0,0.4-0.1,0.6-0.3
		c0.6-0.6,0.7-2.5,0.6-4.1l0-0.3c0-0.3,0-0.6,0-0.9c0-2.1-0.1-3.7,1.9-5.1c0.4-0.3,0.9-0.7,1.5-1.2c1.7-1.4,4-3.3,5.9-3.3
		c0.5,0,1,0.1,1.4,0.4c1.2,0.8,1.6,2.1,1.8,3.1C460.4,147.8,460,150.2,459,151.5z M466.1,135.9c1.7-1,2.9-1.4,3.8-1.4
		c0.2,0,0.4,0,0.6,0.1c0.2,0,0.3,0.1,0.4,0.2c1.9,1,2,3.8,2.2,5.7l0,0.4c0.1,1.5-0.6,3.2-1.8,4.5c-1.1,1.2-2.5,1.9-3.7,1.9
		c-1,0-1.9-0.5-2.6-1.4c-1.7-2.2-2.5-4.3-2.1-6.1C463.2,138.3,464.3,137,466.1,135.9z M445.7,116.8c0.2,0,0.4,0,0.5,0
		c3,0.4,5.7,2.7,8.1,4.8c0.6,0.5,1.1,0.9,1.6,1.4c0.8,0.6,1.7,1.2,2.6,1.8c1.7,1.1,3.4,2.2,4.6,3.8c0.4,0.6,0.7,1.2,0.7,1.7
		c0.2,2-2.5,3.2-4.8,4.3c-0.8,0.4-1.6,0.8-2.2,1.2c-1.6,1-3.2,2.2-4.7,3.3c-2.5,1.8-5.1,3.7-7.9,5.1c-1.6,0.8-3,1.8-4.3,2.8
		c-1.3,1-2.6,1.9-4,2.7c-3.1,1.6-5.3,3-7.5,4.9c-2.5,2.1-5.2,4.1-7.6,5.5c-0.3,0.2-0.7,0.4-1.1,0.7c-1.1,0.8-2.4,1.6-3.4,1.6
		c-1.4,0-1.6-1.3-1.8-3.3c-0.1-0.6-0.1-1.2-0.2-1.7c-0.9-3.5-2.3-6.8-3.7-10c-0.4-0.9-0.8-1.8-1.2-2.8c-1.3-3,0.1-5.8,3.7-7.4
		c2.9-1.3,5.5-3.1,8.1-4.8c0.9-0.6,1.8-1.2,2.8-1.8c2.2-1.4,4.4-2.9,6.5-4.3c2.2-1.5,4.4-3,6.6-4.4c0.7-0.4,1.4-1,2.2-1.6
		C441.3,118.5,443.5,116.8,445.7,116.8z M403.9,117.2c0-0.2,0.1-0.4,0.2-0.6c0.4-1.2,1.1-1.7,2-1.7c0.8,0,1.8,0.5,2.8,1.3
		c2.6,2.2,3.3,6.3,3.7,9.6l0,0.3c0.1,0.6,0.6,1.1,1.2,1.1c0.7,0,1.5-0.5,1.6-1.4c0.4-4.6-0.7-11.1-3.7-15l0.3-0.1
		c0.2-0.1,0.4-0.2,0.7-0.3c0.7-0.4,1.3-0.8,2-1.2c2.3-1.4,4.6-2.8,7.1-2.8c0.4,0,0.8,0,1.2,0.1c4.8,0.9,5.7,5.8,6,10.4
		c0,0.8,0.7,1.3,1.3,1.3c0.4,0,0.9-0.2,1.1-0.6c2.2-3,1.1-6.3,0-9.5c-0.5-1.5-1-2.9-1.1-4.2c-0.2-1.5,0.5-3.6,1.6-4.9
		c0.4-0.5,1.2-1.1,2.1-1.1c0.7,0,1.5,0.4,2.2,1.2c1.5,1.6,2.2,3.7,2.8,5.7l0.1,0.4c2.3,7.2-1.6,10-8.4,13.8
		c-1.9,1.1-3.8,2.5-5.6,3.8c-1.3,1-2.6,1.9-4,2.8c-0.8,0.5-1.5,1.1-2.2,1.7c-1,0.8-2.1,1.7-3.3,2.3l-0.5,0.3c-2.3,1.1-4.3,2.1-6,2.1
		c-1.8,0-3-1.2-3.8-3.9C404.2,124.5,403.1,120.3,403.9,117.2z M361.6,114.2c0.2-0.4,1-0.6,2.2-0.6c1.7,0,3.8,0.4,5.5,0.7
		c1,0.2,1.8,0.3,2.2,0.4c1.7,0.1,3.6,0.3,5.8,0.8c1.9,0.4,3.9,0.9,5.8,1.4c1.2,0.3,2.4,0.6,3.5,0.9c0.6,0.2,1.4,0.2,2.2,0.3
		c1.8,0.2,3.8,0.4,4.6,1.4c1.3,1.7,2.2,4,3,6.2c0.3,0.7,0.6,1.4,0.8,2.1c1.7,4.1,3.1,8.8,4,13.7c0.6,3.5,1.6,6.7,2.6,10.1
		c0.3,1,0.6,2,0.9,3c0.3,1,0.7,1.9,1,2.8c0.5,1.2,1,2.5,1.3,4c0.1,0.7,0.4,2.4,0,3c-0.2,0.2-0.5,0.3-1,0.3c-0.4,0-1-0.1-1.4-0.2
		c-0.3,0-0.5-0.1-0.7-0.1c-2.7-0.4-5.4-0.9-8.1-1.5c-2.9-0.6-5.8-1.2-8.8-1.6c-0.7-0.1-1.5-0.1-2.2-0.1c-2.3,0-4.4-0.1-5.7-1.9
		c-0.8-1.1-1.2-2.5-1.6-3.8c-0.2-0.7-0.5-1.5-0.8-2.2c-0.7-1.6-1.4-3.3-2-4.9c-0.8-2-1.7-4-2.5-6c-0.7-1.7-1.4-3.4-2.2-5
		c-1.9-4.4-3.9-8.9-5.1-13.6c-0.2-0.6-0.6-1.6-1.2-2.8C362.6,118.5,361,115.2,361.6,114.2z M354.5,135.6c3.3-3.7,6.1,6.6,6.8,8.4
		c1.9,4.5,3.8,9.1,5.9,13.5c0.2,0.4,0.5,0.6,0.9,0.6c0.4,0,0.8-0.2,1-0.6c0.2-0.4,0.3-0.8,0.1-1.2c-2.1-4.7-3.9-9.6-5.6-14.4
		c-1.1-2.9-2.2-5.8-3.3-8.7c-0.5-1.2-0.9-2.3-1.4-3.5c-0.9-2.2-1.8-4.4-2.6-6.6c-0.1-0.2-0.2-0.5-0.3-0.8c-0.2-0.6-0.5-1.3-0.8-2.1
		c-0.4-1.1-0.7-2.4-0.8-3.3c0-0.4,0.1-0.8,0.2-1c0.3-0.6,0.6-0.8,0.9-0.8c0.5,0,1.4,0.7,2.8,4.1l0,0.1c1.4,3.4,2.8,6.9,4.3,10.6
		c2.5,6.4,5.1,13.1,7.8,20.6c0.2,0.6,0.4,1.1,0.6,1.7c0.8,2.2,1.6,4.5,2.7,6.6c0.3,0.5,0.5,1.1,0.7,1.7c0.6,1.7,1.3,3.4,3.1,4
		c2.4,0.8,5.9,1.4,9.5,1.8c2,0.2,4.1,0.6,6.1,0.9c1.7,0.3,3.4,0.6,5.1,0.8c0.3,0,0.8,0.1,1.4,0.1c2.1,0.1,6,0.3,6.5,1.9
		c0.1,0.3,0.1,0.5-0.1,0.7c-0.3,0.4-1.1,0.8-3.5,0.8c-1.9,0-5.5-0.3-11.8-1.6l-0.2,0c-0.8-0.2-1.6-0.4-2.6-0.6
		c-2.2-0.6-4.7-1.2-7.1-1.2c-1.6,0-3,0.3-4,0.9c-0.3,0.2-0.5,0.5-0.5,0.9c0,0.3,0.2,0.6,0.5,0.8c2.5,1.2,5.6,1.7,8.6,2.2
		c1.1,0.2,8.5,1,5.5,3.6c-1.3,1.1-4.5-0.6-5.9-1c0,0-0.8-0.2-0.8-0.2c-0.9-0.2-1.9-0.5-2.9-0.8c-3.1-0.9-6.6-1.8-9.8-1.8
		c-0.8,0-1.5,0.1-2.2,0.2c0-0.2,0-0.4-0.1-0.6c-1.8-5.2-4.3-10.2-6.6-15.1c-2.1-4.3-4.2-8.8-5.9-13.3
		C356.1,141.8,352.7,137.6,354.5,135.6z M338.2,141.9c0.3,0,0.7-0.1,1.1-0.1c0.7,0,1.5,0.1,2.2,0.2c0.7,0.1,1.4,0.1,2.1,0.2l0.1,0
		c0.6,0,1.2-0.1,1.9-0.1c0.8-0.1,1.6-0.1,2.3-0.1c1.5,0,2.5,0.3,3.1,0.8c1.1,1,1.5,3,1.8,4.7c0.1,0.5,0.2,0.9,0.3,1.3
		c0.2,0.8,0.5,1.6,0.9,2.4c0.5,1.3,1.1,2.6,1,3.8c-0.1,1.8-2.3,3.5-4.1,4.9c-0.7,0.5-1.3,1-1.8,1.5c-1,1-2.2,2-3.3,2.9
		c-1.3,1.1-2.6,2.2-3.8,3.4c-0.3,0.3-0.5,0.6-0.8,0.9c-0.5,0.7-1,1.3-1.7,1.5c-0.3,0.1-0.6,0.1-0.9,0.1c-0.3,0-0.6,0-0.9-0.1
		c-0.3,0-0.6-0.1-0.9-0.1c-0.2,0-0.3,0-0.5,0c-1.4,0.2-2.1,0.8-2.8,1.6c-0.2,0.3-0.5,0.5-0.8,0.8c-0.9,0.8-1.6,1-2.9,1.3
		c-0.8,0.2-1.7,0.2-2.6,0.2c-1.9,0-3.8-0.3-5.7-0.6l-0.6-0.1c-2-0.3-4.2-0.5-6.7-0.5c-2.2,0-4.4,0.1-6.7,0.2l-1.9,0.1
		c-3.5,0.2-7.2,0.4-10.8,0.4c-0.4,0-0.9,0-1.3,0l-1.3,0c-1.1,0-4.4,0-4.8-1.4c-0.3-1.1,1.5-2.2,2.5-2.9c0.2-0.1,0.3-0.2,0.4-0.3
		c1.2-0.8,2.5-1.4,3.7-2l0.2-0.1c1.2-0.6,2.2-1.1,3.2-1.7c2.5-1.6,5.2-3.1,7.7-4.5c2.7-1.5,5.6-3.1,8.3-4.9c1.9-1.2,3.7-2.5,5.5-3.7
		c2.8-1.9,5.6-3.9,8.6-5.6c0.4-0.2,0.9-0.5,1.3-0.7C331.9,144.1,334.9,142.4,338.2,141.9z M246.7,124.3c-1.3-4.2,0-10,4.9-10.9
		c0.6-0.1,1.3-0.2,2-0.2c1.8,0,3.7,0.4,5.6,0.7c1.1,0.2,2.3,0.4,3.3,0.6c2,0.2,4,0.5,6,0.8c2.6,0.4,5.3,0.8,8,1
		c1.4,0.2,6.9,0.3,6.7,2.7c-0.2,2.1-3,1.1-4.3,0.9c-4-0.6-9.2-1.3-14.5-1.4c-0.2,0-0.4,0-0.7,0c-0.4,0-0.8-0.1-1.3-0.1
		c-1,0-2.3,0.1-2.7,1.1c-0.3,0.8-0.2,1.4,0.1,2c1.1,1.7,4.9,1.8,7,1.8c0.3,0,0.6,0,0.8,0c3.8,0.3,7.7,0.5,11.6,1.2
		c3.3,0.6,6.6,1.3,9.8,2c1.5,0.3,3.5,2.3,2.4,3.9c-0.7,0.9-6,0.7-7.3,1.3c-0.4,0.2-0.7,0.6-0.7,1c-0.1,0.5,0.1,1.1,0.4,1.5
		c0.3,0.3,0.7,0.5,1.2,0.5c0.4,0,0.7-0.1,1.1-0.1c0.2,0,0.5-0.1,0.7-0.1c0.1,0,0.2,0,0.3,0c1.1,0,1.8,0.3,1.9,0.7
		c0.1,0.3-0.3,1-1.6,1.7c-1,0.5-2,0.8-3.3,0.8c-0.9,0-1.9-0.1-2.9-0.3c-0.6-0.1-1.1-0.2-1.7-0.2l-3.9-0.4
		c-6.2-0.6-12.6-2.1-18.7-0.8c-1.4,0.3-2.6,1-3.5,0.4c-0.4-0.2-0.7-0.7-1-1.6c-0.6-2.2,1-3.6,3.1-3.8c1.3-0.1,2.6,0.4,3.9,0.4
		c2.1,0.1,4.2,0.2,6.3,0.2c2,0,4.1,0.5,6.1,0.8c1.3,0.2,7,1.2,5.6-1.2c-1.4-2.4-7.1-3.1-9.5-3.3c-3.8-0.4-8.5-2.3-12.1-2.3
		C251.6,125.9,248.7,130.7,246.7,124.3z M255.7,159.5c-1.4-2.1-2.7-4.3-3.9-6.5c0.7-0.8,1.2-2.6,1.7-4.5c0.1-0.4,0.2-0.8,0.3-1
		c0.7-2.3,1.5-4.5,2.8-6.2c0.8-1.1,2-1.6,3.8-1.6c1.5,0,3.2,0.4,4.8,0.7c0.9,0.2,1.7,0.4,2.4,0.5c2.3,0.3,4.7,0.4,6.9,0.4
		c1.7,0,3.4,0.1,5.1,0.2c-1.3,0.6-2.9,1.9-4.1,2.9c-0.5,0.4-1,0.8-1.4,1c-1,0.7-2,1.5-3,2.2c-1.5,1.2-3.1,2.4-4.8,3.4
		C261.6,153.7,258.8,155.6,255.7,159.5z M278.8,169.1c-0.3,0-0.5,0-0.7-0.1c-1.1-0.3-1.8-1.7-2.5-3c-0.4-0.7-0.7-1.3-1.1-1.8
		c-0.4-0.6-1.2-1.2-2.1-2c-2-1.7-4.5-3.9-4.2-5.6c0.1-0.7,0.8-1.4,2.1-1.9c0.6-0.3,1.3-0.4,1.9-0.4c2.3,0,4,1.9,5,3.4
		c0.1,0.2,0.2,0.3,0.3,0.6c0.7,1.2,1.8,3,3.1,3c0.4,0,0.7-0.1,1.1-0.4c1.5-1.2-0.2-4.4-1.3-6.5c-0.3-0.5-0.5-0.9-0.6-1.2
		c-1.9-4.6,6.4-8.5,11.8-11.1c1.7-0.8,3.2-1.5,4.1-2.1c1.9-1.3,4.1-2.4,6.2-3.5c0.8-0.4,1.5-0.8,2.3-1.2c1.7-0.9,3.5-1.7,5.1-1.7
		c1.4,0,2.5,0.6,3.3,2c0.1,0.2,0.3,0.5,0.5,0.9c1.1,2.3,2.2,4.6,3.4,4.6c0.2,0,0.3,0,0.5-0.1l0.1-0.1l0-0.1c0.1-0.4,0.2-0.9,0.3-1.3
		c0.4-1.8,0.9-3.7,0.3-5.5c-0.2-0.5-0.4-1-0.6-1.4c-0.5-1-0.9-1.8-0.2-2.8c0.7-1,2.1-1.6,3.4-2.1c0.4-0.1,0.7-0.3,1-0.4
		c1.6-0.7,2.8-1.1,3.9-1.1c1.6,0,3,0.7,4.5,2.2c1.6,1.5,2.6,3.8,2.6,5.8c0,1.4-0.5,2.6-1.5,3.5c-1.3,1.2-2.9,2.1-4.5,2.9
		c-0.9,0.5-1.9,1-2.8,1.5c-1.7,1.1-3.4,2.3-5.1,3.4c-1.9,1.3-3.9,2.6-5.9,3.9c-1.6,1-3.3,2.1-5.5,3.5c-2.5,1.6-5.1,3.1-7.6,4.6
		c-2.1,1.2-4.2,2.4-6.3,3.7l-1.7,1.1c-2.2,1.4-4.5,2.8-6.7,4.3c-2.4,1.7-4.3,2.6-5.7,2.7C278.9,169.1,278.9,169.1,278.8,169.1z
		 M308.1,191.8c-1.1-0.1-2.2-0.1-3.3-0.2l-1.3,0c-1.3,0-14.1,0.2-10.4-4.1c2.3-2.7,9.2-1.5,12.4-2.3c0.6-0.2,1-0.7,0.9-1.3
		c0-0.6-0.4-1-0.9-1.1c-3.4-0.7-6.8-0.7-10.1-0.7c-1.8,0-3.7,0-5.6-0.1c-1.8-0.1-6.4-1.2-7.2-2.8c-0.2-0.4-0.1-0.8,0.2-1.3
		c0.5-0.8,1.4-1.1,2.6-1.1c0.9,0,1.9,0.2,2.7,0.4c0.4,0.1,0.9,0.2,1.2,0.2c2.6,0.4,5.3,0.5,8.6,0.5c2.5,0,5.1-0.1,7.5-0.2l2.1-0.1
		c1.2,0,2.3-0.1,3.4-0.1c4.4,0,8.7,0.3,12.9,1c0.4,0.1,0.8,0.1,1.2,0.1c0.9,0,1.9,0.1,2.2,0.5c0.1,0.2,0.1,0.5,0,0.9
		c-0.3,0.8-1.3,1.2-2.3,1.5c-1,0.3-2.1,0.3-2.9,0.3c-0.4,0-0.9,0-1.3,0c-0.4,0-0.9,0-1.3,0c-0.3,0-0.6,0-0.9,0c-0.4,0-0.8,0-1.2,0
		c-1.5,0-3.1,0.1-4.6,0.5c-0.6,0.2-0.9,0.7-0.9,1.2c0,0.6,0.4,1.1,0.9,1.2c2.5,0.8,8.8-0.2,6.6,4.3c-0.9,1.9-4.8,3.1-6.6,3.1
		C311.2,192,309.6,191.9,308.1,191.8z M318.6,211.4c-0.7,1-1.7,2.3-2.8,2.4c-0.4,0-0.5-0.7-0.5-1.3c0-1.8,2.1-4,3.6-5.6
		c0.4-0.4,0.8-0.8,1.1-1.2c1.4-1.6,2.8-3.3,4.3-4.9c0.8-0.9,1.5-1.7,2.3-2.6c4-4.5,8.5-9.9,12.1-15.8c0.2-0.4,0.2-0.9,0-1.4
		c-0.3-0.5-0.7-0.8-1.2-0.8c-0.3,0-0.5,0.1-0.7,0.2c-3.5,2.5-6.1,6.4-8.6,10.2c-0.9,1.4-1.8,2.6-2.6,3.9c-0.8,1.1-5,7.7-5.1,2.1
		c0-1.2,3.1-4.1,3.8-5.1l1.7-2.3c1.1-1.5,2.2-3.1,3.2-4.7c0.8-1.2,1.5-2.3,2.3-3.5c0.3-0.5,0.6-0.9,1-1.5c1.4-2.2,3-4.6,5.4-5.3
		c0.5-0.1,1-0.2,1.7-0.2c0.7,0,1.5,0.1,2.3,0.2c0.6,0.1,1.3,0.1,1.9,0.1c0.9,0,1.8,0,2.7,0c2.1,0,4.9-0.4,6.5,1.1
		c-1.1,1.4-3.3,1.9-5,2.1c-5.2,0.6-5.6,1.4-5.7,1.7c-0.1,0.2-0.1,0.5,0.2,0.8c0.4,0.5,1,0.7,1.8,0.7c0.4,0,0.8-0.1,1.2-0.1
		c0.3,0,0.6-0.1,0.9-0.1c0.3,0,0.6,0,0.9,0c1.4,0,2.9,0.1,4.3,0.2c0.7,0,1.4,0.1,2,0.1c4.5,0.2,5.3,4.1,0.2,3.9c-0.3,0-0.7,0-1,0
		c-1.2,0-2.3,0.1-3.4,0.1c-0.6,0-1.2,0.1-1.9,0.1c-0.4,0-0.9,0-1.3,0c-2,0-3.8,0.1-5.6,1.3c-1.9,1.3-3.9,3.1-5.4,5
		c-1,1.2-2.1,2.4-3.2,3.5c-0.9,0.9-1.8,1.9-2.7,2.9c-1.2,1.5-2.4,3.1-3.5,4.6c-0.8,1.1-1.7,2.3-2.6,3.4c-0.6,0.8-1.3,1.6-2,2.3
		c-0.7,0.8-1.5,1.7-2.2,2.5C318.9,211,318.7,211.2,318.6,211.4z M345.7,218.2c-0.4,0-0.8,0-1.2,0c-0.4,0-0.8,0-1.2,0
		c-0.2,0-0.5,0-0.7,0c-1.6,0-3.2,0.1-4.8,0.1c-2.8,0-5.2-0.1-7.3-0.3c-1.1-0.1-2.1-0.3-3.2-0.4c-1.3-0.2-2.6-0.4-3.9-0.5
		c-0.3,0-0.6,0-0.9,0c-0.7,0-1.2,0-1.5-0.3c-0.2-0.2-0.2-0.5-0.2-0.9c0.1-1.4,1.4-2.8,2.6-4c0.6-0.6,1.2-1.2,1.6-1.8
		c1.8-2.6,3.6-4.8,5.6-6.9c1.2-1.3,2.3-2.7,3.3-4.1c0.8-1,1.6-2.1,2.4-3.1l0.2-0.2c1.7-1.9,3.6-4.1,5.9-5.1c1.7-0.7,4-0.8,5.9-0.8
		l1.8,0c0.7,0,1.3,0,2,0c1.2-0.1,2.4-0.2,3.6-0.3c2-0.2,4.1-0.4,6.2-0.4c0.9,0,1.7,0,2.4,0.1c0.1,0,0.3,0,0.5,0
		c0.6,0,1.4,0.1,1.8,0.4c1.8,1.3-2.5,8.6-4.2,11.4c-0.3,0.5-0.5,0.9-0.7,1.2c-1.2,2.2-2.6,4.2-4,6.2c-0.6,0.8-1.2,1.7-1.7,2.5
		c-0.4,0.6-0.7,1.1-1,1.7c-1.1,1.9-2.2,3.7-4.2,4.6C349.3,218.1,347.4,218.2,345.7,218.2z M370.7,258.7c-0.7,1.4-2,2.5-3.3,2.9
		c-0.3,0.1-0.6,0.1-0.8,0.1c-0.3,0-0.6,0-1-0.1c-2.1-0.5-4.1-1.7-6-2.8c-0.4-0.2-0.8-0.5-1.2-0.7c-2.5-1.4-5-2.9-7.4-4.5
		c-1.4-0.9-1.7-1.7-1.4-3.2c0.2-0.8,4-7,4.8-7.6c3.3,1.9,6.3,4,9.4,6.7c0.7,0.6,1.5,1.1,2.3,1.7c1.9,1.3,3.8,2.7,4.7,4.5
		C371.3,256.6,371.2,257.6,370.7,258.7z M378.2,245.9c-1.1,1.7-3.4,3.5-5.6,3.5c-0.4,0-0.7,0-1.1-0.1c-2.3-0.7-4.3-2.3-6.2-3.9
		c-0.4-0.3-0.7-0.6-1.1-0.9c-0.6-0.5-1.3-0.9-1.9-1.3c-2-1.3-4.1-2.6-3.9-5.1c0.1-1.7,1.3-3.4,2.3-4.9c0.3-0.4,0.6-0.9,0.9-1.3
		c1.5-2.4,3-4.8,4.6-7.2c0.7-1.1,1.4-2.3,2.1-3.5c1.2-2.1,2.4-4.3,4.1-6.2c1.4-1.6,2.8-2.3,4.2-2.3c1.9,0,3.8,1.2,6,2.6
		c0.5,0.3,1,0.7,1.6,1c3.3,2,6.4,4.3,7.4,7.3c0.5,1.7-0.1,2.4-1,3.5c-0.3,0.3-0.5,0.6-0.8,1c-1.7,2.2-3.3,4.6-4.9,6.9l-0.3,0.4
		c-1.3,1.9-2.4,3.9-3.6,5.9C380.1,242.8,379.2,244.4,378.2,245.9z"/>
	<path d="M350.8,381.2c1.9-0.4,4.2-0.9,4.9-2.9c0.3-0.8,0.3-1.4,0.1-1.7c-0.2-0.2-0.4-0.4-0.8-0.4c-0.7,0-1.7,0.4-2.4,0.8
		c-0.2,0.1-0.5,0.2-0.7,0.3c-0.5,0.2-1,0.4-1.7,0.6c-0.4,0.1-0.8,0.2-1.1,0.3c-2.1,0.6-4,1.1-6,3.2c-1.1,1.1-2.3,2.3-3.9,2.7
		c-0.2,0.1-0.5,0.1-0.8,0.1c-0.9,0.1-2,0.2-2.3,1.4c-0.1,0.5-0.1,0.9,0.2,1.2c0.3,0.4,0.9,0.7,1.8,0.8c0.1,0,0.3,0,0.5,0
		c2,0,4.7-1.2,6.1-2.4c0.6-0.5,1.1-0.9,1.5-1.4c1.1-1.1,2.1-2,3.7-2.4C350.2,381.4,350.5,381.3,350.8,381.2z"/>
	<path d="M317.7,329.5c1.5-1.3,1.6-3.5,0.4-4.9c-1.3-1.5-3.5-1.6-4.9-0.4c-2.9,2.5-6.7,5.7-10.5,9.1c-26.8,23.5-56,52.9-69.3,92.8
		c-0.6,1.8,0.4,3.8,2.2,4.4c0.4,0.1,0.7,0.2,1.1,0.2c1.5,0,2.8-0.9,3.3-2.4c12.8-38.3,41.2-66.9,67.3-89.7
		C311,335.2,314.8,331.9,317.7,329.5z"/>
	<path d="M369.5,368.3c-0.3-0.4-0.5-0.7-0.7-1.1c-0.5-1.3-0.3-2.2,0-3.4c0.7-2.9,0.3-4-1.4-6.4c-0.4-0.5-0.7-1.2-1-1.9
		c-0.4-0.9-0.9-1.8-1.6-2.5c-0.3-0.3-0.6-0.5-0.8-0.7c-0.2-0.1-0.5-0.2-0.7-0.2c-0.3,0-0.5,0.1-0.7,0.3c-0.3,0.3-0.5,0.9-0.4,1.6
		c0,1.5,0.9,2.7,1.7,3.9c0.6,0.9,1.3,1.8,1.5,2.8c0.2,0.9-0.1,1.7-0.4,2.5c-0.2,0.7-0.5,1.3-0.5,2.1c0,1.9,1.8,4.1,3.3,5.6
		c0.5,0.5,1.3,1,1.9,1c0.3,0,0.5-0.1,0.7-0.3c0.3-0.3,0.3-0.8,0.2-1.5C370.3,369.4,369.9,368.8,369.5,368.3z"/>
	<path d="M402.7,338.8l-0.3-0.2c-2.7-2-5.4-4.1-8-6.2c-3-2.4-6.1-5-9.4-7.2c-6.7-4.6-12.8-8.7-19.2-12.1l-0.2-0.2
		c-2-1.2-4.9-3.1-7.5-3.1c-0.5,0-0.9,0.1-1.3,0.2c-3.1,0.9-3.1,6.2-3,10c0,1,0,1.8,0,2.5l-0.1,1.1c-0.2,2.7-0.5,6,0,8.7
		c-0.5-0.4-1.2-0.8-2.1-1.3c-0.4-0.2-0.7-0.4-0.9-0.5l-2.5-1.7c-3.5-2.4-7.1-4.8-10.8-7.1c-0.2-0.1-0.5-0.3-0.8-0.6
		c-1-0.8-2.5-1.8-3.6-1.8c-0.2,0-0.5,0-0.7,0.1c-2.2,1-0.5,5.7,0.5,8.1c0.1,0.4,0.3,0.7,0.3,1c0.2,0.7,0.4,1.3,0.7,2
		c0.5,1.5,1,3,1.3,4.7c0.4,2.1,1.1,4,1.7,5.8c0.3,0.9,0.7,1.8,1,2.8c0.7,2.2,1.5,4.7,2.5,7.5c0.1,0.4,0.3,0.8,0.5,1.2
		c0.9,2.2,1.9,4.8,0.1,6.1c-1.4,1-3.3,1.7-5.2,2.4c-1.1,0.4-2.2,0.8-3.1,1.2l-1.4,0.7c-2.3,1.1-4.8,2.3-7.2,3.3
		c-2.3,0.9-4.7,1.6-7,2.3c-2.3,0.7-4.7,1.4-7,2.4c-0.2,0.1-0.5,0.2-0.8,0.3c-2.1,0.7-4.1,1.5-4.3,2.6c-0.1,0.9,0.8,1.7,1.7,2.4
		c-0.5,0.1-0.9,0.3-1.2,0.7c-0.4,0.5-0.5,1.1-0.4,1.8c0.4,1.5,1.4,3.2,2.3,4.6c-0.9-0.6-2-1.2-2.9-1.2c-0.1,0-0.2,0-0.4,0
		c-0.6,0.1-1,0.4-1.2,0.9c-0.4,1.1,0.7,2.8,1.6,3.9c1.8,2.3,4.1,4.1,6.4,5.8c0.9,0.7,1.8,1.3,2.6,2c2.8,2.3,5.6,4.5,8.4,6.6
		c4.5,3.5,9.1,7.1,13.5,11c1.2,1,2.2,2.2,3.2,3.3c0.8,0.9,1.6,1.8,2.5,2.6c0.6,0.6,1.3,1.1,1.9,1.5c0.4,0.3,0.7,0.5,1.1,0.8
		c0.4,0.3,0.7,0.7,1.1,1c0.5,0.5,1,1.1,1.7,1.5c0.8,0.5,1.6,0.7,2.5,0.7h0c2.5,0,4.9-1.7,6.8-3.2l0.4-0.3c4-2.9,7.8-6.1,11.7-9.4
		c3.4-2.9,6.7-5.4,10-7.6c0.9-0.6,2-1.2,2.9-1.8c2.3-1.3,4.7-2.7,6.6-4.7c1.8-2,2.6-4.8,3.3-7.3c0.2-0.6,0.3-1.1,0.5-1.7
		c0.9-2.7,1.6-5.6,2.2-8.4c0.8-3.3,1.6-6.7,2.7-10c1.9-5.4,4-11,6.9-17.7c0.3-0.7,0.6-1.3,1-2c0.6-1.1,1.2-2.3,1.5-3.5
		c0.2-0.7,0.3-1.3,0.4-1.9C406.8,341.7,404.8,340.2,402.7,338.8z M378,393.3c-0.2,0.7-0.8,1.5-1.8,2.4c-1.4,1.3-3.4,2.5-5,3.5
		c-0.8,0.5-1.4,0.9-2,1.3c-1.1,0.8-2.2,1.6-3.2,2.4c-1.1,0.8-2.2,1.7-3.3,2.5c-0.9,0.6-1.7,1-2.6,1.5c-0.3,0.2-0.7,0.3-1,0.5
		c-0.6,0.3-1.1,0.7-1.6,1.1c-1,0.7-1.9,1.5-3.1,1.5l-0.1,0c-1.8-0.1-3.3-1.4-4.6-2.8c-2.2-2.2-4.6-4.1-7-5.9
		c-0.7-0.6-1.4-1.1-2.2-1.7l-0.5-0.4c-4.8-3.8-9.3-7.3-13.5-11.7c-1.7-1.8-3.6-3.6-5.4-5.4c-0.9-0.9-1.7-1.7-2.6-2.6
		c-0.3-0.3-0.7-0.6-1.1-0.9c-1.1-0.9-2.5-2-2.5-3.1c-0.1-1.8,3.1-2.5,5.1-3c0.7-0.2,1.3-0.3,1.7-0.4c4.5-1.6,8.9-3.8,13.2-5.9
		l1.9-0.9c1.9-0.9,4.1-1.9,6.5-2.2c0.3,0,0.6-0.1,0.9-0.1c1.8,0,2.9,0.7,4.7,2.1c4,2.9,7.8,6.4,11.4,9.8c1.6,1.4,3.1,2.9,4.7,4.2
		c0.9,0.8,1.8,1.6,2.6,2.4c1.6,1.4,3.2,2.9,4.9,4.3l0.5,0.4C375.1,387.9,378.8,390.8,378,393.3z M369.4,376.7
		c-1.5-1.2-3-2.4-4.4-3.6c-2.3-2-4.6-3.9-6.9-5.9c-1.7-1.4-3.3-2.9-5-4.3l-0.9-0.8c-5.3-4.5-7.4-12-9-18.8
		c-1.1-4.5-2.8-8.9-3.7-13.3c6.3,3.8,12.3,8.2,18.1,12.6c2.6,1.9,5.8,3.1,8.5,4.8c6.5,4.2,8.5,14.7,10.1,21.8
		c0.6,2.6,1.1,5.3,1.5,7.9c0.5,2.7,1,5.6,1.6,8.3C376.3,382.3,372.8,379.4,369.4,376.7z M398.1,349.6c-0.1,0.3-0.1,0.5-0.2,0.6
		c-0.7,2.8-1.6,5.4-3,8.4c-0.4,0.9-0.8,1.8-1.1,2.9c-0.5,1.4-0.8,2.9-1.2,4.4c-0.4,1.4-0.8,2.9-1.2,4.3c-0.6,1.8-1.2,3.7-1.8,5.5
		c-0.6,1.7-1.2,3.4-1.7,5.1c-0.1,0.4-0.3,1-0.4,1.6c-0.5,1.8-0.8,4.2-2,5.5c-2.6-2.6-2-7.3-2.5-10.7c-1.3-7.7-1.9-15.4-3-23.1
		c-0.7-4.5-2.3-6.1-6.1-8.6c-3.8-2.5-8.3-3.8-11.9-6.7c-4.3-3.6-4-17-1.7-21.7c-0.8,1.6,34.5,24.8,38.3,26.9
		C399.4,344.7,398.4,348.4,398.1,349.6z"/>
	<path d="M390.1,347.7c-0.5,0-1.1,0.2-1.9,0.6c-4.1,2.3-4.3,6.6-4.2,9.7c0,0.6,0.1,1.2,0.2,1.8c0.1,1.1,0.2,2.3,0.2,3.4l0,0.2
		c0,0.5-0.1,0.9-0.2,1.4c-0.3,1.5-0.6,3,0.2,4.5c0.3,0.6,0.7,0.8,1,0.8c1,0,1.6-1.8,1.8-2.6c0.3-1.2,0.3-2.2,0.2-3.4l0-0.5
		c-0.1-3,0-5.3,0.3-7.1c0.2-1.2,1.1-2.4,2-3.5c0.2-0.2,0.3-0.4,0.5-0.7c0.9-1.2,1.5-3.1,1-4C391.1,348.1,390.8,347.7,390.1,347.7z"
		/>
	<path d="M358.8,386.6c-1.7,0-3.8,0.6-4.5,1c-1.2,0.7-2,1.7-2.8,2.6c-0.2,0.3-0.4,0.5-0.6,0.8c-0.5,0.5-1,1-1.6,1.4
		c-0.6,0.4-1.2,0.9-1.7,1.5c-0.3,0.4-0.5,0.8-0.4,1.1c0.1,0.3,0.4,0.6,0.9,0.8c0.5,0.2,1.1,0.3,1.6,0.3c2.1,0,3.3-1.7,4.4-3.4
		c0.9-1.3,1.7-2.5,2.9-2.9c0.1,0,0.4-0.1,0.7-0.1c1.7-0.3,3.2-0.6,3.4-1.4c0.1-0.4-0.1-0.8-0.6-1.2
		C360.3,386.8,359.7,386.6,358.8,386.6z"/>
	<path d="M340.3,373c3.8-1.5,6.1-2.6,6-3.6c-0.1-0.5-0.6-0.8-1.8-0.9l-0.1,0c-0.6-0.1-1.1-0.1-1.7-0.1c-2.3,0-4.3,0.5-5.7,1.3
		c-1.3,0.8-2.5,1.9-3.6,3c-1,1-2,2-3.2,2.7c-0.4,0.2-0.8,0.4-1.3,0.7c-1.2,0.5-2.6,1.2-3.1,2.4c-0.2,0.7-0.2,1.3,0.1,1.7
		c0.3,0.4,0.8,0.6,1.6,0.6c0.8,0,1.7-0.2,2-0.4c2.3-0.8,4.1-2.4,5.9-3.9c1.3-1.1,2.6-2.3,4.2-3.2C339.5,373.4,339.9,373.2,340.3,373
		z"/>
	<path d="M356.3,355.1c-0.1-1.1,0-2.2,0.1-3.4c0.3-3.4,0.6-7.3-3.1-9.6c-0.5-0.3-0.9-0.5-1.3-0.5c-0.3,0-0.5,0.1-0.7,0.3
		c-0.3,0.4-0.3,1.1-0.1,2.1c0.2,1,0.5,1.9,0.7,2.7c0.7,2.3,1.3,4.3,0.7,7.1c-0.3,1.3,0.1,4.1,1.3,5.5c0.5,0.6,1.1,0.9,1.8,0.9
		c0.1,0,0.3,0,0.4,0c0.4-0.1,0.6-0.2,0.8-0.5c0.5-0.8,0-2.3-0.4-3.4C356.5,355.8,356.4,355.3,356.3,355.1z"/>
	<path d="M510.7,234.4c0.7,2,2.1,3,3.6,3.4c3.6,0.9,8.3-2.1,8.3-6.4C522.6,222.8,507.7,226.3,510.7,234.4z"/>
	<path d="M705.7,266.6c-1.9-0.6-3.8,0.3-4.4,1.9c0,0.1-3.3,9-8.4,17.6c-1.6,2.8-11.9,18-16.8,15.8c-0.8-0.4-2.4-3.4-3-5.5
		c-1.6-4.9-0.8-16-0.8-24.2c0-3.1,3.2-3.7,10.8-12.2c4.9-5.5,7.9-11.2,7.9-15.2c0-3-2.1-5.5-5.7-6.6c-8.6-2.2-15.6,2.2-20.8,7.9
		c-5.9,6.4-10,16.8-11,27.4c-0.9,4.2-2.5,10.6-4.4,17.2c-5.9,19.7-10.6,24-12.4,24.9c-0.6,0.3-1.3,0.4-1.7,0
		c-0.8-0.6-3.2-5.4-4.1-8.2c-1.1-2.8-2.2-7.8-2.5-11.2c-0.3-3.1-0.8-13.3-1-22.1l1.6-2.2c9.1-13.4,13-21.8,14.5-29.7
		c1.7-9.2-1.6-23.4-12.9-24.9c-3.7-0.1-6.5,0.7-7.9,2.1c-4.1,5.5-6.8,11.5-8.7,17.6h-0.3h-2.1c9.2-20.9-12.9-26-24.3-8.4
		c-1.5,2.2-3.2,5.4-4.7,8.4c-0.4,0-0.9,0-1.4,0h-3.2h-2.1c9.2-20.9-12.9-26-24.3-8.4c-1.7,2.5-3.7,6.3-5.2,9.5
		c-3.8,0.6-18.9,1.6-19.2,5.4c0.8,4.6,12.9,3.3,15.6,3.3c0.2,0-0.2,0.7-0.3,1.5c-1.9,7.7-3.2,15.8-4,23c-2,8.7-7.3,25.5-14.8,29.9
		c-6.4,3.7-8.1-5.7-8.3-9.4c-0.5-14.3,6-27.7,5.1-41.8c-0.3-4.7-6.3-6.4-9.7-2.9c-3,3.1-3.3,8.2-4.7,12c-1.7,4.8-2.9,8.8-4,14.2
		c-1.2,5.1-1.9,8.9-2.1,12.3c-0.4,1.6-0.9,3.3-1.4,5c-5.9,19.7-10.6,24-12.4,24.9c-0.6,0.3-1.3,0.4-1.7,0c-0.8-0.6-3.2-5.4-4.1-8.2
		c-1.1-2.8-2.2-7.8-2.5-11.2c-0.3-3.1-0.8-13.3-1-22.1l1.6-2.2c9.1-13.4,13-21.8,14.5-29.7c1.7-9.2-1.6-23.4-12.9-24.9
		c-3.7-0.1-6.5,0.7-7.9,2.1c-15.6,21.2-12.2,49.2-11.9,60.6c1.6,19.1,7.1,33,15.6,38.9c2.9,2.1,6.2,3.6,9.4,3.6c1.6,0,3-0.4,4.4-1.2
		c3.3-1.8,6.4-5.7,9.4-11.8c1.4-2.7,2.7-6,4-9.6c3.4,5.6,9.6,8.9,17.6,8.9c7.6,0,13-6.5,16.6-13.2c0.4,13.9,3.1,34.1,18,31.3
		c2.7-0.7,6.2-2.8,10.2-10.7c2.7-5.6,5.2-12.1,7.5-18.9c0.5,13.7,3.7,32.3,17.9,29.6c2.7-0.7,6.2-2.8,10.2-10.7
		c4.1-8.4,7.6-18.9,10.8-29.1c2.3,15.5,7.4,26.7,14.8,31.9c2.9,2.1,6.2,3.6,9.4,3.6c1.6,0,3-0.4,4.4-1.2c3.3-1.8,6.4-5.7,9.4-11.8
		c2.2-4.4,4.3-10.1,6.3-16.9c3.3,8.7,10.2,15.1,21.8,15.7c7.3-0.6,14.5-7.3,21.6-19.2c5.2-9.1,8.7-18.2,8.7-18.5
		C708.4,268.8,707.5,267,705.7,266.6z M475.9,263.6c0-0.9,0-3,0-4.5c0-3.6,0.3-9.5,0.6-14.2c0.6-8.7,2.5-16.7,4.8-20.4
		c1.3-2.1,1.9-0.6,3,0.7c4.1,5.8,3.3,13.9,1.4,19.7c-1.3,4.8-5.2,13.3-8.9,18.8l-1,1.6V263.6z M569.9,222.3c0.2,0,0.5,0.3,0.8,0.7
		c1.9,2.2,1.4,7.5-1.3,14c-3.2,0-5.6,0.1-7.8,0.1C562.6,233.8,566.9,222.3,569.9,222.3z M560.1,244.8c0.2-0.3,1.6-0.5,2.8-0.5
		c0.2,0.5,0.6,0.9,1.1,1.2c-1.1,1.7-3.6,5.7-6,9C558.3,253.9,558.8,247.7,560.1,244.8z M577.9,248.4c-1.9,7.3-3.1,15-3.9,22
		c-2.7,8.7-5.8,16.7-8.6,24.7c-2.4,6.9-4.4,13.3-7,18.2c-1.9,4-3.5,5.8-4.4,6.4l-1-4.3c-1.4-10-0.5-23.7,4-50.1
		c5.8-8.1,9.2-13,12.5-18.3c3.5,0.3,7.4-0.1,8.8-0.1C578.3,246.9,578,247.7,577.9,248.4z M605.5,222.3c0.2,0,0.5,0.3,0.8,0.7
		c1.9,2.2,1.4,7.5-1.3,14c-3.2,0-5.6,0.1-7.8,0.1C598.2,233.8,602.5,222.3,605.5,222.3z M595.6,244.8c0.3-0.4,4.4-0.7,4.4-0.1
		c-0.2,0.3-3.5,5.7-6.5,9.8C593.9,253.9,594.4,247.7,595.6,244.8z M610.1,268.5c-0.1,0.2-0.2,0.4-0.2,0.4c-2.9,9.2-6,17.6-9.1,26.1
		c-2.4,6.9-4.4,13.3-7,18.2c-1.9,4-3.5,5.8-4.4,6.4l-1-4.3c-1.4-10-0.5-23.7,4-50.1c7-9.7,10.5-14.8,14.5-21.5
		c0.2-0.1,2.3-0.2,5.2-0.4C610.2,252.5,609.9,261.3,610.1,268.5z M632,224.5c1.3-2.1,1.9-0.6,3,0.7c3.3,4.7,3.5,10.9,2.4,16.1
		c-0.1-0.6-0.7-1.2-1.7-1.8c-1.8-0.9-4.2-1.5-7.6-1.9C629,232,630.4,227.2,632,224.5z M626.6,263.6c0-0.9,0-3,0-4.5
		c0-3.6,0.3-9.5,0.6-14.2c0-0.7,0.1-1.3,0.2-2c1.1,0,2.1,0,2.8,0c5.2,0.1,5.7,0,6.5-0.4c0.2-0.1,0.3-0.3,0.5-0.4
		c-0.2,1-0.5,1.9-0.8,2.8c-0.6,5.7-3,16.3-8.9,18.8l-1,1.6V263.6z M671.1,262.7c0-0.1,0.5-1.8,1.1-3.9c2.1-5.8,5.1-11.3,8.3-14.5
		c1.4-1.3,1.4-1.3,1.9-0.9C686.8,247.7,672.7,261.1,671.1,262.7z"/>
	<path d="M561.4,350.8c-11-0.8-21.3-0.5-31.9-0.8c-6.7,1.6-5,5.8-0.7,7.1l10.9,0.4c0.1,0.1,0.3,26.5,0.3,36.9
		c0,9.8-0.5,37.9-0.7,47.5c1,3.8,6.5,5,7.6,1v-1.8c0-6.5,0.5-17,0.5-22.5c0.3-17.5,0.8-60.6,1-60.7l14.8,0.3
		C567.1,358.1,567.5,351.4,561.4,350.8z"/>
	<path d="M585.1,452.4l4.1-92.9c0-0.3,0.1-2,0.1-2.4c0-3.9,0-5.7-3.9-5.7c-2.9,0-3.5,0.1-4.5,2.9L577.3,455
		C577.3,458.9,584.9,458.4,585.1,452.4z"/>
	<path d="M655,350.1c-3.4-2.3-6.4-2.7-7.7,0c-3,5-14.8,43.2-18.7,47.7l-16.6-45.4c-1.6-4.5-7.9-1.4-7.9,2.7c0.3,85.7-1,88.5-1,92.9
		c0,2.6-0.1,3.3,2.7,3.3c1.6,0,2.7,0,4.2-1c3.3-25.4,0.4-51.5,2.7-77c4.5,11.1,7.6,22.4,11.1,33.8c0.1,0.4,0.8,1.5,1,1.6
		c1.1,1.2,7.5,1,7.7-1.8l14.7-36.1c1.4,27.3,2.2,54.6,1.8,82c0.8,2.2,1.4,2.7,3.5,2.7c2.6,0,4.2-2.2,4.2-4.6
		c0-12.2-0.7-24.9-0.8-36.9C655.8,394.9,655.1,350.1,655,350.1z"/>
	<path d="M685.8,448.6c-1.2,0-5.8,0-7.1-0.1l0.4-35.4l13.6-2c5.4-0.8,7.9-7.1,1.5-7.1h-0.7l-14.7,2.2l-0.7-45.1h16.3
		c2.2,0,5.8-1.2,5.8-3.9c0-0.3,0-0.4-0.1-0.7c-0.1-0.7-2.9-2.7-3.7-2.7H675c-2.4,0-4.8,2.3-4.8,4.8l1.5,94.8
		c0,2.6,30.4,3.1,30.1-1.5C701.5,445.5,694.9,448.6,685.8,448.6z"/>
	<path d="M13.2,304.2c3.9,5.9,10.8,4.6,12.8-1.9c1.6-5.3,0.7-11.1,1.3-16.6c0.5-10.3,0.8-14.1,1.5-20c0.9-6.4,2.9-17.8,2.9-14.9
		c0,0.8,0,6.5,0.4,10.9c0.1,7.1,0.6,14.7,4.6,20.3c1.4,2.1,4.5,3.6,6.7,3.3c7.5-0.9,10.4-36.2,15.5-43.2c0,0-0.1,1.2-0.4,2.6
		c-3.5,20.9-7.8,41.6-2.3,59.7c2.1,7.3,6.2,12,10.8,13.2c9.9,2.4,14.2-7.9,16-15.4c0.8-3.6,1.4-6.7,1.9-9.6c1,1.9,2.2,3.4,3.6,4.4
		c1.7,1.2,5.1,3.3,7.3,3.2c3.2-0.1,5.8-1.6,8.3-4.1c2.6-2.8,3-5.3,3.7-8l0.5-2c4.1,13.9,6.3,19,11.3,20.9
		c11.4,4.1,20.1-1.2,22.5-24.1c0.3-3.1,0.7-6.2,1.1-8.9c3,6,6.5,11.7,9.6,14.9c4.8,5.5,14,8.3,16.3,0.8c1.4-12.4-0.4-24.6,0.9-36.8
		c0.8-9,3.4-17.2,7.7-22.4c3.8,6,2.8,10.7,2.5,18.2c-0.7,16.2-2.8,34.2,2.4,49.7c2.9,8.7,10.5,17.8,20.4,16.4
		c10.8-1.6,13.5-20.2,14-36.9c3.9,4.4,9.7,6.2,15.2,2.8c4.5-2.8,8-7.1,11.3-27.8l5.9,19.4l-3.9,8c-4.2,8.8-6.1,13.5-7.7,18.5
		c-1.5,5.2-2.4,9.6-2.4,13.8c0.9,11.7,12,15.3,22.3,12.7c22.7-8.3,14.1-33.9,8.3-49.8l-2.3-6.4c0.2-0.5,0.6-0.9,1-1.2
		c6.4-7,11.4-11.6,12-24c0.1-1.5-0.2-3.6-2.4-3.6c-3.4-0.1-4.1,2.9-4.1,3.2c-1.1,8.1-3.8,12.6-9.2,18.5c-2.9-8.3-4.9-14.5-6.3-21
		c-1-4.5-1-8.3-5.6-9.3c-3.5-0.8-5.9,0.5-7.5,3.6c-2.2,4.3-3.7,9.6-4.9,14.3c-1.8,6.8-6.8,22.2-7.7,21.1c-0.5-0.5-0.9-7.3-0.8-11
		c0.1-5.6-0.1-17.5-0.4-21.9c-0.2-4.7-0.4-14.9-8.1-13.3c-4.4,0.9-7.3,7.8-8.3,11.4c-1.7,6.4-2,15-1.2,22.9
		c0.2,8.1-0.1,16.2-0.6,24.3c-0.7,6.9-1.5,12.7-2.7,17c-1.5,5.5-3.1,7.8-4.3,8.1c-4.7-9.2-4.4-18.7-4.2-28.8
		c0.4-22.1,0.3-27.4-1.2-34.5c-2.1-9.9-6.9-22.1-18.8-19.3c-19.1,5.1-15.2,34.3-16.2,48.6c-2.1-2.7-2.1-8.5-2.7-11.6
		c-1.2-6.6-2.4-13.2-4.1-19.7c-1.1-4.2-2.1-10.2-5.7-13.1c-8.2-6.7-14.2,6.9-14.5,13.3c-0.1,5.1,1.1,12.7,3.1,19.1
		c0,0.1-0.1,0.3-0.1,0.4c0,0.1-0.8,9.2-2.5,19.1c-1.4,7.4-2.4,9.9-3.7,13.5c-0.8,1.6-2.9,5-4.3,3.7c-1-0.9-1.6-3.7-1.7-7.4
		c-1.1-7.5,2.3-37.6,1.3-44.3c0-2.4-0.9-5.2-2-6.7c-0.8-1.4-3-2.6-3.4-2.1c-0.3,0.3-0.4,0.4-0.9,0c-1.4-1.2-2.5-1.5-4.8-1.9
		c-3.8-0.8-7.5-0.6-12.1,0.7c-7.5,1.9-15,8-19.1,15.4c-3.3,6-4.6,14.8-4.2,23c-1.9,12.5-6.4,38.9-10,36.6c-2-1.2-3.4-12.1-3.3-18.4
		c0.5-19.6,6-38.3,6.9-57.3c0.6-12.4-9.4-16.3-15.3-6c-7.5,13.3-10.3,28.3-14.4,42.3c-0.7-3.9-1.3-11.1-1.6-17
		c-0.2-2.4-0.6-7.2-1.1-10.9c-0.8-7.6-1.2-10.3-3-11.1c-9.2-4.3-9,2.1-11,9.1c-2.7,8.8-4.2,16.3-5.8,28.2l-0.8,6.8l-0.2-2.4
		c-0.4-4.5-0.8-11.6-0.8-17.1c-0.4-10.9-0.6-14.5-1.5-20.9c-0.5-3.3-1.5-13.6-7.1-12.9c-3.8,0.5-6.2,8.8-6.6,11.9
		c-1.3,8.8-1,17.9-0.6,26.7C5.4,284.8,8,296.2,13.2,304.2z M253.5,283.7c0,0,1.2,2.9,2.4,6.3c1.9,6,8.9,27.3-2.6,29
		c-9.2,1.3-7.1-11.9-5.9-16.8C248.2,298.3,253.2,283.5,253.5,283.7z M100.5,257.7c1.8-5.1,4.4-8.6,8-11.2c1-0.7,2-1,1.9-0.6
		c-2.8,7.3-0.9,14.9-3.4,21.7c-1.9,5.8-4.4,16.6-6.5,20.3l-1,1.5l-0.3-0.7c-0.5-1.4-1.7-10.4-1.7-13
		C97.6,270.2,99,261.8,100.5,257.7z"/>
	<path d="M117.6,207c1,0.1,2,0.1,3.1,0.1c10.3,0,14.6-6.1,16.4-16.5c2.3-13.7-3.6-24.2-10.3-35.9c-4.3-7.4-7.6-10.7-6.2-18.8
		c2.9-17.8,16.4-7.3,17.6-13.5c0.6-3.6-1.8-4.3-5.2-4.7c-1-0.1-1.9-0.1-2.8-0.1c-10.6,0-15.4,6.9-17.2,16.9
		c-1.1,7.1,0.8,12,4.3,17.6c7.6,12,14.6,22.8,12.3,37.1c-1.1,6.9-3.1,12.7-11.3,11.3c-5.1-0.8-4.2-7-8.9-7.8c-1.8,0-3.7,1.5-3.8,3.1
		c0,0.3-0.1,0.6-0.1,0.9C105.3,201.9,113.1,206.2,117.6,207z"/>
	<path d="M150.9,154.1c0,14.9,1,53.3,23.5,53.3c12.7,0,17.4-16.2,18.3-25.4c1.3-16.9,4.6-71.1-18.2-73.7
		C152,108.3,150.9,137.9,150.9,154.1z M186.6,160.2v0.5c0,8-0.1,40.3-12.6,40.3c-9,0-15.9-10.2-15.9-47.4c0-3.6,0-7.1,0.1-11.2
		c0-6.4,4.1-27.6,13.6-27.6C184,114.8,186.6,150.4,186.6,160.2z"/>
	<path d="M545.3,191.7c-6.1,0-5.8-6.6-11.4-6.7c-2.1,0.3-4.1,2.1-4.1,3.7c0,0.3-0.1,0.7,0,0.9c0.7,5.4,10.3,8.7,15.7,8.8
		c1.2,0,2.4-0.2,3.6-0.3c12.1-1.5,16.3-8.5,17-19.6c0.9-14.6-7.4-24.5-16.8-35.6c-6-7-10.3-9.9-9.8-18.6c1.1-18.9,18.2-10,18.7-16.6
		c0.3-3.8-2.7-4.2-6.7-4.1c-1.2,0-2.2,0.2-3.3,0.3c-12.4,1.6-17.1,9.4-17.8,20.1c-0.4,7.5,2.5,12.3,7.4,17.5
		c10.5,11.2,20.1,21.4,19.4,36.6C556.6,185.6,555.1,191.9,545.3,191.7z"/>
	<path d="M599.1,113c-19.9,0-21.4,26.8-21.9,36.9c-0.2,4.1-0.9,16.4,1.5,26.8c2.7,11.8,8.5,18.1,17.1,18.6c0.3,0,0.5,0,0.8,0
		c13.2,0,16.5-18.3,16.8-20.4c5.2-38.3,0.7-59.7-13-61.9C600,113,599.5,113,599.1,113z M608.4,156.6l0,0.4
		c-1.1,20.9-5.5,32.4-12.3,32.4h0c-0.1,0-0.2,0-0.3,0c-4.3-0.2-7.4-3-9.3-8.4c-2.3-6.5-3.1-16.7-2.3-31.2c0.2-2.9,0.3-5.8,0.6-9.2
		c0.3-5.1,4.8-21.8,12.6-21.8c0.1,0,0.2,0,0.3,0C608.2,119.3,608.8,149.3,608.4,156.6z"/>
	<path d="M7.1,421.5c3.3,1.2,4.3,1.2,7.3,0.7l2.8-0.7c10.7-3.1,19.6-11.4,19.6-23.2c0-15-4.1-31-18.8-37.5c5.9-5.3,6.6-6.3,6.6-14.1
		c0-11.8-9.6-16.3-20.4-17c-1.9-0.1-4.3,1-4.3,3.1c0,2.9,0,4,0.7,7.8C2.5,350.7,2.7,418.9,7.1,421.5z M30.4,396.3
		c0,11.8-6.2,20-18.9,20h-0.7c-0.8-16.3-2-30.6-2.9-47.6c0-0.6-0.1-3.5-0.1-4.1C25,364.7,30.4,381.4,30.4,396.3z M6.3,336.1
		c7.5,0,11.8,4.4,11.8,11.8c0,5.2-3.4,10.1-9,10.1c-0.2,0-1.6,0-1.9-0.1c-0.1-0.8-0.6-5.4-0.6-6.4C6.4,349.1,6.3,338.4,6.3,336.1z"
		/>
	<path d="M63,331.7c-20,0-21,26.3-21,40.7c0,13.2,0.9,47.4,20.9,47.4c11.3,0,15.5-14.4,16.3-22.6C80.3,382.1,83.2,333.9,63,331.7z
		 M73.7,378.3c0,7.1-0.1,35.8-11.2,35.8c-8,0-14.1-9-14.1-42.2c0-3.2,0-6.3,0.1-10c0-5.7,3.6-24.5,12.1-24.5
		c10.7,0,13.1,31.7,13.1,40.4V378.3z"/>
	<path d="M112.4,331.7c-20,0-21,26.3-21,40.7c0,13.2,0.9,47.4,20.9,47.4c11.3,0,15.5-14.4,16.3-22.6
		C129.7,382.1,132.6,333.9,112.4,331.7z M123.1,378.3c0,7.1-0.1,35.8-11.2,35.8c-8,0-14.1-9-14.1-42.2c0-3.2,0-6.3,0.1-10
		c0-5.7,3.6-24.5,12.1-24.5c10.7,0,13.1,31.7,13.1,40.4V378.3z"/>
	<path d="M164.4,420.7c0.9,1.5,1.5,1.5,2.9,1.5c2.9,0,4-3.1,2.8-5.1L149,377.8l18.3-42.3c1.6-5-1.5-5.7-3.1-5.7
		c-4.1,0-4.2,4.5-5.1,7.7c-2.7,9.5-8.4,21.5-15.2,35.1l-1.1-37.8c-0.1-2.9-1.1-4.3-3.4-4.3c-1.8,0-3.2,1.4-3.2,3.3l3.2,87.4
		c0.2,4.5,5,3.3,6.2,0.2c0-14.2-1.5-32.8-1.5-38v-0.9C152,394.3,158.1,409.2,164.4,420.7z"/>
	<path d="M187.4,415.9h-0.7c-5.7-3.3-1.4-13.2-5.9-14.6c-1.8-0.6-4.4,1.4-4.4,3.3c0,6.8,2.6,17.2,11,17.2c6.9,0,12-8,13.8-13.9
		c2.7-8.6,0.3-21.3-4.3-30c-5.1-9.5-14.7-17.5-14.7-28.9c0-4,0.5-12,6.2-12c6.2,0,4.9,6.8,9.3,6.8c2.3,0,2.9-1.2,2.9-3.4
		c0-5.9-8.3-9.8-13.2-9.8c-7.8,0-11.6,10.5-11.6,16.8c0,14,11.4,24.2,16.7,36.4c2.6,5.9,3.1,12.6,3.1,18.8
		C195.5,407.2,193.7,415.9,187.4,415.9z"/>
	<path d="M80.4,175.9c3.4,0,6.7-1.4,9.1-3.8s3.8-5.7,3.8-9.1s-1.4-6.7-3.8-9.1c-2.4-2.4-5.7-3.8-9.1-3.8c-3.4,0-6.7,1.4-9.1,3.8
		c-2.4,2.4-3.8,5.7-3.8,9.1s1.4,6.7,3.8,9.1S77,175.9,80.4,175.9z"/>
	<path d="M653.3,172.1c15.7,0,15.7-24.3,0-24.3C637.6,147.8,637.6,172.1,653.3,172.1z"/>
	<path d="M200.3,452.4c2.3-1.4,2.3-4.8,0-6.2c-6.4-3.7-14.6-2.5-21.7-2.4c-8,0.1-15.9,0.2-23.9,0.3c-16.6,0.2-33.2,0.3-49.7,0.4
		c-15.9,0.1-31.8,0.1-47.7,0.3c-8,0.1-15.9,0.2-23.9,0.4c-7.9,0.1-17-0.8-24.6,1.4c-2.8,0.8-2.8,4.8,0,5.6c7,2.1,15.4,1.3,22.7,1.4
		c8,0.1,15.9,0.2,23.9,0.4c16.6,0.2,33.2,0.2,49.7,0.3c15.9,0.1,31.8,0.2,47.7,0.3c8,0.1,15.9,0.2,23.9,0.3
		C184.3,454.9,193.5,456.4,200.3,452.4z"/>
	<path d="M614.3,489c-0.3,0.1-0.6,0.2-0.9,0.4c-4.2,0-8.4-0.7-12.6-0.8c-0.8,0-1.5,0-2.3,0c-2.2-6.2-5.1-12.3-5.9-18.9
		c-0.1-0.7-0.3-1.2-0.7-1.6c0-0.1,0-0.1-0.1-0.2c-0.5-1.7-2.4-2-3.7-1c-2.9,2.4-3.9,7.3-5.6,10.6c-1.6,3.1-3.3,6-5.1,9
		c-2.4-0.4-4.9-0.8-7.3-1.2c-4.8-0.8-10.1-2.1-15-1.1c-1.3,0.3-1.7,2.2-0.8,3c0.1,0.4,0.3,0.7,0.6,1.1c4.3,4.8,10.1,8.1,15.7,11.5
		c-2.3,5.1-4.5,10.3-6.7,15.5c-0.6,1.5,0.9,3.4,2.3,2.7c6.7,0.3,13.1-4.1,18.8-7.8c2.1,1.6,4.2,3.1,6.4,4.6
		c3.6,2.3,8.3,3.9,10.7,7.6c2.2,3.4,7.8,0.2,5.5-3.2c-0.2-0.3-0.4-0.5-0.6-0.7c0.1-0.3,0.1-0.7,0-1.1c-1.2-5.5-3.1-10.9-4.8-16.2
		c3.4-1.7,6.7-3.8,10.1-5.4c0.7,0,1.4,0,2.1-0.1c2.1-0.2,3.1-2,2.9-3.6C617.7,490.1,616.4,488.2,614.3,489z"/>
	<path d="M114.6,59.6c4.3,4.8,10.1,8.1,15.7,11.5c-2.3,5.1-4.5,10.3-6.7,15.5c-0.6,1.5,0.9,3.4,2.3,2.7c6.7,0.3,13.1-4.1,18.8-7.8
		c2.1,1.6,4.2,3.1,6.4,4.6c3.6,2.3,8.3,3.9,10.7,7.6c2.2,3.4,7.8,0.2,5.5-3.2c-0.2-0.3-0.4-0.5-0.6-0.7c0.1-0.3,0.1-0.7,0-1.1
		c-1.2-5.5-3.1-10.9-4.8-16.2c3.4-1.7,6.7-3.8,10.1-5.4c0.7,0,1.4,0,2.1-0.1c2.1-0.2,3.1-2,2.9-3.6c0.2-1.8-1.1-3.7-3.2-2.9
		c-0.3,0.1-0.6,0.2-0.9,0.4c-4.2,0-8.4-0.7-12.6-0.8c-0.8,0-1.5,0-2.3,0c-2.2-6.2-5.1-12.3-5.9-18.9c-0.1-0.7-0.3-1.2-0.7-1.6
		c0-0.1,0-0.1-0.1-0.2c-0.5-1.7-2.4-2-3.7-1c-2.9,2.4-3.9,7.3-5.6,10.6c-1.6,3.1-3.3,6-5.1,9c-2.4-0.4-4.9-0.8-7.3-1.2
		c-4.8-0.8-10.1-2.1-15-1.1c-1.3,0.3-1.7,2.2-0.8,3C114.1,58.9,114.2,59.2,114.6,59.6z"/>
	<path d="M169,475.1c-5.7-3.4-13.1-2.2-19.5-2.1c-7.9,0.1-15.8,0.2-23.7,0.3c-7.9,0.1-15.8,0.2-23.7,0.4c-7.4,0.2-15.3-0.4-22.4,2.1
		c-2.2,0.8-2.2,3.7,0,4.5c6.5,2.3,13.6,1.9,20.4,2c7.9,0.2,15.8,0.3,23.7,0.4c7.9,0.1,15.8,0.2,23.7,0.3c6.9,0.1,15.3,1.6,21.5-2.1
		C171.2,479.5,171.2,476.4,169,475.1z"/>
	<path d="M159.2,504.9c-6.7-2.3-13.6-1.7-20.6-1.6c-8,0.1-15.8,1.7-23.7,2.1c-3.3,0.2-3.3,4.9,0,5.1c7.3,0.4,14.4,1.9,21.7,2
		c7.6,0.1,15.3,0.9,22.6-1.6C162.2,509.9,162.2,505.9,159.2,504.9z"/>
	<path d="M542.4,77.1c3.7,3.7,8.4,2.5,12.5,2.4c4.6-0.1,9.1-0.2,13.7-0.3c9.5-0.2,19-0.3,28.6-0.4c9.1-0.1,18.3-0.1,27.4-0.3
		c4.6-0.1,9.1-0.2,13.7-0.4c4.5-0.1,9.8,0.8,14.2-1.4c1.6-0.8,1.6-4.8,0-5.6c-4-2.1-8.8-1.3-13-1.4c-4.6-0.1-9.1-0.2-13.7-0.4
		c-9.5-0.2-19-0.2-28.6-0.3c-9.1-0.1-18.3-0.2-27.4-0.3c-4.6-0.1-9.1-0.2-13.7-0.3c-4.4-0.1-9.7-1.6-13.6,2.4
		C541,72.3,541,75.8,542.4,77.1z"/>
	<path d="M555.6,48.3c4.9,3.4,11.3,2.2,16.8,2.1c6.8-0.1,13.6-0.2,20.5-0.3c6.8-0.1,13.6-0.2,20.5-0.4c6.4-0.2,13.2,0.4,19.3-2.1
		c1.9-0.8,1.9-3.7,0-4.5c-5.6-2.3-11.7-1.9-17.6-2c-6.8-0.2-13.6-0.3-20.5-0.4c-6.8-0.1-13.6-0.2-20.5-0.3c-6-0.1-13.2-1.6-18.5,2.1
		C553.8,43.8,553.8,47,555.6,48.3z"/>
	<path d="M564.6,18.4c6.1,2.3,12.3,1.7,18.6,1.6c7.3-0.1,14.3-1.7,21.4-2.1c3-0.2,3-4.9,0-5.1c-6.6-0.4-13-1.9-19.6-2
		c-6.9-0.1-13.8-0.9-20.4,1.6C561.9,13.4,561.9,17.4,564.6,18.4z"/>
</g>
</svg>
